<svg id="visual" viewBox="0 0 900 600" width="900" height="600" xmlns="http://www.w3.org/2000/svg" xmlns:xlink="http://www.w3.org/1999/xlink" version="1.1"><rect x="0" y="0" width="900" height="600" fill="#bfc1f1"></rect><defs><linearGradient id="grad1_0" x1="33.3%" y1="100%" x2="100%" y2="0%"><stop offset="20%" stop-color="#285870" stop-opacity="1"></stop><stop offset="80%" stop-color="#285870" stop-opacity="1"></stop></linearGradient></defs><defs><linearGradient id="grad1_1" x1="33.3%" y1="100%" x2="100%" y2="0%"><stop offset="20%" stop-color="#285870" stop-opacity="1"></stop><stop offset="80%" stop-color="#567a9b" stop-opacity="1"></stop></linearGradient></defs><defs><linearGradient id="grad1_2" x1="33.3%" y1="100%" x2="100%" y2="0%"><stop offset="20%" stop-color="#889dc7" stop-opacity="1"></stop><stop offset="80%" stop-color="#567a9b" stop-opacity="1"></stop></linearGradient></defs><defs><linearGradient id="grad1_3" x1="33.3%" y1="100%" x2="100%" y2="0%"><stop offset="20%" stop-color="#889dc7" stop-opacity="1"></stop><stop offset="80%" stop-color="#bfc1f1" stop-opacity="1"></stop></linearGradient></defs><defs><linearGradient id="grad2_0" x1="0%" y1="100%" x2="66.7%" y2="0%"><stop offset="20%" stop-color="#285870" stop-opacity="1"></stop><stop offset="80%" stop-color="#285870" stop-opacity="1"></stop></linearGradient></defs><defs><linearGradient id="grad2_1" x1="0%" y1="100%" x2="66.7%" y2="0%"><stop offset="20%" stop-color="#567a9b" stop-opacity="1"></stop><stop offset="80%" stop-color="#285870" stop-opacity="1"></stop></linearGradient></defs><defs><linearGradient id="grad2_2" x1="0%" y1="100%" x2="66.7%" y2="0%"><stop offset="20%" stop-color="#567a9b" stop-opacity="1"></stop><stop offset="80%" stop-color="#889dc7" stop-opacity="1"></stop></linearGradient></defs><defs><linearGradient id="grad2_3" x1="0%" y1="100%" x2="66.7%" y2="0%"><stop offset="20%" stop-color="#bfc1f1" stop-opacity="1"></stop><stop offset="80%" stop-color="#889dc7" stop-opacity="1"></stop></linearGradient></defs><g transform="translate(900, 600)"><path d="M-432.7 0C-404.5 -47.7 -376.4 -95.3 -359.4 -148.9C-342.4 -202.4 -336.6 -261.9 -305.9 -305.9C-275.3 -350 -219.7 -378.7 -164.6 -397.3C-109.4 -415.8 -54.7 -424.2 0 -432.7L0 0Z" fill="#a3afdc"></path><path d="M-324.5 0C-303.4 -35.7 -282.3 -71.5 -269.5 -111.6C-256.8 -151.8 -252.5 -196.4 -229.5 -229.5C-206.4 -262.5 -164.8 -284 -123.4 -298C-82.1 -311.9 -41 -318.2 0 -324.5L0 0Z" fill="#6f8cb1"></path><path d="M-216.3 0C-202.3 -23.8 -188.2 -47.7 -179.7 -74.4C-171.2 -101.2 -168.3 -130.9 -153 -153C-137.6 -175 -109.8 -189.4 -82.3 -198.6C-54.7 -207.9 -27.4 -212.1 0 -216.3L0 0Z" fill="#3f6986"></path><path d="M-108.2 0C-101.1 -11.9 -94.1 -23.8 -89.8 -37.2C-85.6 -50.6 -84.2 -65.5 -76.5 -76.5C-68.8 -87.5 -54.9 -94.7 -41.1 -99.3C-27.4 -104 -13.7 -106.1 0 -108.2L0 0Z" fill="#285870"></path></g><g transform="translate(0, 0)"><path d="M432.7 0C414.7 55 396.8 110 368.6 152.7C340.5 195.4 302.1 225.7 269.4 269.4C236.7 313.1 209.5 370.3 165.6 399.7C121.6 429.2 60.8 430.9 0 432.7L0 0Z" fill="#a3afdc"></path><path d="M324.5 0C311 41.3 297.6 82.5 276.5 114.5C255.4 146.5 226.6 169.3 202.1 202.1C177.5 234.9 157.2 277.7 124.2 299.8C91.2 321.9 45.6 323.2 0 324.5L0 0Z" fill="#6f8cb1"></path><path d="M216.3 0C207.4 27.5 198.4 55 184.3 76.3C170.2 97.7 151.1 112.8 134.7 134.7C118.3 156.6 104.8 185.1 82.8 199.9C60.8 214.6 30.4 215.5 0 216.3L0 0Z" fill="#3f6986"></path><path d="M108.2 0C103.7 13.8 99.2 27.5 92.2 38.2C85.1 48.8 75.5 56.4 67.4 67.4C59.2 78.3 52.4 92.6 41.4 99.9C30.4 107.3 15.2 107.7 0 108.2L0 0Z" fill="#285870"></path></g></svg>