<?xml version="1.0" encoding="UTF-8" standalone="no"?><!DOCTYPE svg PUBLIC "-//W3C//DTD SVG 1.1//EN" "http://www.w3.org/Graphics/SVG/1.1/DTD/svg11.dtd"><svg width="100%" height="100%" viewBox="0 0 500 500" version="1.1" xmlns="http://www.w3.org/2000/svg" xmlns:xlink="http://www.w3.org/1999/xlink" xml:space="preserve" xmlns:serif="http://www.serif.com/" style="fill-rule:evenodd;clip-rule:evenodd;stroke-linejoin:round;stroke-miterlimit:2;"><rect id="Página-1" serif:id="Página 1" x="0" y="0" width="500" height="500" style="fill:none;"/><clipPath id="_clip1"><rect x="0" y="0" width="500" height="500"/></clipPath><g clip-path="url(#_clip1)"><g id="BACKGROUND"></g><g id="OBJECTS"><g><g><path d="M95.107,248.308c0.043,-2.416 -0.114,-4.507 -0.228,-6.6c-0.175,-3.237 -0.573,-6.438 -1.489,-9.565c-1.023,-3.493 -3.029,-6.37 -5.512,-8.957c-0.36,-0.376 -0.755,-0.732 -1.276,-0.891c-0.181,-0.055 -0.371,-0.025 -0.477,0.117c-0.115,0.152 -0.063,0.323 0.096,0.452c0.494,0.402 0.698,0.995 0.992,1.527c1.716,3.109 3.041,6.391 4.346,9.686c1.496,3.777 2.225,7.714 2.515,11.744c0.062,0.861 0.381,1.57 1.033,2.487m-9.051,-24.836c-0.394,0.511 -0.271,0.96 -0.264,1.369c0.08,4.592 1.018,9.016 2.599,13.318c0.473,1.286 1.058,2.469 2.114,3.409c0.614,0.546 1.083,1.255 1.621,1.887c0.173,0.204 0.284,0.496 0.633,0.548c-0.632,-7.389 -3.545,-13.941 -6.703,-20.531m16.749,-175.67c-1.237,-1.13 -2.519,-1.527 -3.978,-1.428c-1.657,0.114 -3.306,0.296 -4.93,0.653c-3.028,0.666 -5.699,1.945 -7.587,4.526c-0.161,0.219 -0.429,0.425 -0.312,0.738c0.103,0.043 0.143,0.077 0.18,0.072c0.216,-0.025 0.435,-0.041 0.645,-0.093c2.307,-0.568 4.128,0.057 5.392,2.139c0.363,0.598 0.849,1.105 1.417,1.53c0.4,0.299 0.707,0.432 1.09,-0.069c0.312,-0.411 0.721,-0.771 1.148,-1.064c1.095,-0.752 1.828,-1.756 2.164,-3.024c0.551,-2.086 1.962,-3.223 3.973,-3.74c0.209,-0.053 0.413,-0.124 0.798,-0.24m10.443,6.166c0.072,-0.066 0.144,-0.132 0.216,-0.198c-1.298,-2.132 -2.797,-4.016 -5.468,-4.6c-1.154,-0.253 -2.346,-0.249 -3.479,-0.612c-2.19,-0.7 -4.636,0.562 -5.353,2.746c-0.122,0.373 -0.238,0.75 -0.329,1.131c-0.308,1.29 -1.009,2.297 -2.082,3.076c-0.479,0.347 -1.02,0.663 -1.327,1.379c1.894,0.897 3.824,1.688 5.35,3.275c0.998,-1.821 2.269,-3.191 3.642,-4.476c1.29,-1.209 2.759,-2.132 4.408,-2.774c1.33,-0.518 2.564,-0.384 3.704,0.492c0.241,0.185 0.479,0.374 0.718,0.561m31.94,273.537c0.26,-1.37 0.515,-2.74 0.785,-4.108c0.859,-4.359 1.187,-8.732 0.468,-13.15c-0.36,-2.213 -0.978,-4.341 -1.942,-6.365c-0.422,-0.886 -0.448,-0.886 -1.405,-0.591c-1.403,0.433 -2.6,1.211 -3.697,2.174c-0.484,0.425 -0.516,0.814 -0.201,1.361c0.5,0.869 0.92,1.784 1.389,2.672c1.283,2.435 1.964,5.025 2.106,7.773c0.084,1.614 0.257,3.225 0.745,4.776c0.568,1.815 1.428,3.537 1.752,5.458m89.615,17.293c0.311,-1.381 -0.203,-2.491 -0.789,-3.558c-1.07,-1.946 -2.588,-3.516 -4.333,-4.857c-5.128,-3.939 -10.944,-6.298 -17.286,-7.395c-4.338,-0.751 -8.703,-0.639 -13.063,-0.246c-1.629,0.147 -3.273,0.254 -4.865,0.709c2.513,0.344 5.021,0.619 7.528,0.903c5.57,0.632 11.054,1.663 16.33,3.619c6.19,2.294 11.809,5.45 16.1,10.622c0.05,0.06 0.146,0.081 0.378,0.203m-135.975,-127.846c0.142,-0.759 -0.005,-1.485 -0.031,-2.209c-0.01,-0.293 -0.219,-0.464 -0.421,-0.632c-0.95,-0.791 -1.665,-1.788 -2.416,-2.752c-3.015,-3.87 -5.449,-8.126 -8.112,-12.23c-3.721,-5.737 -6.824,-11.8 -9.324,-18.159c-1.982,-5.039 -3.827,-10.132 -5.733,-15.201c-0.107,-0.286 -0.198,-0.58 -0.33,-0.855c-0.075,-0.154 -0.209,-0.238 -0.427,-0.186c-0.901,0.218 -1.27,0.825 -0.972,1.69c0.854,2.477 1.734,4.945 2.579,7.426c2.864,8.409 6.162,16.626 10.626,24.339c3.78,6.53 7.989,12.732 13.483,17.972c0.304,0.29 0.528,0.7 1.078,0.797m44.805,116.005c-0.152,0.136 -0.274,0.205 -0.338,0.308c-1.426,2.277 -3.432,3.942 -5.678,5.342c-1.742,1.086 -3.51,2.13 -5.267,3.192c-2.469,1.493 -2.475,1.501 -2.666,4.42c-0.021,0.305 -0.049,0.613 -0.026,0.916c0.443,5.736 2.349,10.893 6.1,15.309c0.171,0.201 0.285,0.549 0.764,0.452c-0.608,-2.462 -0.677,-4.932 -0.242,-7.407c0.5,-2.844 1.238,-5.626 2.154,-8.366c1.413,-4.227 3.228,-8.3 4.728,-12.494c0.186,-0.519 0.484,-1.017 0.471,-1.672m-26.252,87.353l0.281,-0.056c0.276,-3.67 0.921,-7.286 1.671,-10.877c1.127,-5.389 2.353,-10.758 3.564,-16.131c0.429,-1.905 0.52,-3.791 0.105,-5.712c-0.396,-1.835 -0.687,-3.694 -1.057,-5.536c-1.279,-6.382 -2.756,-12.725 -3.664,-19.18c-0.565,-4.025 -1.285,-8.026 -2.187,-11.991c-0.132,-0.582 -0.236,-0.915 -1.007,-0.784c-0.831,0.143 -0.709,0.583 -0.615,1.118c0.031,0.171 0.054,0.344 0.083,0.517c1.789,10.998 3.514,22.006 5.084,33.038c0.702,4.943 0.842,9.835 -0.459,14.701c-1.399,5.231 -2.133,10.607 -3.452,15.856c-0.03,0.117 -0.013,0.264 0.028,0.381c0.537,1.553 1.082,3.104 1.625,4.656m79.35,-89.608c1.89,0.506 3.713,1.07 5.482,1.802c4.068,1.686 7.738,4.036 11.262,6.644c2.494,1.846 4.961,3.733 7.669,5.267c2.06,1.168 4.189,2.183 6.541,2.618c1.97,0.363 3.922,0.391 5.747,-0.614c0.769,-0.423 0.797,-0.601 0.248,-1.3c-1.111,-1.416 -2.395,-2.665 -3.787,-3.802c-3.492,-2.853 -7.434,-4.901 -11.636,-6.467c-6.732,-2.508 -13.756,-3.623 -20.867,-4.301c-0.199,-0.018 -0.418,-0.081 -0.659,0.153m-43.576,-205.65c-1.115,-0.096 -2.05,-0.25 -2.986,-0.245c-6.727,0.034 -12.658,2.29 -17.879,6.486c-4.264,3.426 -7.141,7.862 -9.278,12.825c-1.285,2.982 -2.36,6.026 -2.396,9.331c-0.003,0.277 -0.168,0.613 0.187,0.827c0.428,-0.19 0.61,-0.609 0.871,-0.945c1.499,-1.934 2.977,-3.884 4.476,-5.818c2.87,-3.702 5.882,-7.265 9.433,-10.353c4.939,-4.296 10.363,-7.874 16.051,-11.078c0.472,-0.266 1.004,-0.46 1.521,-1.03m-29.221,28.07c0.315,0.097 0.569,-0.106 0.841,-0.205c2.881,-1.048 5.595,-2.46 8.326,-3.832c7.402,-3.717 13.739,-8.788 19.1,-15.09c0.936,-1.099 1.81,-2.241 2.387,-3.584c0.556,-1.294 0.684,-2.612 0.254,-3.961c-0.329,-1.029 -0.527,-1.103 -1.47,-0.589c-2.382,1.296 -4.686,2.721 -6.919,4.255c-5.454,3.746 -10.582,7.873 -14.908,12.926c-2.646,3.09 -4.989,6.411 -7.482,9.616c-0.104,0.132 -0.24,0.258 -0.129,0.464m93.821,166.945c6.566,-2.278 12.908,-4.708 19.422,-6.616c6.549,-1.918 13.072,-3.932 19.772,-5.374c-0.079,-0.209 -0.112,-0.338 -0.173,-0.452c-0.104,-0.191 -0.217,-0.379 -0.341,-0.557c-1.902,-2.734 -4.636,-4.023 -7.834,-4.471c-4.413,-0.62 -8.602,0.281 -12.658,1.967c-7.535,3.131 -13.313,8.387 -18.003,14.947c-0.066,0.092 -0.077,0.223 -0.185,0.556m-31.534,59.896c0.729,-2.216 0.404,-4.349 -0.668,-6.398c-1.391,-2.658 -3.549,-4.507 -6.24,-5.764c-2.82,-1.316 -5.833,-1.817 -8.902,-1.99c-4.628,-0.261 -9.259,-0.137 -13.885,0.132c-3.705,0.215 -7.397,0.636 -11.119,0.562c-2.008,-0.04 -4.007,-0.101 -6.003,-0.693c-0.029,0.817 0.349,1.214 0.866,1.499c0.764,0.421 1.53,0.845 2.318,1.218c4.388,2.075 9.078,2.745 13.867,3.028c5.846,0.347 11.684,0.759 17.382,2.298c4.318,1.166 8.321,2.906 11.735,5.857c0.163,0.141 0.316,0.309 0.649,0.251m32.181,-59.181c0.477,0.293 1.008,0.31 1.512,0.416c3.692,0.772 7.449,0.974 11.195,1.225c4.673,0.313 9.342,0.265 13.963,-0.65c2.841,-0.563 5.607,-1.345 8.107,-2.87c1.433,-0.875 2.695,-1.94 3.6,-3.376c1.107,-1.757 1.366,-3.648 0.898,-5.661c-0.128,-0.551 -0.307,-0.833 -0.964,-0.704c-1.283,0.254 -2.584,0.417 -3.854,0.751c-11.234,2.96 -22.391,6.169 -33.271,10.276c-0.395,0.149 -0.861,0.178 -1.186,0.593m-58.427,23.945c1,-0.249 1.992,-0.534 3,-0.741c6.788,-1.391 13.489,-0.874 20.087,1.084c6.669,1.979 12.754,5.234 18.651,8.857c5.352,3.289 9.73,7.532 12.677,13.15c0.051,0.097 0.182,0.154 0.297,0.246c0.576,-0.552 0.852,-1.235 1.053,-1.954c0.677,-2.427 0.22,-4.776 -0.579,-7.072c-1.833,-5.263 -5.341,-9.149 -10.028,-12.048c-3.777,-2.337 -7.971,-3.525 -12.257,-4.45c-4.16,-0.897 -8.382,-1.282 -12.629,-1.325c-4.514,-0.046 -8.995,0.294 -13.386,1.43c-2.414,0.624 -4.731,1.498 -6.886,2.823m28.244,-17.049c0.405,0.016 0.666,-0.222 0.951,-0.385c1.747,-1.004 3.401,-2.145 4.988,-3.386c6.403,-5.008 12.275,-10.536 16.984,-17.215c3.065,-4.347 5.182,-9.103 6.248,-14.318c0.531,-2.6 0.606,-5.21 -0.016,-7.807c-0.361,-1.507 -0.941,-2.923 -2.087,-4.02c-0.717,-0.687 -1.513,-1.262 -2.671,-1.311c0.278,1.834 0.093,3.51 -0.383,5.158c-1.422,4.935 -3.432,9.629 -5.915,14.117c-3.432,6.208 -7.462,12.035 -11.499,17.855c-2.244,3.235 -4.371,6.544 -6.135,10.071c-0.189,0.377 -0.483,0.723 -0.465,1.241m-68.802,-163.846c4.233,-1.851 8.536,-3.509 12.957,-4.859c4.446,-1.359 8.816,-2.983 13.602,-4.103c-0.603,0.648 -1.15,0.827 -1.668,1.049c-2.452,1.05 -4.964,1.937 -7.506,2.742c-4.918,1.556 -9.781,3.262 -14.515,5.321c-2.372,1.032 -4.64,2.249 -6.685,3.849c-0.241,0.189 -0.647,0.31 -0.533,0.783c4.73,0.292 9.441,0.383 14.132,-0.35c6.9,-1.08 13.231,-3.532 18.8,-7.813c2.272,-1.747 4.235,-3.784 5.741,-6.235c0.528,-0.858 0.989,-1.755 1.192,-2.754c0.232,-1.144 -0.188,-1.743 -1.358,-1.913c-0.736,-0.108 -1.48,-0.117 -2.224,-0.065c-5.273,0.375 -10.355,1.578 -15.261,3.528c-6.265,2.489 -11.406,6.731 -16.674,10.82m45.334,172.759c0.59,-0.204 0.816,-0.652 1.117,-0.998c3.698,-4.263 7.027,-8.809 10.265,-13.423c2.009,-2.861 3.843,-5.833 5.476,-8.929c2.277,-4.315 3.645,-8.872 3.873,-13.758c0.123,-2.604 -0.146,-5.149 -1.086,-7.596c-1.001,-2.606 -2.689,-4.584 -5.321,-5.646c-0.785,-0.318 -1.609,-0.579 -2.529,-0.444c0.2,0.89 0.399,1.643 0.537,2.407c0.512,2.846 0.127,5.667 -0.343,8.47c-0.847,5.054 -2.284,9.955 -4.014,14.772c-2.169,6.039 -4.522,12.015 -6.233,18.211c-0.625,2.264 -1.285,4.522 -1.742,6.934m-23.826,32.402c0.558,0.874 1.207,1.614 1.919,2.302c3.021,2.922 6.212,5.652 9.709,7.983c5.274,3.514 10.923,6.239 17.169,7.55c2.927,0.614 5.889,0.82 8.84,0.096c2.78,-0.682 5.067,-2.105 6.622,-4.57c0.795,-1.262 0.794,-1.295 -0.328,-2.216c-2.074,-1.701 -4.329,-3.103 -6.837,-4.076c-3.851,-1.494 -7.845,-2.387 -11.935,-2.916c-4.556,-0.59 -9.154,-0.664 -13.715,-1.174c-3.621,-0.403 -7.139,-1.24 -10.466,-2.78c-0.269,-0.124 -0.516,-0.338 -0.978,-0.199m-27.736,-205.525c0.41,-0.43 0.419,-0.972 0.569,-1.463c1.344,-4.39 2.491,-8.827 3.174,-13.377c0.492,-3.284 1.035,-6.56 1.573,-9.837c0.518,-3.147 1.144,-6.28 1.345,-9.47c0.157,-2.492 0.197,-4.99 -0.434,-7.428c-0.69,-2.67 -1.959,-3.093 -4.121,-1.428c-2.398,1.848 -4.253,4.166 -5.532,6.892c-3.386,7.222 -4.524,14.841 -3.669,22.742c0.495,4.572 1.776,8.991 3.001,13.411c0.339,1.22 0.864,2.384 1.519,3.475c0.225,0.376 0.409,0.831 0.968,1.012c0.059,-0.261 0.114,-0.423 0.13,-0.589c0.557,-5.615 0.872,-11.235 0.679,-16.886c-0.21,-6.16 -0.136,-12.322 0.366,-18.471c0.125,-1.525 0.231,-3.055 0.667,-4.533c0.174,-0.588 0.256,-1.239 0.968,-1.844c-0.096,1.107 -0.15,1.976 -0.248,2.84c-0.728,6.398 -0.754,12.821 -0.704,19.249c0.025,3.276 0.199,6.551 0.096,9.83c-0.062,1.961 -0.263,3.911 -0.347,5.875m50.245,174.168c0.326,-0.305 0.343,-0.714 0.425,-1.09c1.016,-4.658 2.342,-9.229 3.864,-13.747c1.73,-5.134 3.783,-10.153 5.441,-15.312c1.65,-5.132 2.925,-10.344 3.332,-15.739c0.119,-1.581 0.014,-3.145 -0.385,-4.682c-0.366,-1.415 -0.457,-1.483 -1.898,-1.07c-2.793,0.8 -5.005,2.448 -6.716,4.771c-2.102,2.854 -3.421,6.078 -4.388,9.461c-1.497,5.236 -1.592,10.608 -1.529,15.994c0.084,7.179 1.23,14.266 1.854,21.414m-1.873,7.722c0.863,0.125 1.736,0.211 2.59,0.384c4.681,0.945 9.014,2.75 13.047,5.299c2.998,1.895 5.817,4.04 8.673,6.133c3.81,2.79 7.585,5.631 11.667,8.025c2.999,1.759 6.169,3.092 9.591,3.787c1.735,0.351 3.474,0.454 5.193,-0.064c1.543,-0.464 1.626,-0.689 0.852,-2.077c-2.275,-4.076 -5.315,-7.481 -9.117,-10.178c-6.061,-4.297 -12.587,-7.737 -19.592,-10.209c-6.327,-2.232 -12.856,-2.9 -19.521,-2.04c-1.156,0.15 -2.32,0.305 -3.383,0.94m25.635,-18.549c0.417,-0.127 0.474,-0.347 0.57,-0.536c1.931,-3.834 4.254,-7.43 6.702,-10.946c2.746,-3.946 5.441,-7.924 8.006,-11.992c3.629,-5.755 6.625,-11.803 8.705,-18.294c0.524,-1.633 0.914,-3.282 0.821,-5.013c-0.051,-0.949 -0.148,-1.051 -1.084,-1.027c-1.654,0.043 -3.174,0.572 -4.617,1.334c-2.663,1.409 -4.916,3.332 -6.877,5.598c-4.576,5.288 -7.149,11.546 -8.732,18.264c-1.374,5.837 -2.132,11.777 -2.842,17.723c-0.192,1.604 -0.425,3.201 -0.652,4.889m-62.554,61.789c0.041,-0.011 0.107,-0.008 0.12,-0.033c0.081,-0.152 0.168,-0.303 0.22,-0.465c2.535,-7.921 6.284,-15.238 10.965,-22.093c0.123,-0.18 0.272,-0.348 0.366,-0.543c0.264,-0.552 0.33,-1.072 -0.238,-1.516c-0.307,-0.242 -0.582,-0.531 -0.844,-0.823c-4.666,-5.205 -7.174,-11.189 -6.592,-18.288c0.013,-0.162 0.092,-0.341 -0.077,-0.489c-0.072,-0.007 -0.171,-0.047 -0.23,-0.015c-0.382,0.211 -0.761,0.428 -1.129,0.662c-2.368,1.502 -4.854,2.768 -7.494,3.722c-0.739,0.268 -1.474,0.556 -2.231,0.757c-0.564,0.148 -0.687,0.433 -0.541,0.949c0.141,0.504 0.251,1.017 0.368,1.528c1.216,5.278 1.9,10.655 2.941,15.966c1.326,6.768 2.96,13.472 4.188,20.26c0.028,0.158 0.005,0.347 0.208,0.421m-78.364,-290.909c-1.037,-0.248 -1.988,-0.176 -2.941,-0.015c-4.989,0.845 -8.556,4.648 -9.054,9.669c-0.07,0.695 -0.121,1.395 -0.133,2.094c-0.062,3.937 -0.152,7.878 -0.902,11.754c-0.595,3.072 -0.086,5.895 1.445,8.588c1.562,2.749 3.499,5.227 5.477,7.678c1.044,1.294 2.133,2.525 3.438,3.584c2.617,2.124 5.836,2.86 8.845,4.141c0.136,-0.451 -0.136,-0.664 -0.254,-0.923c-1.596,-3.472 -3.789,-6.589 -5.808,-9.81c-1.743,-2.779 -3.489,-5.559 -4.651,-8.647c-0.615,-1.635 -1.163,-3.294 -1.864,-4.897c-0.143,-0.326 -0.456,-0.667 -0.118,-1.24c2.218,4.31 4.805,8.248 8.184,11.637c-0.885,-1.55 -1.129,-3.275 -1.528,-4.956c-0.151,-0.635 -0.328,-1.279 -0.607,-1.865c-0.864,-1.819 -1.03,-3.665 -0.5,-5.613c0.468,-1.724 0.41,-3.461 -0.121,-5.176c-0.35,-1.127 -0.724,-2.247 -1.029,-3.385c-1.087,-4.046 -0.587,-7.878 1.606,-11.472c0.198,-0.325 0.489,-0.619 0.515,-1.146m52.655,248.054c-0.465,1.441 -1.19,2.742 -1.16,4.297c0.051,2.752 -0.006,5.507 0.024,8.261c0.061,5.47 0.386,10.925 1.419,16.305c2.408,12.54 6.33,24.613 11.317,36.354c3.084,7.262 4.875,14.853 5.538,22.702c0.587,6.937 0.298,13.891 0.292,20.838c-0.002,3.584 -0.086,7.165 0.052,10.75c0.185,4.804 0.289,9.611 0.413,14.416c0.101,3.899 -0.252,7.775 -0.594,11.653c-0.172,1.959 -0.26,3.926 -0.353,5.891c-0.049,1.035 0.04,1.101 1.1,1.09c0.655,-0.007 1.312,-0.084 1.964,-0.05c0.646,0.036 0.856,-0.208 0.808,-0.836c-0.201,-2.661 -0.123,-5.329 -0.163,-7.994c-0.137,-8.92 0.056,-17.834 0.348,-26.746c0.28,-8.525 0.284,-17.042 -0.487,-25.547c-0.515,-5.677 -1.495,-11.252 -3.387,-16.654c-1.634,-4.662 -3.304,-9.307 -5.19,-13.874c-3.516,-8.513 -6.106,-17.306 -7.681,-26.379c-0.882,-5.082 -1.156,-10.245 -1.735,-15.369c-0.673,-5.948 -1.306,-11.902 -2.12,-17.834c-0.057,-0.42 -0.013,-0.874 -0.405,-1.274m38.363,16.519c0.789,-1.462 1.422,-2.654 2.071,-3.837c1.961,-3.574 4.376,-6.849 6.724,-10.167c2.917,-4.12 5.384,-8.488 7.309,-13.152c2.183,-5.287 3.851,-10.7 3.661,-16.515c-0.1,-3.036 -0.555,-6.01 -1.827,-8.801c-1.385,-3.04 -3.596,-5.244 -6.754,-6.416c-1.217,-0.452 -2.478,-0.71 -3.744,-0.363c-0.083,0.287 0.028,0.43 0.116,0.578c1.336,2.262 1.988,4.743 2.335,7.319c0.511,3.795 0.467,7.572 -0.167,11.361c-0.833,4.966 -1.775,9.893 -3.696,14.582c-0.844,2.061 -1.65,4.14 -2.457,6.217c-1.68,4.327 -3.114,8.724 -3.826,13.332c-0.291,1.882 -0.174,3.73 0.255,5.862m-72.465,-224.881c0.161,-0.242 0.241,-0.307 0.246,-0.377c0.192,-2.687 0.82,-5.26 1.973,-7.7c0.155,-0.326 0.228,-0.664 0.125,-1.017c-0.224,-0.77 -0.187,-1.562 -0.186,-2.345c0.003,-1.377 -0.209,-2.721 -0.776,-3.959c-1.256,-2.74 -1.874,-5.62 -2.124,-8.604c-0.179,-2.13 -1.105,-3.928 -2.569,-5.467c-1.088,-1.142 -2.334,-2.109 -3.482,-3.183c-2.974,-2.783 -6.994,-3.929 -10.101,-6.516c-0.855,-0.711 -1.229,-0.548 -1.707,0.48c-1.507,3.239 -2.316,6.585 -1.347,10.165c0.424,1.564 0.999,3.073 1.587,4.579c0.565,1.45 0.854,2.934 0.57,4.491c-0.109,0.601 -0.232,1.2 -0.362,1.798c-0.285,1.323 -0.181,2.59 0.395,3.835c0.591,1.276 0.915,2.63 1.098,4.03c0.187,1.439 0.604,2.815 1.442,4.036c0.556,0.812 1.358,1.5 1.316,2.629c-0.006,0.17 0.24,0.35 0.37,0.525c2.023,2.694 4.099,5.338 6.998,7.18c0.182,0.116 0.31,0.314 0.492,0.43c0.181,0.118 0.287,0.492 0.664,0.196c-1.073,-2.042 -2.137,-4.095 -3.226,-6.134c-1.266,-2.373 -2.142,-4.871 -2.55,-7.535c-0.495,-3.237 -0.962,-6.48 -1.657,-9.683c-0.108,-0.495 -0.275,-1.016 -0.111,-1.545c0.209,0.045 0.294,0.206 0.369,0.356c1.257,2.486 3.093,4.561 4.935,6.585c1.645,1.807 2.979,3.74 3.959,5.966c1.019,2.316 2.312,4.491 3.659,6.784m50.114,275.437c0.106,-0.445 0.227,-0.891 0.32,-1.343c0.861,-4.193 1.688,-8.395 2.583,-12.581c0.856,-4.014 1.081,-8.032 0.529,-12.111c-1.236,-9.134 -2.558,-18.255 -3.951,-27.366c-0.416,-2.72 -0.863,-5.436 -1.237,-8.162c-0.095,-0.686 -0.355,-0.93 -1.007,-0.832c-0.172,0.027 -0.349,0.025 -0.524,0.029c-3.267,0.061 -6.306,-0.801 -9.153,-2.348c-0.753,-0.409 -1.402,-1.008 -2.155,-1.561c-0.177,0.489 -0.025,0.908 0.025,1.32c0.907,7.413 1.911,14.815 2.706,22.241c0.876,8.191 2.351,16.249 4.77,24.127c0.095,0.308 0.101,0.667 0.523,0.943c0.314,-1.15 0.338,-2.351 1.159,-3.537c0.18,2.76 0.327,5.272 0.733,7.756c0.027,0.166 0.01,0.365 -0.059,0.517c-0.327,0.715 -0.068,1.367 0.19,2.019c1.38,3.494 2.762,6.988 4.15,10.48c0.06,0.151 0.098,0.344 0.398,0.409m-14.218,-305.817c0.047,0.021 0.095,0.043 0.143,0.064c0.667,-1.007 1.327,-2.019 2.003,-3.02c2.308,-3.417 5.483,-5.566 9.494,-6.51c1.704,-0.402 3.423,-0.708 5.164,-0.866c0.687,-0.062 1.244,-0.297 1.762,-0.752c1.831,-1.614 3.298,-3.474 4.194,-5.773c0.608,-1.557 1.031,-3.155 1.31,-4.794c0.824,-4.845 0.203,-9.524 -1.961,-13.914c-1.124,-2.279 -2.229,-4.545 -2.987,-6.971c-0.607,-1.939 -1.729,-3.504 -3.326,-4.759c-1.718,-1.348 -3.488,-2.637 -5.071,-4.149c-0.808,-0.774 -1.693,-0.775 -2.67,-0.411c-2.803,1.047 -5.213,2.633 -7.063,5.024c-0.301,0.388 -0.445,0.68 -0.139,1.149c0.724,1.111 1.122,2.364 1.427,3.644c0.548,2.3 1.28,4.534 2.2,6.716c0.754,1.789 1.188,3.659 0.978,5.624c-0.163,1.528 -0.047,3.054 -0.017,4.583c0.064,3.266 -0.217,6.476 -1.92,9.38c-0.956,1.629 -1.608,3.373 -2.141,5.178c-0.189,0.638 -0.335,1.253 -0.311,1.919c0.067,1.841 -0.104,3.666 -0.459,5.474c-0.207,1.054 -0.407,2.109 -0.61,3.164m-3.774,149.175c0.193,-0.416 0.343,-0.715 0.471,-1.022c0.455,-1.09 0.895,-2.195 1.573,-3.165c0.715,-1.025 1.107,-2.055 1.09,-3.369c-0.018,-1.424 0.396,-2.85 0.576,-4.281c0.737,-5.86 1.252,-11.738 1.648,-17.632c0.532,-7.928 0.234,-15.816 -0.811,-23.682c-1.019,-7.666 -2.424,-15.28 -3.009,-23.005c-0.428,-5.667 -0.921,-11.332 -0.983,-17.015c-0.089,-8.134 0.347,-16.26 0.662,-24.385c0.093,-2.403 0.377,-4.791 0.77,-7.17c0.612,-3.703 2.362,-6.933 4.185,-10.114c0.955,-1.668 1.611,-3.364 1.832,-5.271c0.181,-1.569 0.508,-3.108 1.784,-4.254c0.76,-0.683 1.624,-1.188 2.552,-1.546c4.04,-1.559 7.621,-3.876 11.064,-6.463c3.039,-2.284 6.001,-4.681 9.299,-6.606c0.671,-0.392 1.391,-0.726 1.979,-1.302c-0.462,-0.242 -0.796,0.065 -1.146,0.182c-2.66,0.892 -5.367,1.561 -8.163,1.865c-2.693,0.293 -5.388,0.558 -8.058,1.05c-6.558,1.206 -11.151,4.941 -14.071,10.855c-0.162,0.326 -0.225,0.727 -0.58,0.947c-0.319,-0.296 -0.173,-0.611 -0.146,-0.894c0.205,-2.089 0.389,-4.181 0.645,-6.264c0.448,-3.644 0.21,-7.238 -0.677,-10.794c-0.509,-2.039 -0.875,-4.103 -1.109,-6.19c-0.087,-0.775 -0.158,-1.551 -0.237,-2.326c-0.302,0.562 -0.45,1.14 -0.56,1.726c-0.543,2.887 -1.335,5.695 -2.515,8.396c-0.629,1.441 -1.166,2.923 -1.708,4.4c-1.151,3.138 -1.073,6.249 0.249,9.329c0.139,0.326 0.452,0.656 0.214,1.038c-1.366,-0.752 -2.685,-1.529 -4.047,-2.22c-2.691,-1.365 -5.604,-1.937 -8.572,-2.287c-2.779,-0.327 -5.572,-0.588 -8.298,-1.236c-3.962,-0.941 -7.784,-2.325 -11.563,-3.828c-0.249,-0.099 -0.485,-0.267 -0.902,-0.108c0.994,0.858 1.864,1.651 2.778,2.39c2.745,2.219 5.733,4.006 9.162,4.958c2.84,0.789 5.768,0.994 8.689,1.225c1.786,0.142 3.611,0.084 5.336,0.596c3.764,1.117 4.969,2.973 4.711,6.077c-0.022,0.26 -0.021,0.524 -0.024,0.786c-0.015,1.132 0.292,2.157 1.013,3.047c0.33,0.407 0.635,0.836 0.974,1.236c1.559,1.835 2.577,3.949 3.186,6.261c1.01,3.83 1.296,7.754 1.309,11.691c0.014,3.726 -0.613,7.408 -1.03,11.099c-1.278,11.313 -1.159,22.61 0.294,33.888c0.983,7.628 2.049,15.247 3.203,22.851c1.055,6.952 1.435,13.901 0.663,20.909c-0.628,5.694 -1.088,11.406 -1.746,17.096c-0.431,3.726 -0.675,7.498 -1.937,11.087c-0.139,0.395 -0.221,0.84 -0.019,1.444m4.576,-161.87c0.532,-1.259 0.818,-2.557 1.22,-3.82c0.65,-2.047 1.007,-4.171 1.078,-6.314c0.078,-2.32 0.199,-4.636 0.545,-6.926c0.296,-1.957 0.132,-3.827 -0.529,-5.674c-0.797,-2.224 -1.481,-4.48 -2.029,-6.778c-0.091,-0.382 -0.22,-0.756 -0.344,-1.129c-0.65,-1.958 -1.879,-3.44 -3.705,-4.4c-0.927,-0.488 -1.872,-0.949 -2.837,-1.355c-1.578,-0.664 -2.828,-1.678 -3.805,-3.095c-1.091,-1.582 -2.236,-1.915 -4.092,-1.383c-0.717,0.205 -1.356,0.578 -2.03,0.876c-2.703,1.194 -5.177,2.733 -7.267,4.841c-1.545,1.559 -2.675,3.376 -2.951,5.582c-0.528,4.23 -1.629,8.301 -3.034,12.316c-0.856,2.449 -0.812,4.988 -0.114,7.497c0.339,1.221 0.698,2.437 1.027,3.66c1.279,4.745 3.838,8.688 7.5,11.927c2.14,1.893 4.409,3.567 7.265,4.284c1.319,0.332 2.505,1.017 3.607,1.826c0.374,0.275 0.763,0.53 1.167,0.809c0.199,-0.493 -0.082,-0.838 -0.175,-1.2c-0.604,-2.365 -0.779,-4.718 -0.175,-7.127c0.491,-1.961 1.177,-3.847 1.998,-5.68c2.602,-5.813 4.141,-11.866 4.321,-18.252c0.051,-1.796 0.469,-3.55 0.775,-5.314c0.031,-0.177 0.093,-0.335 0.448,-0.212c-1.075,8.469 0.068,16.787 2.136,25.041m56.841,138.096c-0.364,0.485 -0.68,1.017 -1.101,1.445c-1.596,1.62 -3.212,3.219 -4.848,4.798c-0.946,0.913 -2.009,1.685 -3.144,2.356c-1.327,0.785 -2.51,1.739 -3.499,2.933c-1.692,2.045 -2.905,4.361 -3.838,6.826c-0.818,2.158 -0.88,4.263 0.662,6.183c0.081,0.102 0.139,0.221 0.207,0.335c1.527,2.587 2.562,5.313 2.809,8.36c0.12,1.486 0.803,2.954 2.241,3.641c2.533,1.21 4.656,2.901 6.598,4.889c3.12,3.196 7.057,4.209 11.376,4.062c2.311,-0.078 4.451,-0.883 6.553,-1.759c3.198,-1.333 6.464,-2.426 9.89,-3.001c0.387,-0.064 0.768,-0.17 1.147,-0.274c2.412,-0.67 4.178,-2.106 5.272,-4.378c0.804,-1.67 1.37,-3.41 1.642,-5.236c0.59,-3.964 0.787,-7.92 -0.446,-11.818c-0.916,-2.891 -2.09,-5.656 -3.854,-8.148c-0.631,-0.892 -1.205,-1.825 -1.791,-2.748c-0.222,-0.35 -0.515,-0.685 -0.427,-1.43c1.611,2.498 3.586,4.416 5.223,6.614c0.233,0.314 0.423,0.663 0.611,1.009c1.2,2.208 1.86,4.611 2.434,7.031c0.778,3.28 0.629,6.605 0.24,9.917c-0.096,0.815 0.159,1.244 0.816,1.695c2.361,1.627 5.072,2.067 7.809,2.434c2.488,0.334 4.872,-0.043 7.169,-1.068c3.753,-1.676 6.92,-4.087 9.34,-7.423c1.747,-2.408 3.296,-4.948 4.671,-7.588c1.204,-2.314 1.989,-4.765 2.061,-7.392c0.097,-3.543 -0.047,-7.083 -0.413,-10.607c-0.357,-3.44 -2.16,-5.934 -5.233,-7.515c-0.817,-0.421 -1.655,-0.793 -2.541,-1.048c-3.084,-0.889 -6.235,-1.331 -9.441,-1.425c-3.714,-0.109 -7.436,-0.109 -11.128,-0.62c-0.645,-0.089 -1.303,-0.139 -1.854,-0.534c1.188,0.008 2.37,0.065 3.547,0.016c4.102,-0.169 8.188,-0.695 12.308,-0.529c5.118,0.206 10.03,0.987 13.891,4.805c0.308,0.306 0.569,0.315 0.919,0.098c0.795,-0.49 1.45,-1.125 2.009,-1.863c1.24,-1.639 2.39,-3.343 3.472,-5.091c0.436,-0.707 0.769,-1.467 1.054,-2.252c0.833,-2.291 0.766,-4.643 0.461,-6.998c-0.327,-2.529 -0.377,-5.05 -0.111,-7.587c0.195,-1.869 0.317,-3.743 0.327,-5.628c0.023,-4.208 -1.822,-7.201 -5.668,-8.921c-0.915,-0.41 -1.864,-0.754 -2.82,-1.059c-2.568,-0.82 -4.92,-2.039 -7.064,-3.669c-1.01,-0.767 -2.026,-1.525 -3.05,-2.275c-0.988,-0.725 -2.024,-1.378 -3.158,-1.857c-2.17,-0.915 -4.4,-1.146 -6.662,-0.44c-2.108,0.658 -3.963,1.806 -5.694,3.165c-4.37,3.433 -7.425,7.849 -9.674,12.872c-0.823,1.839 -1.416,3.762 -2.039,5.673c-0.134,0.409 -0.219,0.847 -0.733,1.256c0.109,-0.519 0.163,-0.861 0.252,-1.193c0.513,-1.901 1.165,-3.755 1.87,-5.593c2.67,-6.972 7.01,-12.552 13.543,-16.315c0.3,-0.173 0.623,-0.314 0.717,-0.709c0.237,-0.99 0.421,-2.002 0.067,-2.975c-0.359,-0.982 -0.818,-1.934 -1.307,-2.86c-0.958,-1.814 -2.414,-3.093 -4.366,-3.756c-0.784,-0.266 -1.586,-0.516 -2.401,-0.65c-2.056,-0.335 -3.82,-1.228 -5.318,-2.648c-3.217,-3.047 -7.078,-4.709 -11.39,-5.543c-5.709,-1.105 -11.138,-0.618 -16.191,2.471c-0.447,0.274 -0.916,0.511 -1.369,0.776c-1.378,0.806 -2.861,1.3 -4.441,1.507c-0.913,0.119 -1.807,0.309 -2.693,0.558c-1.477,0.415 -2.752,1.178 -3.711,2.355c-3.072,3.767 -4.373,8.03 -3.292,12.853c0.439,1.956 1.334,3.665 3.104,4.837c1.205,0.799 2.222,1.845 3.049,3.046c2.61,3.794 4.884,7.773 6.569,12.07c0.068,0.175 0.351,0.419 0.027,0.651c-0.415,-0.241 -0.647,-0.612 -0.817,-1.013c-1.446,-3.412 -3.685,-6.343 -5.706,-9.404c-1.376,-2.083 -3.186,-3.717 -5.379,-4.901c-3.304,-1.785 -6.7,-2.363 -10.325,-0.901c-3.591,1.448 -7.315,2.335 -11.225,2.373c-4.019,0.038 -7.306,1.623 -9.622,4.971c-2.913,4.21 -4.765,8.87 -5.275,13.959c-0.38,3.782 -0.197,7.604 -0.078,11.402c0.119,3.807 2.039,6.701 5.17,8.809c0.616,0.415 1.252,0.801 1.889,1.184c1.735,1.044 3.098,2.446 3.894,4.313c1.255,2.943 3.451,5.009 6.053,6.718c1.6,1.051 3.365,1.672 5.262,1.884c1.353,0.15 2.679,0.405 3.982,0.788c3.292,0.967 6.541,0.971 9.764,-0.343c1.828,-0.745 3.551,-1.688 5.285,-2.616c0.982,-0.525 1.82,-1.194 2.54,-2.036c0.996,-1.164 2.06,-2.265 3.199,-3.291c0.583,-0.526 1.21,-0.979 2.142,-1.01m-97.882,85.709l-0.028,-0.031c-1.492,2.53 -3.281,4.851 -5.08,7.159c-2.585,3.317 -5.411,6.419 -8.676,9.094c-0.305,0.25 -0.618,0.495 -0.81,0.848c-0.778,1.427 -1.821,2.672 -2.752,3.992c-1.596,2.262 -2.551,4.738 -2.891,7.491c-0.899,7.281 1.012,13.585 6.318,18.772c2.496,2.44 5.348,4.234 8.808,4.9c4.009,0.772 8.061,1.042 12.14,0.785c4.337,-0.273 8.605,-0.968 12.724,-2.371c4.909,-1.671 8.838,-4.553 11.082,-9.391c0.46,-0.99 0.942,-1.978 1.305,-3.005c1.394,-3.956 2.752,-7.926 4.108,-11.896c0.854,-2.501 0.94,-5.037 0.396,-7.629c-0.846,-4.036 -2.74,-7.53 -5.313,-10.7c-1.212,-1.494 -2.443,-2.974 -3.609,-4.504c-1.561,-2.047 -2.567,-4.359 -3.109,-6.877c-0.073,-0.336 -0.019,-0.735 -0.284,-0.994c-1.108,-1.081 -1.054,-2.458 -0.901,-3.804c0.066,-0.588 -0.058,-0.998 -0.373,-1.444c-0.987,-1.39 -1.945,-2.802 -2.933,-4.192c-0.245,-0.347 -0.419,-0.777 -0.894,-0.947c-0.739,0.783 -1.132,1.666 -1.233,2.78c-0.189,2.088 -0.516,4.17 -1.395,6.106c-0.191,0.423 -0.066,0.708 0.103,1.088c0.55,1.237 -0.134,3.738 -1.196,4.574c-0.713,0.562 -1.597,0.418 -2.024,-0.328c-0.586,-1.023 0.242,-4.061 1.277,-4.664c0.148,-0.086 0.321,-0.181 0.484,-0.183c0.676,-0.007 0.857,-0.466 1.014,-1.001c0.467,-1.598 0.856,-3.211 1.013,-4.872c0.027,-0.279 0.201,-0.589 -0.174,-0.929c-0.704,0.517 -1.55,0.828 -2.401,0.42c-0.552,-0.265 -0.877,-0.112 -1.276,0.218c-1.114,0.921 -2.315,1.728 -3.566,2.447c-0.735,0.423 -1.347,0.923 -1.823,1.64c-0.486,0.732 -1.122,1.349 -1.967,1.681c-0.605,0.237 -1.216,0.266 -1.702,-0.247c-0.482,-0.509 -0.449,-1.097 -0.164,-1.705c0.478,-1.019 1.241,-1.796 2.113,-2.468c1.271,-0.979 2.061,-0.744 2.688,0.754c0.023,0.056 0.136,0.073 0.272,0.143c1.446,-0.838 2.748,-1.938 4.091,-2.98c0.264,-0.205 0.375,-0.457 0.372,-0.791c-0.01,-1.074 0.595,-1.887 1.167,-2.72c0.207,-0.299 0.644,-0.493 0.53,-0.969c-1.701,-0.615 -1.7,-0.611 -3.407,-0.226c-2.304,0.52 -4.62,0.973 -6.996,0.975c-0.38,0 -0.612,0.117 -0.856,0.447c-0.825,1.115 -2.109,1.49 -3.49,1.108c-0.768,-0.211 -1.139,-0.674 -1.232,-1.504c-0.083,-0.742 0.215,-1.266 0.858,-1.622c1.2,-0.663 2.798,-0.479 3.726,0.541c0.345,0.38 0.68,0.492 1.133,0.465c0.437,-0.025 0.875,-0.029 1.309,-0.075c2.114,-0.227 4.2,-0.598 6.245,-1.181c-0.207,-0.852 -0.623,-1.292 -1.407,-1.465c-1.796,-0.399 -3.535,-0.984 -5.18,-1.824c-0.317,-0.161 -0.58,-0.207 -0.95,0.041c-1.627,1.086 -4.153,0.434 -5.079,-1.258c-0.619,-1.131 -0.067,-2.208 1.232,-2.404c1.646,-0.248 3.546,0.781 4.139,2.345c0.181,0.476 0.435,0.712 0.859,0.873c1.677,0.637 3.392,1.152 5.129,1.599c0.289,0.075 0.701,0.245 0.873,-0.005c0.58,-0.843 1.561,-0.797 2.442,-1.108c-1.649,-2.174 -3.421,-4.129 -4.525,-6.539c-0.148,-0.324 -0.391,-0.382 -0.718,-0.446c-1.46,-0.288 -3.034,-2.369 -2.977,-3.873c0.021,-0.56 0.207,-1.029 0.723,-1.31c0.556,-0.302 1.091,-0.227 1.608,0.112c1.204,0.788 2.093,2.882 1.667,4.272c-0.188,0.61 -0.016,0.993 0.278,1.438c1.529,2.302 3.297,4.412 5.156,6.45c0.117,0.129 0.234,0.265 0.376,0.364c0.386,0.274 0.627,0.166 0.671,-0.321c0.051,-0.564 -0.05,-1.186 0.312,-1.651c0.507,-0.65 0.504,-1.382 0.494,-2.12c-0.02,-1.617 -0.075,-3.234 -0.121,-4.85c-0.016,-0.534 -0.001,-1.048 -0.787,-1.108c-0.497,-0.038 -0.822,-0.47 -1.056,-0.908c-0.501,-0.94 -0.781,-1.952 -0.828,-3.011c-0.039,-0.848 0.442,-1.586 1.07,-1.788c0.72,-0.232 1.507,0.113 1.972,0.927c0.584,1.024 0.889,2.213 0.548,3.286c-0.41,1.289 -0.187,2.507 -0.112,3.754c0.068,1.134 0.213,2.262 0.192,3.401c-0.016,0.784 -0.043,1.554 0.837,2.007c0.341,0.176 0.418,0.638 0.511,1.03c0.073,0.306 0.016,0.666 0.28,1c0.681,-0.617 1.339,-1.123 2.243,-1.092c0.411,0.014 0.597,-0.321 0.824,-0.578c1.804,-2.038 3.263,-4.325 4.765,-6.582c0.166,-0.251 0.282,-0.466 0.117,-0.826c-0.714,-1.558 -0.348,-3.502 0.808,-4.708c0.316,-0.33 0.7,-0.519 1.129,-0.627c1.123,-0.288 1.902,0.286 1.979,1.443c0.098,1.478 -1.236,3.707 -2.604,4.234c-0.4,0.154 -0.667,0.348 -0.867,0.716c-1.34,2.469 -2.931,4.765 -4.771,6.887c-0.17,0.196 -0.423,0.419 -0.304,0.682c0.378,0.84 0.041,1.601 -0.312,2.357c0.203,0.039 0.293,0.085 0.361,0.064c2.547,-0.784 5.091,-1.581 7.641,-2.358c0.472,-0.144 0.714,-0.366 0.748,-0.904c0.1,-1.554 2.687,-3.036 3.909,-2.965c1.069,0.062 1.707,0.85 1.467,1.857c-0.346,1.451 -2.919,3.29 -4.454,2.604c-0.6,-0.269 -1.069,-0.177 -1.616,0.013c-2.724,0.948 -5.446,1.902 -8.237,2.642c-0.307,0.082 -0.703,0.08 -0.821,0.465c0.023,0.082 0.029,0.155 0.046,0.158c2.852,0.44 5.697,0.911 8.456,1.792c0.301,0.096 0.539,0.04 0.828,-0.181c1.289,-0.98 3.735,-0.4 4.521,1.031c0.294,0.535 0.344,1.086 0.031,1.623c-0.328,0.564 -0.868,0.698 -1.472,0.63c-1.139,-0.128 -2.21,-0.595 -2.814,-1.506c-0.561,-0.848 -1.3,-1.074 -2.132,-1.3c-0.506,-0.139 -1.012,-0.278 -1.524,-0.389c-1.851,-0.4 -3.704,-0.798 -5.802,-0.95c0.505,0.679 1.066,1.109 1.179,1.765c0.107,0.613 0.519,0.856 0.998,1.099c1.367,0.695 2.698,1.451 3.856,2.468c0.398,0.35 0.816,0.607 1.336,0.776c1.158,0.381 2.071,1.127 2.672,2.202c0.456,0.816 0.366,1.665 -0.174,2.184c-0.509,0.488 -1.262,0.544 -2.077,0.133c-0.71,-0.358 -1.308,-0.881 -1.891,-1.405c-0.966,-0.868 -1.091,-1.655 -0.375,-2.763c0.273,-0.424 0.16,-0.609 -0.149,-0.851c-1.179,-0.92 -2.496,-1.608 -3.826,-2.274c-0.254,-0.127 -0.493,-0.208 -0.722,-0.003c-0.488,0.436 -1.136,0.298 -1.847,0.456c0.744,1.106 1.427,2.111 2.099,3.123c0.199,0.299 0.431,0.356 0.78,0.278c0.558,-0.126 1.031,0.114 1.422,0.502c0.954,0.948 1.074,3.487 0.064,4.354c-0.614,0.526 -0.579,0.949 -0.349,1.562c0.666,1.771 1.463,3.465 2.744,4.888c1.785,1.983 3.636,3.909 5.35,5.951c4.187,4.989 6.625,10.568 5.533,17.263c-0.113,0.691 0.059,1.284 0.56,1.799c0.985,1.012 2.064,1.862 3.372,2.445c4.072,1.815 8.244,2.117 12.508,0.855c2.771,-0.821 5.492,-1.818 7.983,-3.298c4.435,-2.637 8.829,-5.343 13.22,-8.052c1.457,-0.899 2.774,-1.991 3.823,-3.364c2.283,-2.987 3.021,-6.166 1.172,-9.657c-0.102,-0.194 -0.183,-0.398 -0.283,-0.592c-0.952,-1.855 -1.497,-3.832 -1.646,-5.9c-0.2,-2.759 -1.068,-5.288 -2.358,-7.713c-1.066,-2.006 -2.042,-4.061 -3.069,-6.089c-0.435,-0.858 -0.848,-1.732 -1.361,-2.541c-1.143,-1.806 -2.742,-3.025 -4.835,-3.575c-1.684,-0.442 -3.385,-0.354 -5.085,-0.217c-4.909,0.394 -9.661,1.535 -14.317,3.096c-2.044,0.686 -4.153,1.031 -6.279,1.305c-1.234,0.158 -2.442,0.031 -3.63,-0.323c-0.626,-0.187 -0.77,-0.281 -1.39,-0.968c2.954,1.314 5.706,0.817 8.454,-0.124c1.572,-0.538 3.143,-1.072 4.683,-1.7c3.858,-1.574 7.83,-2.767 11.954,-3.398c3.028,-0.463 6.025,-0.46 8.817,1.065c0.509,0.278 0.885,0.157 1.322,-0.126c2.097,-1.362 4.047,-2.895 5.838,-4.651c2.607,-2.556 3.621,-5.689 3.611,-9.253c-0.009,-3.847 0.039,-7.694 0.348,-11.533c0.129,-1.613 0.21,-3.229 0.141,-4.848c-0.168,-3.951 -1.954,-6.907 -5.411,-8.847c-1.148,-0.644 -2.355,-1.164 -3.604,-1.56c-3.76,-1.194 -6.758,-3.4 -9.064,-6.594c-0.869,-1.204 -1.779,-2.387 -2.837,-3.439c-2.231,-2.219 -4.925,-3.252 -8.071,-3.075c-2.191,0.124 -4.175,0.886 -6.045,1.987c-5.058,2.977 -8.435,7.385 -10.796,12.663c-0.289,0.647 -0.474,1.294 -0.514,2.011c-0.152,2.717 -0.71,5.368 -1.339,8.008c-0.742,3.112 -2.007,6.055 -2.895,9.118c-0.178,0.616 -0.294,1.262 -0.727,1.951c0.076,-1.5 0.327,-2.822 0.631,-4.133c1.141,-4.908 2.038,-9.85 2.021,-14.911c-0.028,-8.567 -3.403,-15.325 -10.867,-19.809c-1.846,-1.11 -3.584,-2.336 -5.143,-3.825c-1.572,-1.502 -3.421,-2.608 -5.463,-3.302c-3.301,-1.121 -6.608,-1.209 -9.808,0.419c-0.778,0.396 -1.543,0.828 -2.269,1.31c-2.75,1.826 -5.202,3.993 -7.303,6.543c-1.715,2.082 -3.719,3.811 -6.066,5.149c-1.332,0.759 -2.605,1.612 -3.772,2.61c-3.364,2.876 -5.32,6.5 -5.392,10.948c-0.064,4.014 0.948,7.795 3.182,11.189c1.771,2.688 3.973,4.988 6.441,7.041c3.603,2.996 7.337,5.803 11.431,8.109c1.724,0.971 3.29,2.154 4.62,3.633c0.179,0.2 0.413,0.375 0.455,0.815c-1.289,-0.805 -2.417,-1.552 -3.583,-2.231c-4.429,-2.576 -8.715,-5.356 -12.641,-8.665c-0.231,-0.195 -0.484,-0.377 -0.751,-0.517c-3.073,-1.608 -6.28,-2.856 -9.68,-3.583c-2.051,-0.438 -4.082,-0.969 -6.199,-1.038c-6.835,-0.222 -12.446,2.622 -17.118,7.278c-3.832,3.818 -6.398,8.52 -7.746,13.8c-1.178,4.616 -2.248,9.257 -3.505,13.854c-0.777,2.842 -1.159,5.748 -0.796,8.698c0.854,6.931 4.544,10.442 10.245,11.727c1.715,0.386 3.473,0.421 5.219,0.486c3.617,0.135 6.831,1.259 9.642,3.595c1.476,1.225 3.038,2.36 4.705,3.332c2.296,1.338 4.67,1.577 7.175,0.614c1.936,-0.745 3.699,-1.781 5.372,-2.985c3.39,-2.441 6.429,-5.257 9.08,-8.49c1.857,-2.265 3.708,-4.536 5.586,-6.784c0.251,-0.302 0.364,-0.829 0.931,-0.771m54.384,181.62c-0.527,-0.702 -0.598,-1.503 -0.573,-2.35c0.066,-2.229 0.303,-4.447 0.352,-6.68c0.076,-3.369 -0.013,-6.734 -0.104,-10.097c-0.184,-6.773 -0.508,-13.542 -0.668,-20.315c-0.085,-3.669 0.049,-7.343 0.083,-11.016c0.015,-1.573 0.032,-3.148 0.037,-4.722c0.002,-0.43 0.06,-0.889 -0.388,-1.181c-0.068,-0.044 -0.15,-0.125 -0.159,-0.199c-0.264,-2.194 -1.992,-3.529 -3.08,-5.238c-0.536,-0.842 -1.148,-1.637 -1.641,-2.533c2.206,0.812 3.553,2.611 5.018,4.408c0.269,-0.317 0.191,-0.618 0.186,-0.892c-0.153,-8.558 -1.902,-16.824 -4.537,-24.932c-2.351,-7.234 -4.789,-14.442 -6.962,-21.728c-2.564,-8.597 -4.586,-17.324 -5.163,-26.325c-0.294,-4.583 -0.397,-9.168 -0.325,-13.855c-0.376,0.211 -0.427,0.545 -0.525,0.842c-0.612,1.87 -1.321,3.703 -2.011,5.545c-2.227,5.948 -6.649,9.493 -12.477,11.497c-3.902,1.342 -7.936,2.132 -12.033,2.554c-4.591,0.473 -9.16,0.297 -13.714,-0.547c-4.102,-0.759 -7.606,-2.557 -10.416,-5.638c-3.69,-4.043 -6.242,-8.628 -6.589,-14.231c-0.252,-4.08 0.081,-8.045 2.191,-11.681c0.527,-0.909 1.052,-1.81 1.843,-2.533c0.472,-0.431 0.85,-0.951 1.156,-1.616c-0.492,0.013 -0.727,0.289 -1.016,0.443c-0.77,0.412 -1.517,0.872 -2.303,1.251c-3.558,1.712 -7.088,1.632 -10.583,-0.21c-1.786,-0.941 -3.397,-2.151 -5.034,-3.316c-1.98,-1.408 -4.169,-2.181 -6.582,-2.349c-1.047,-0.072 -2.095,-0.141 -3.143,-0.203c-1.751,-0.104 -3.484,-0.313 -5.162,-0.856c-5.933,-1.921 -9.159,-6.142 -10.255,-12.139c-0.664,-3.636 -0.319,-7.225 0.67,-10.762c1.284,-4.589 2.307,-9.245 3.542,-13.844c1.36,-5.068 3.892,-9.527 7.292,-13.506c2.66,-3.113 6.113,-5.026 9.817,-6.591c4.233,-1.79 8.572,-1.961 12.988,-0.934c3.658,0.852 7.285,1.826 10.865,3.454c-0.137,-0.527 -0.463,-0.731 -0.708,-0.976c-1.394,-1.399 -2.656,-2.906 -3.757,-4.545c-2.655,-3.953 -3.803,-8.344 -3.488,-13.064c0.285,-4.267 2.262,-7.751 5.445,-10.565c1.084,-0.959 2.251,-1.819 3.513,-2.521c2.449,-1.361 4.464,-3.199 6.218,-5.363c2.221,-2.739 4.857,-5.029 7.776,-6.995c6.155,-4.143 15.544,0.23 20.072,1.263c2.808,0.641 4.706,3.138 7.094,4.935c0.039,-0.517 -0.133,-0.815 -0.247,-1.121c-1.62,-4.392 -2.446,-8.926 -2.467,-13.609c-0.002,-0.617 0.023,-1.225 0.258,-1.805c0.365,-0.899 0.98,-1.167 1.889,-0.797c0.703,0.286 1.252,0.8 1.762,1.341c2.872,3.043 4.983,6.51 5.977,10.62c0.838,3.465 1.02,6.999 1.221,10.534c0.144,2.534 0.132,5.07 0.124,7.606c-0.002,0.797 0.169,1.556 0.519,2.573c0.022,-0.959 0.023,-1.654 0.056,-2.346c0.1,-2.099 0.405,-4.177 0.628,-6.264c0.738,-6.916 1.272,-13.849 1.429,-20.806c0.041,-1.835 0.082,-3.671 0.13,-5.507c0.012,-0.492 -0.047,-0.885 -0.486,-1.262c-3.91,-3.354 -7.204,-7.266 -10.063,-11.53c-5.208,-7.767 -9.501,-16.013 -12.762,-24.786c-1.782,-4.795 -3.487,-9.617 -5.093,-14.474c-0.095,-0.29 -0.191,-0.581 -0.283,-0.873c-0.12,-0.378 -0.302,-0.509 -0.763,-0.47c-3.951,0.328 -6.901,-1.426 -9.167,-4.526c-0.622,-0.851 -1.046,-1.817 -1.471,-2.778c-0.984,-2.225 -2.59,-3.923 -4.516,-5.351c-1.08,-0.802 -2.32,-1.254 -3.622,-1.447c-5.249,-0.78 -9.044,-3.713 -11.977,-7.959c-0.672,-0.972 -1.333,-1.95 -2.021,-2.909c-0.357,-0.497 -0.746,-0.973 -1.147,-1.434c-1.797,-2.062 -3.357,-2.666 -6.083,-2.313c0.391,-0.461 0.844,-0.516 1.292,-0.544c0.751,-0.048 1.476,0.07 2.184,0.345c1.741,0.677 3.271,1.665 4.518,3.06c0.963,1.076 1.901,2.173 2.837,3.272c1.138,1.337 2.407,2.535 3.779,3.629c1.67,1.332 3.527,2.237 5.631,2.669c4.611,0.949 7.728,3.861 10.039,7.782c0.533,0.903 0.903,1.906 1.481,2.774c1.632,2.45 3.826,4.001 6.87,4.263c1.323,0.113 2.415,-0.235 3.404,-1.022c1.378,-1.097 2.132,-2.53 2.105,-4.311c-0.027,-1.863 -0.479,-3.63 -1.291,-5.31c-0.874,-1.81 -1.695,-3.628 -2.235,-5.588c-0.377,-1.364 -0.421,-2.664 -0.132,-4.001c0.351,-1.623 0.708,-3.247 1.142,-4.85c0.473,-1.747 0.373,-3.454 -0.095,-5.176c-0.552,-2.029 -1.001,-4.079 -0.977,-6.199c0.011,-0.915 0.067,-1.828 0.014,-2.765c-0.503,3.039 -2.091,5.697 -2.927,8.612c-0.767,2.674 -1.037,5.401 -0.621,8.172c0.15,0.997 0.121,1.997 0.107,2.969c-0.265,0.114 -0.395,0.026 -0.46,-0.154c-0.299,-0.82 -0.657,-1.626 -0.871,-2.469c-0.558,-2.185 -1.514,-4.183 -2.649,-6.115c-1.175,-1.999 -2.257,-4.05 -3.195,-6.172c-0.642,-1.454 -1.487,-2.768 -2.56,-3.942c-1.001,-1.095 -1.999,-2.195 -2.673,-3.497c-0.27,0.014 -0.219,0.156 -0.2,0.267c0.379,2.151 0.75,4.304 1.144,6.452c0.365,1.99 0.991,3.894 1.911,5.7c1.508,2.961 3.023,5.919 4.409,8.941c0.601,1.31 1.34,2.546 2.419,3.877c-0.838,-0.028 -1.337,-0.295 -1.816,-0.616c-1.134,-0.76 -2.109,-1.703 -3.027,-2.702c-0.922,-1.003 -1.912,-1.927 -3.031,-2.701c-1.752,-1.212 -3.199,-2.71 -4.344,-4.501c-1.142,-1.784 -2.594,-3.294 -4.141,-4.721c-0.146,-0.135 -0.259,-0.352 -0.525,-0.303c-0.152,0.305 0.104,0.48 0.239,0.668c0.538,0.744 1.059,1.505 1.659,2.198c2.376,2.746 4.107,5.865 5.43,9.226c0.467,1.185 0.989,2.332 1.883,3.277c0.579,0.612 1.37,0.918 2.015,1.427c-0.226,0.392 -0.543,0.278 -0.834,0.215c-0.559,-0.121 -1.147,-0.27 -1.563,-0.647c-1.65,-1.496 -3.838,-1.826 -5.756,-2.735c-0.551,-0.261 -1.135,-0.458 -1.716,-0.649c-2.759,-0.908 -5.127,-2.411 -7.093,-4.557c-0.797,-0.87 -1.632,-1.708 -2.482,-2.526c-0.918,-0.884 -1.93,-1.646 -3.113,-2.152c-0.984,-0.423 -2,-0.618 -3.072,-0.445c-0.33,0.053 -0.667,0.114 -1.181,-0.113c2.199,-1.028 4.121,-0.524 6.038,0.431c0.142,-0.391 -0.127,-0.523 -0.254,-0.7c-0.127,-0.177 -0.282,-0.334 -0.427,-0.497c-1.516,-1.704 -2.901,-3.498 -3.994,-5.512c-1.34,-2.469 -1.891,-5.099 -1.443,-7.857c0.69,-4.25 0.75,-8.532 0.858,-12.816c0.035,-1.364 0.234,-2.71 0.592,-4.015c1.573,-5.73 8.191,-9.905 14.07,-8.906c1.375,0.234 2.579,0.86 3.565,1.832c1.355,1.334 2.931,2.315 4.575,3.252c3.303,1.885 6,4.517 8.458,7.379c1.417,1.648 1.971,3.691 2.125,5.823c0.178,2.467 0.731,4.833 1.669,7.117c0.63,1.534 1.037,3.126 1.17,4.817c0.979,-2.3 1.467,-4.774 2.884,-6.864c1.356,-2 2.015,-4.465 3.987,-6.092c0.26,0.403 -0.023,0.626 -0.162,0.876c-3.432,6.145 -4.433,12.629 -2.729,19.493c0.157,0.636 0.306,1.275 0.44,1.917c0.319,1.53 0.325,3.029 -0.35,4.493c-0.31,0.672 -0.477,1.41 -0.769,2.091c-0.874,2.038 -0.737,4.094 -0.171,6.165c0.371,1.356 0.928,2.635 1.565,3.886c0.477,0.934 0.91,1.891 1.322,2.855c0.786,1.836 0.82,3.749 0.416,5.667c-0.226,1.075 -0.787,2.037 -1.378,2.951c-0.315,0.488 -0.428,0.885 -0.206,1.444c2.71,6.824 5.066,13.79 8.098,20.487c4.135,9.132 9.623,17.446 15.513,25.512c0.535,0.733 1.093,1.449 1.815,2.106c-0.148,-1.547 -0.286,-3.094 -0.446,-4.64c-0.567,-5.478 -1.279,-10.941 -1.713,-16.433c-0.063,-0.788 -0.391,-1.405 -0.903,-1.976c-1.037,-1.157 -2.077,-2.314 -2.802,-3.759c1.194,0.378 2.145,1.129 3.311,1.929c-0.238,-2.006 -0.466,-3.813 -0.666,-5.624c-0.731,-6.61 -1.179,-13.236 -1.081,-19.89c0.012,-0.795 -0.303,-1.448 -0.637,-2.104c-0.702,-1.378 -1.22,-2.803 -1.305,-4.362c-0.007,-0.126 -0.029,-0.251 0.181,-0.379c0.712,0.817 1.018,1.886 1.634,2.863c0.378,-0.318 0.263,-0.736 0.29,-1.08c0.354,-4.58 0.785,-9.151 1.441,-13.699c0.187,-1.298 0.367,-2.597 0.579,-3.891c0.544,-3.317 -0.03,-6.541 -0.859,-9.727c-0.878,-3.376 -2.191,-6.56 -4.597,-9.174c-1.779,-1.932 -2.496,-4.159 -2.051,-6.762c0.133,-0.779 0.15,-1.571 -0.144,-2.331c-0.321,-0.829 -0.831,-1.288 -1.808,-1.44c-4.025,-0.628 -8.111,-0.598 -12.134,-1.248c-4.269,-0.689 -7.989,-2.479 -11.203,-5.339c-1.076,-0.959 -2.098,-1.983 -3.117,-3.004c-1.198,-1.2 -2.493,-2.285 -4.05,-3.36c0.697,-0.308 1.118,-0.082 1.527,0.091c5.544,2.345 11.325,3.874 17.238,4.907c2.494,0.436 5.023,0.681 7.575,1.017c-0.037,-0.498 -0.446,-0.562 -0.71,-0.732c-1.805,-1.167 -3.488,-2.489 -5.051,-3.961c-2.323,-2.186 -4.164,-4.712 -5.375,-7.68c-0.91,-2.229 -1.651,-4.514 -2.303,-6.831c-0.796,-2.83 -0.571,-5.625 0.287,-8.398c0.207,-0.668 0.408,-1.339 0.658,-1.992c0.912,-2.382 1.506,-4.845 1.794,-7.372c0.523,-4.589 2.83,-7.992 6.708,-10.411c1.748,-1.09 3.563,-2.051 5.416,-2.939c0.544,-0.26 0.901,-0.602 1.174,-1.144c1.782,-3.534 4.677,-5.714 8.455,-6.719c1.474,-0.393 2.994,-0.616 4.501,-0.879c1.666,-0.29 3.235,0.018 4.627,0.984c1.316,0.912 2.728,1.535 4.307,1.83c3.467,0.647 5.763,2.75 7.204,5.895c0.238,0.521 0.542,1.059 0.486,1.614c-0.087,0.853 0.36,1.291 0.975,1.686c3.516,2.258 5.736,5.41 6.727,9.485c0.412,1.695 1.129,3.308 1.955,4.857c1.266,2.374 1.617,4.962 1.783,7.599c0.29,4.591 -0.563,8.964 -2.462,13.143c-0.859,1.89 -2.014,3.556 -3.73,4.853c2.766,0.001 5.467,-0.306 8.13,-0.921c2.622,-0.606 5.061,-1.802 7.669,-2.56c-1.06,0.957 -2.007,1.925 -3.068,2.749c-3.664,2.844 -7.09,5.972 -10.689,8.892c-1.836,1.489 -3.724,2.91 -5.728,4.165c-2.273,1.422 -4.631,2.643 -7.338,3.03c-0.992,0.141 -1.418,0.96 -1.802,1.741c-0.449,0.913 -0.604,1.926 -0.691,2.924c-0.242,2.758 -1.284,5.135 -3.11,7.215c-1.362,1.55 -1.908,3.525 -2.521,5.433c-0.779,2.421 -1.184,4.928 -1.407,7.461c-0.482,5.492 -0.557,11.003 -0.753,16.509c-0.132,3.715 -0.212,7.429 -0.204,11.146c0.01,4.246 0.376,8.472 0.636,12.703c0.384,6.289 1.148,12.533 2.164,18.748c0.053,0.323 -0.03,0.699 0.257,0.98c0.401,-0.091 0.342,-0.467 0.444,-0.725c1.86,-4.68 3.101,-9.558 4.577,-14.361c1.183,-3.846 2.517,-7.64 4.202,-11.298c0.271,-0.588 0.376,-0.977 -0.264,-1.417c-0.802,-0.553 -1.339,-1.382 -1.755,-2.258c-0.374,-0.788 -0.765,-1.585 -1.001,-2.42c-1.405,-4.962 -2.829,-9.929 -3.261,-15.097c-0.615,-7.379 0.615,-14.475 3.568,-21.253c1.342,-3.08 3.239,-5.799 5.906,-7.914c0.444,-0.353 0.9,-0.701 1.39,-0.984c1.721,-0.994 3.212,-0.573 4.207,1.166c0.574,1.003 0.836,2.108 0.985,3.242c0.321,2.441 0.255,4.883 0.034,7.33c-0.345,3.795 -1.138,7.521 -1.719,11.28c-0.434,2.808 -0.877,5.615 -1.355,8.417c-0.654,3.84 -1.603,7.612 -2.746,11.336c-0.101,0.329 -0.17,0.668 -0.254,1.008c0.428,0.158 0.465,-0.2 0.583,-0.37c1.265,-1.835 2.5,-3.692 3.778,-5.519c0.346,-0.495 0.499,-1.012 0.503,-1.591c0.058,-8.317 3.653,-15.243 8.851,-21.357c6.276,-7.382 14.508,-10.526 24.14,-10.081c2.344,0.109 3.336,1.069 3.733,3.406c0.278,1.63 -0.11,3.124 -0.848,4.554c-0.707,1.37 -1.666,2.562 -2.672,3.719c-5.489,6.324 -11.996,11.337 -19.469,15.103c-3.398,1.711 -6.803,3.411 -10.473,4.489c-0.511,0.15 -0.949,0.387 -1.282,0.845c-2.165,2.969 -4.26,5.984 -6.17,9.124c-0.061,0.1 -0.061,0.238 -0.097,0.394c0.426,0.008 0.622,-0.312 0.877,-0.505c3.591,-2.72 7.153,-5.48 10.864,-8.037c7.232,-4.984 15.276,-7.637 24.001,-8.322c0.874,-0.069 1.751,-0.078 2.617,0.054c1.802,0.276 2.639,1.542 2.206,3.305c-0.273,1.116 -0.777,2.132 -1.383,3.102c-1.689,2.706 -3.893,4.927 -6.416,6.86c-5.143,3.94 -10.981,6.26 -17.303,7.457c-4.669,0.883 -9.38,0.994 -14.109,0.698c-1.053,-0.065 -2.094,0.046 -3.14,0.108c-0.667,0.039 -1.002,0.323 -1.26,0.904c-1.174,2.639 -2.21,5.331 -3.105,8.074c-0.826,2.534 -1.615,5.083 -2.341,7.648c-1.143,4.046 -2.621,7.969 -4.22,11.849c-0.346,0.842 -0.433,1.646 -0.293,2.54c0.994,6.363 1.434,12.774 1.369,19.208c-0.056,5.688 -0.577,11.354 -1.113,17.016c-0.339,3.57 -0.753,7.131 -1.351,10.669c-0.02,0.124 -0.035,0.258 0.159,0.356c0.399,-0.138 0.594,-0.554 0.88,-0.856c2.401,-2.528 5.044,-4.709 8.31,-6.059c5.179,-2.141 10.331,-1.007 14.067,3.179c0.932,1.043 1.799,2.147 2.641,3.264c1.818,2.414 4.137,4.109 7.003,5.078c1.9,0.643 3.746,1.422 5.522,2.484c-0.239,-4.675 0.929,-7.114 5.395,-12.346c-0.454,-0.21 -0.857,-0.026 -1.22,0.111c-3,1.134 -5.999,0.97 -9.009,0.054c-1.302,-0.396 -2.645,-0.553 -3.989,-0.747c-5.59,-0.808 -9.877,-3.627 -12.595,-8.601c-0.985,-1.801 -2.231,-3.207 -4.033,-4.155c-2.119,-1.116 -3.94,-2.576 -5.324,-4.565c-1.518,-2.182 -2.365,-4.587 -2.409,-7.234c-0.053,-3.278 -0.135,-6.562 0.002,-9.835c0.264,-6.237 2.384,-11.883 5.953,-16.966c2.702,-3.849 6.534,-5.735 11.198,-5.82c3.55,-0.065 6.98,-0.704 10.213,-2.099c3.205,-1.385 6.29,-1.141 9.425,0.05c0.323,0.123 0.657,0.216 0.988,0.315c0.033,0.01 0.08,-0.029 0.12,-0.046c0.087,-0.175 0.001,-0.325 -0.066,-0.482c-2.375,-5.667 -1.505,-10.947 1.977,-15.869c1.502,-2.123 3.577,-3.513 6.163,-3.885c2.526,-0.363 4.774,-1.309 6.943,-2.596c5.336,-3.165 11.082,-3.785 17.099,-2.626c1.507,0.291 2.991,0.645 4.446,1.124c2.82,0.93 5.387,2.325 7.55,4.364c1.708,1.61 3.66,2.551 5.965,3.055c4.326,0.948 7.217,3.512 8.281,7.97c0.276,1.153 0.53,2.285 0.498,3.419c0.207,0.163 0.376,0.162 0.551,0.128c3.813,-0.756 7.285,0.07 10.461,2.259c0.54,0.373 1.089,0.734 1.61,1.131c2.671,2.029 5.561,3.618 8.81,4.53c0.967,0.271 1.879,0.71 2.767,1.188c4.017,2.164 6.063,5.534 6.175,10.086c0.035,1.4 0.05,2.8 -0.12,4.193c-0.453,3.704 -0.502,7.403 -0.07,11.119c0.372,3.214 -0.458,6.16 -2.367,8.784c-1.184,1.626 -2.376,3.246 -3.584,4.854c-0.686,0.914 -1.454,1.756 -2.464,2.325c-0.405,0.229 -0.582,0.444 -0.334,0.927c1.085,2.11 1.37,4.398 1.479,6.731c0.13,2.751 0.299,5.5 0.23,8.256c-0.08,3.171 -0.96,6.124 -2.426,8.906c-1.346,2.554 -2.864,5.01 -4.522,7.374c-1.493,2.126 -3.28,3.983 -5.38,5.521c-4.594,3.363 -9.648,4.602 -15.251,3.273c-1.233,-0.293 -2.487,-0.494 -3.664,-0.997c-1.162,-0.496 -2.227,-1.165 -3.378,-1.908c-0.214,0.615 -0.404,1.133 -0.576,1.658c-1.369,4.155 -4.165,6.704 -8.502,7.428c-3.343,0.559 -6.542,1.557 -9.659,2.857c-0.807,0.336 -1.63,0.632 -2.455,0.923c-4.279,1.513 -8.507,1.207 -12.701,-0.364c-1.923,-0.719 -3.553,-1.881 -4.948,-3.363c-1.777,-1.891 -3.654,-3.639 -6,-4.82c-0.578,-0.29 -1.025,-0.769 -1.402,-1.337c-0.404,0.384 -0.301,0.759 -0.322,1.081c-0.196,3.141 -0.41,6.286 -0.333,9.435c0.14,5.767 -2.182,10.321 -6.641,13.885c-1.47,1.176 -2.972,2.301 -4.69,3.436c1.064,1.192 2.003,2.423 2.701,3.821c0.679,1.356 1.213,2.79 2.048,4.072c0.465,-0.224 0.699,-0.611 1.009,-0.912c2.919,-2.83 6.321,-3.453 10.039,-1.99c3.67,1.444 6.061,4.223 7.412,7.88c1.548,4.188 1.826,8.529 1.274,12.927c-0.684,5.441 -2.591,10.5 -4.877,15.443c-2.143,4.631 -5.012,8.806 -7.989,12.917c-1.898,2.621 -3.761,5.265 -5.363,8.083c-0.23,0.405 -0.538,0.786 -0.602,1.416c0.53,-0.289 0.75,-0.708 1.033,-1.051c5.82,-7.032 12.182,-13.509 19.505,-18.995c0.63,-0.472 1.26,-0.954 1.943,-1.339c0.723,-0.408 0.891,-0.923 0.77,-1.726c-0.538,-3.587 -1.082,-7.176 -1.504,-10.778c-0.84,-7.181 -1.176,-14.384 -0.362,-21.593c0.598,-5.282 2.157,-10.254 5.054,-14.755c1.501,-2.332 3.467,-4.15 5.984,-5.353c4.88,-2.332 9.912,-0.879 12.774,3.717c1.42,2.281 2.081,4.813 2.219,7.466c0.287,5.574 -0.88,10.858 -3.32,15.873c-2.247,4.618 -5.055,8.889 -8.079,13.022c-2.452,3.353 -4.933,6.686 -7.658,9.828c-0.22,0.254 -0.51,0.474 -0.573,0.848c0.231,0.212 0.418,0.001 0.579,-0.088c5.464,-3 11.237,-5.264 17.13,-7.249c1.501,-0.506 1.231,-0.237 1.38,-1.779c0.234,-2.437 0.512,-4.871 0.819,-7.3c0.477,-3.774 0.7,-7.578 1.354,-11.332c1.165,-6.683 3.055,-13.108 6.626,-18.946c2.265,-3.704 5.091,-6.887 8.711,-9.321c2.134,-1.433 4.423,-2.487 7.042,-2.619c2.927,-0.147 5.188,1.01 6.682,3.551c1.208,2.053 1.657,4.321 1.665,6.668c0.018,5.421 -1.581,10.431 -4.082,15.171c-2.635,4.996 -6.199,9.302 -10.149,13.302c-3.294,3.335 -6.796,6.434 -10.566,9.226c-0.139,0.103 -0.317,0.154 -0.594,0.284c0.479,0.351 0.745,0.173 0.997,0.106c6.714,-1.793 13.439,-3.543 20.197,-5.166c0.749,-0.18 1.19,-0.593 1.611,-1.195c2.716,-3.884 5.733,-7.519 9.416,-10.529c4.714,-3.849 9.978,-6.613 16.035,-7.663c3.458,-0.599 6.888,-0.476 10.212,0.765c2.316,0.865 4.179,2.315 5.584,4.377c2.284,3.351 2.016,8.755 -1.294,11.78c-2.014,1.842 -4.343,3.074 -6.906,3.91c-4.452,1.454 -9.047,1.945 -13.705,1.93c-4.116,-0.013 -8.211,-0.37 -12.305,-0.775c-2.228,-0.22 -4.373,-0.867 -6.579,-1.195c-0.705,-0.105 -1.378,-0.16 -2.072,0.036c-5.637,1.592 -11.276,3.174 -16.912,4.762c-0.246,0.069 -0.515,0.099 -0.769,0.427c1.363,0.078 2.623,-0.184 3.886,-0.289c9.098,-0.758 17.674,0.882 25.618,5.485c2.744,1.59 5.255,3.468 7.268,5.951c0.997,1.231 1.868,2.536 2.334,4.071c0.761,2.513 -0.071,4.496 -2.407,5.692c-1.824,0.935 -3.773,1.022 -5.759,0.782c-3.197,-0.386 -6.027,-1.74 -8.748,-3.361c-2.371,-1.414 -4.54,-3.117 -6.723,-4.797c-3.683,-2.835 -7.512,-5.426 -11.806,-7.271c-4.915,-2.11 -10.011,-3.047 -15.36,-2.517c-1.238,0.123 -2.392,0.535 -3.53,0.956c-5.838,2.156 -11.461,4.771 -16.769,8.04c-0.182,0.112 -0.349,0.251 -0.531,0.383c0.224,0.219 0.424,0.092 0.618,0.037c4.404,-1.274 8.923,-1.724 13.481,-1.767c6.198,-0.059 12.303,0.665 18.292,2.316c5.546,1.527 10.527,4.044 14.503,8.283c3.25,3.466 5.4,7.502 6.02,12.276c0.113,0.874 0.098,1.747 0.007,2.617c-0.42,4.046 -3.163,6.576 -7.245,6.678c-2.892,0.073 -5.631,-0.637 -8.31,-1.644c-3.049,-1.148 -5.842,-2.766 -8.516,-4.605c-4.397,-3.022 -8.65,-6.244 -12.936,-9.419c-3.379,-2.502 -6.857,-4.851 -10.809,-6.386c-2.489,-0.965 -5.025,-1.772 -7.676,-2.183c-1.089,-0.169 -2.18,-0.143 -3.272,-0.16c-1.891,-0.032 -3.386,0.945 -4.676,2.115c-5.258,4.77 -10.04,9.993 -14.381,15.615c-0.102,0.134 -0.233,0.268 -0.134,0.53c1.133,0.098 2.288,0.235 3.448,0.29c4.293,0.207 8.558,-0.267 12.834,-0.514c5.719,-0.33 11.444,-0.592 17.163,0.014c2.226,0.236 4.397,0.742 6.475,1.593c2.651,1.086 4.835,2.761 6.53,5.093c4.174,5.741 1.785,12.35 -2.796,15.431c-2.878,1.934 -6.096,2.557 -9.493,2.411c-5.344,-0.231 -10.267,-1.975 -15.046,-4.234c-6.443,-3.045 -11.985,-7.34 -17.08,-12.259c-1.614,-1.56 -2.814,-3.431 -3.82,-5.391c-0.397,0 -0.487,0.291 -0.628,0.491c-3.905,5.559 -7.364,11.371 -10.108,17.598c-0.973,2.208 -1.657,4.509 -2.35,6.81c-1.842,6.117 -3.055,12.379 -4.362,18.619c-0.915,4.369 -1.574,8.78 -1.8,13.247c-0.018,0.352 -0.007,0.689 0.083,1.036c1.316,5.057 1.847,10.23 2.211,15.423c0.537,7.641 0.443,15.291 0.217,22.941c-0.219,7.43 -0.329,14.86 -0.227,22.295c0.057,4.239 -0.051,8.48 0.232,12.718c0.091,1.365 -0.102,1.499 -1.437,1.43c-0.601,-0.031 -1.22,-0.177 -1.802,0.123c-1.046,-0.089 -2.091,-0.179 -3.137,-0.269" style="fill-rule:nonzero;"/><path d="M72.441,243.212c3.39,10.376 4.978,20.987 4.03,31.927c-0.462,-1.693 -0.513,-3.434 -0.536,-5.163c-0.117,-8.873 -1.396,-17.578 -3.671,-26.146c-0.043,-0.164 -0.083,-0.328 -0.124,-0.492c0.1,-0.042 0.2,-0.084 0.301,-0.126" style="fill-rule:nonzero;"/><path d="M98.823,282.26c1.255,-4.399 15.794,-16.271 20.269,-16.681c-7.584,4.408 -14.346,9.822 -20.269,16.681" style="fill-rule:nonzero;"/><path d="M97.785,311.173c4.831,-1.947 21.363,0.33 24.988,3.484c-1.846,-0.251 -3.54,-0.837 -5.259,-1.31c-3.88,-1.071 -7.826,-1.801 -11.83,-2.181c-2.434,-0.231 -4.879,-0.255 -7.313,0.1c-0.196,0.028 -0.418,0.113 -0.586,-0.093" style="fill-rule:nonzero;"/><path d="M52.334,298.846c-0.567,0.406 -1.112,0.117 -1.633,0.034c-4.177,-0.666 -8.346,-0.783 -12.505,0.137c-2.533,0.56 -4.912,1.542 -7.239,2.665c-0.5,0.241 -0.977,0.549 -1.72,0.656c0.472,-0.648 1.012,-0.98 1.55,-1.301c3.414,-2.035 7.156,-2.981 11.081,-3.287c3.115,-0.243 6.197,0.151 9.273,0.572c0.407,0.056 0.863,0.061 1.193,0.524" style="fill-rule:nonzero;"/><path d="M74.769,328.009c-1.48,7.372 -1.821,14.883 -2.689,22.513c-0.684,-3.958 -0.151,-7.705 0.295,-11.434c0.449,-3.752 1.005,-7.5 2.394,-11.079" style="fill-rule:nonzero;"/><path d="M101.453,283.743c-0.221,-0.501 0.043,-0.723 0.208,-0.962c0.546,-0.797 1.203,-1.501 1.9,-2.164c4.441,-4.22 9.432,-7.642 14.962,-10.275c0.665,-0.317 1.335,-0.633 2.302,-0.791c-0.509,0.594 -1.044,0.836 -1.541,1.108c-3.373,1.853 -6.724,3.738 -9.881,5.948c-1.721,1.205 -3.386,2.481 -4.934,3.902c-1.06,0.972 -2.106,1.961 -3.016,3.234" style="fill-rule:nonzero;"/><path d="M65.168,346.587c-0.295,-5.564 2.432,-16.839 4.504,-18.595c-0.993,3.254 -1.946,6.272 -2.594,9.368c-0.644,3.075 -1.274,6.152 -1.91,9.227" style="fill-rule:nonzero;"/><path d="M67.08,324.678c-1.685,3.362 -3.465,6.654 -4.905,10.121c-1.44,3.466 -2.366,7.123 -3.997,10.511c1.594,-7.476 4.474,-14.402 8.902,-20.632" style="fill-rule:nonzero;"/><path d="M101,313.474c1.282,-0.453 2.541,-0.287 3.754,-0.008c4.757,1.094 9.181,3.005 13.293,5.634c0.293,0.187 0.562,0.413 0.832,0.634c0.098,0.08 0.164,0.198 0.303,0.369c-0.611,-0.004 -1.028,-0.321 -1.47,-0.545c-2.526,-1.278 -5.012,-2.641 -7.66,-3.667c-2.933,-1.136 -5.895,-2.144 -9.052,-2.417" style="fill-rule:nonzero;"/><path d="M97.294,316.607c2.803,0.108 9.575,5.478 11.602,9.289c-1.072,-0.598 -1.893,-1.27 -2.657,-2.02c-1.337,-1.314 -2.676,-2.627 -4.12,-3.826c-1.343,-1.114 -2.697,-2.213 -4.305,-2.938c-0.157,-0.07 -0.306,-0.165 -0.438,-0.273c-0.055,-0.044 -0.057,-0.153 -0.082,-0.232" style="fill-rule:nonzero;"/><path d="M103.114,287.334c1.804,-2.555 13.992,-6.587 19.027,-6.287c-0.862,0.425 -1.775,0.547 -2.673,0.705c-4.147,0.731 -8.194,1.803 -12.053,3.517c-1.199,0.532 -2.379,1.104 -3.499,1.794c-0.237,0.146 -0.445,0.438 -0.802,0.271" style="fill-rule:nonzero;"/><path d="M60.58,254.051c1.982,5.239 3.964,10.477 5.925,15.66c-2.034,-2.158 -5.81,-11.925 -5.925,-15.66" style="fill-rule:nonzero;"/><path d="M32.761,305.758c3.018,-3.104 11.21,-5.408 15.408,-4.498c-0.041,0.223 -0.223,0.212 -0.376,0.202c-3.072,-0.181 -5.968,0.579 -8.789,1.682c-1.5,0.587 -2.964,1.266 -4.448,1.896c-0.506,0.216 -1.022,0.409 -1.795,0.718" style="fill-rule:nonzero;"/><path d="M65.297,253.37c1.883,4.054 3.208,8.291 4.181,12.643c-1.996,-4.014 -3.171,-8.301 -4.181,-12.643" style="fill-rule:nonzero;"/><path d="M47.324,307.635c-4.501,0.668 -7.723,3.648 -11.278,6.271c1.093,-2.849 7.658,-6.52 11.278,-6.271" style="fill-rule:nonzero;"/><path d="M34.554,289.372c3.389,-0.3 6.604,0.479 9.767,1.577c-3.279,-0.371 -6.491,-1.166 -9.767,-1.577" style="fill-rule:nonzero;"/><path d="M82.122,266.239c0.062,-2.632 0.417,-5.183 0.75,-7.735c0.013,-0.103 0.128,-0.192 0.329,-0.473c0.147,2.918 -0.23,5.561 -1.079,8.208" style="fill-rule:nonzero;"/><path d="M60.488,318.111c-0.123,-0.556 0.334,-0.784 0.66,-1.085c-0.127,0.413 -0.342,0.773 -0.689,1.054c0.001,0.001 0.029,0.031 0.029,0.031" style="fill-rule:nonzero;"/><path d="M173.959,222.389c2.098,1.545 4.263,2.922 6.547,4.118c0.388,0.203 0.662,0.007 0.981,-0.115c1.556,-0.588 2.926,-0.21 4.13,0.855c0.817,0.722 1.085,1.686 0.755,2.463c-0.35,0.826 -1.154,1.251 -2.272,1.203c-1.892,-0.082 -3.452,-1.438 -3.663,-3.248c-0.042,-0.358 -0.158,-0.565 -0.452,-0.711c-1.961,-0.971 -3.766,-2.203 -5.62,-3.389c-0.321,0.424 -0.002,0.781 0.051,1.131c0.189,1.244 0.24,2.45 -0.638,3.485c-0.237,0.279 -0.241,0.523 -0.076,0.826c0.644,1.185 1.277,2.375 1.904,3.546c1.864,-0.656 2.784,-0.192 3.358,1.607c0.256,0.803 0.328,1.625 0.202,2.461c-0.114,0.755 -0.495,1.304 -1.249,1.53c-0.778,0.233 -1.376,-0.113 -1.854,-0.674c-0.777,-0.912 -1.091,-2.005 -0.952,-3.177c0.088,-0.743 -0.065,-1.361 -0.437,-1.986c-0.446,-0.751 -0.858,-1.525 -1.241,-2.31c-0.333,-0.683 -0.67,-1.245 -1.543,-1.406c-0.779,-0.143 -1.158,-0.888 -1.517,-1.542c-0.289,-0.527 -0.524,-1.084 -0.784,-1.632c-0.451,0.151 -0.327,0.519 -0.379,0.784c-0.351,1.805 -0.8,3.584 -1.373,5.329c-0.158,0.482 -0.248,0.87 0.162,1.312c0.59,0.635 0.599,1.424 0.318,2.218c-0.307,0.873 -0.677,1.709 -1.409,2.325c-0.55,0.464 -1.167,0.598 -1.832,0.31c-0.576,-0.25 -0.835,-0.826 -0.735,-1.672c0.112,-0.962 0.48,-1.856 0.873,-2.731c0.202,-0.449 0.597,-0.78 1.075,-0.907c0.456,-0.121 0.641,-0.419 0.74,-0.817c0.582,-2.327 1.103,-4.665 1.48,-7.043c-0.553,-0.094 -0.899,0.232 -1.296,0.386c-0.865,0.333 -1.735,0.631 -2.678,0.404c-0.411,-0.1 -0.77,-0.016 -1.138,0.156c-1.101,0.514 -2.264,0.874 -3.21,1.723c-0.684,0.612 -1.574,0.944 -2.532,0.952c-0.698,0.006 -1.3,-0.215 -1.661,-0.855c-0.365,-0.649 -0.206,-1.269 0.18,-1.852c0.499,-0.754 1.178,-1.286 2.031,-1.586c1.571,-0.553 2.677,-0.082 3.526,1.504c0.453,0.012 0.808,-0.272 1.211,-0.415c0.38,-0.135 0.544,-0.342 0.453,-0.789c-0.17,-0.821 0.267,-1.425 0.837,-1.95c0.723,-0.664 1.578,-1.092 2.505,-1.384c0.368,-0.116 0.739,-0.221 1.078,-0.322c0.045,-0.374 -0.127,-0.566 -0.349,-0.721c-2.15,-1.515 -4.097,-3.274 -6.067,-5.005c-0.457,-0.402 -0.786,-0.589 -1.468,-0.337c-1.212,0.447 -2.092,-0.368 -2.801,-1.221c-0.409,-0.492 -0.662,-1.127 -0.927,-1.724c-0.294,-0.66 -0.194,-1.306 0.351,-1.802c0.524,-0.477 1.162,-0.61 1.831,-0.332c1.514,0.631 2.344,1.828 2.5,3.411c0.065,0.671 0.239,1.127 0.757,1.547c1.824,1.478 3.618,2.993 5.595,4.638c-0.048,-1.471 -0.026,-2.719 1.457,-3.143c-0.424,-1.762 -0.841,-3.456 -1.237,-5.155c-0.095,-0.406 -0.209,-0.644 -0.695,-0.786c-2.045,-0.598 -3.192,-3.695 -2.099,-5.516c0.667,-1.113 2.099,-1.216 2.817,-0.096c0.925,1.446 1.332,3.064 0.698,4.745c-0.203,0.538 -0.218,0.982 -0.078,1.506c0.427,1.604 0.824,3.217 1.235,4.825c0.054,0.21 0.061,0.492 0.199,0.608c0.905,0.748 1.362,1.764 1.669,2.867c0.506,-0.216 0.451,-0.599 0.485,-0.925c0.237,-2.225 0.768,-4.393 1.301,-6.557c0.144,-0.583 0.123,-1.041 -0.177,-1.601c-0.687,-1.281 -0.23,-4.034 0.732,-5.098c0.859,-0.95 2.144,-0.743 2.655,0.438c0.175,0.403 0.25,0.835 0.223,1.281c-0.067,1.062 -0.363,2.064 -0.778,3.033c-0.175,0.408 -0.427,0.859 -0.851,0.951c-0.824,0.179 -0.966,0.794 -1.104,1.435c-0.401,1.876 -0.878,3.738 -1.134,5.62c0.408,0.278 0.612,-0.06 0.854,-0.182c0.551,-0.277 1.116,-0.634 1.731,-0.511c0.838,0.167 1.308,-0.263 1.786,-0.802c0.376,-0.426 0.762,-0.844 1.169,-1.242c0.576,-0.564 0.911,-1.095 0.741,-2.035c-0.258,-1.424 1.362,-3.662 2.738,-4.125c1.546,-0.52 2.747,0.518 2.457,2.122c-0.303,1.676 -2.199,3.408 -3.925,3.503c-0.408,0.022 -0.64,0.174 -0.878,0.442c-0.524,0.587 -1.026,1.2 -1.6,1.735c-0.58,0.541 -0.91,1.039 -0.593,1.902c0.27,0.733 -0.196,1.431 -0.567,2.055c0.361,0.366 0.718,0.146 1.034,0.118c1.349,-0.119 2.693,-0.293 4.043,-0.418c0.466,-0.043 0.822,-0.096 0.947,-0.668c0.34,-1.558 3.554,-2.726 5.145,-2.228c1.396,0.437 1.749,1.846 0.725,2.876c-1.338,1.346 -3.752,1.743 -5.441,0.848c-0.348,-0.185 -0.649,-0.162 -0.998,-0.127c-1.739,0.177 -3.48,0.339 -5.22,0.503c-1.378,0.129 -1.378,0.128 -2.744,1.233" style="fill-rule:nonzero;"/><path d="M190.246,211.33c2.062,-4.624 12.705,-12.131 18.075,-12.77c-0.51,0.519 -1.062,0.718 -1.577,0.964c-2.839,1.356 -5.644,2.767 -8.27,4.52c-2.49,1.663 -4.718,3.6 -6.654,5.883c-0.417,0.491 -0.768,1.068 -1.574,1.403" style="fill-rule:nonzero;"/><path d="M166.846,242.92c0.146,0.465 -0.065,0.669 -0.194,0.879c-2.063,3.353 -3.155,7.068 -4.108,10.843c-0.649,2.576 -1.004,5.223 -1.87,7.939c-0.234,-0.935 -0.19,-1.706 -0.09,-2.467c0.64,-4.836 1.983,-9.471 4.081,-13.876c0.559,-1.171 1.156,-2.339 2.181,-3.318" style="fill-rule:nonzero;"/><path d="M173.463,173.833c-1.944,5.858 -2.413,11.995 -3.45,18.02c-0.963,-3.38 1.248,-14.971 3.45,-18.02" style="fill-rule:nonzero;"/><path d="M166.121,261.713c-0.983,-3.794 1.053,-13.479 3.261,-15.508c-0.525,1.837 -1.064,3.48 -1.453,5.157c-0.405,1.739 -0.68,3.508 -0.984,5.268c-0.293,1.695 -0.265,3.443 -0.824,5.083" style="fill-rule:nonzero;"/><path d="M177.268,178.119c-2.313,4.726 -2.904,9.914 -4.034,15.119c-1.077,-2.755 1.758,-13.329 4.034,-15.119" style="fill-rule:nonzero;"/><path d="M144.087,212.954c-0.934,0.068 -1.798,0.063 -2.666,-0.061c-4.421,-0.632 -8.855,-0.804 -13.305,-0.343c-0.47,0.049 -0.946,0.156 -1.427,-0.042c3.559,-1.413 14.699,-1.147 17.398,0.446" style="fill-rule:nonzero;"/><path d="M193.03,234.068c3.959,-0.458 11.542,4.175 14.008,8.478c-1.135,-0.73 -1.956,-1.556 -2.808,-2.336c-2.438,-2.233 -5.127,-4.069 -8.244,-5.218c-0.968,-0.357 -1.97,-0.618 -2.956,-0.924" style="fill-rule:nonzero;"/><path d="M183.619,180.04c-2.939,3.869 -4.627,8.364 -6.658,12.677c1.044,-4.85 3.013,-9.219 6.658,-12.677" style="fill-rule:nonzero;"/><path d="M196.521,209.298c2.016,-2.573 9.469,-6.302 12.253,-6.181c-0.832,0.61 -1.666,0.963 -2.504,1.311c-2.538,1.056 -5.077,2.112 -7.478,3.459c-0.706,0.395 -1.375,0.852 -2.271,1.411" style="fill-rule:nonzero;"/><path d="M127.122,208.614c2.936,-1.006 11.886,-0.161 14.434,1.392c-4.773,-0.871 -9.578,-1.407 -14.434,-1.392" style="fill-rule:nonzero;"/><path d="M133.493,199.493c2.937,0.18 8.806,3.142 10.467,5.271c-0.65,0.009 -1.123,-0.313 -1.577,-0.595c-2.751,-1.706 -5.609,-3.196 -8.619,-4.389c-0.069,-0.027 -0.112,-0.115 -0.271,-0.287" style="fill-rule:nonzero;"/><path d="M171.752,248.261c-0.126,4.484 0.334,8.65 0.994,12.935c-1.425,-1.815 -2.165,-10.703 -0.994,-12.935" style="fill-rule:nonzero;"/><path d="M131.892,226.054c3.867,-2.518 7.909,-4.646 12.49,-5.55c-4.2,1.767 -8.414,3.501 -12.49,5.55" style="fill-rule:nonzero;"/><path d="M199.049,246.809c-1.247,-1.955 -2.179,-4.078 -3.457,-6.01c-1.241,-1.875 -2.741,-3.535 -4.25,-5.18c3.957,2.773 6.284,6.681 7.707,11.19" style="fill-rule:nonzero;"/><path d="M212.165,208.523c-3.617,1.006 -7.279,1.77 -10.67,3.413c1.467,-1.785 7.241,-3.609 10.67,-3.413" style="fill-rule:nonzero;"/><path d="M196.417,232.731c4.187,0.43 7.972,1.843 11.258,4.449c-0.044,0.095 -0.087,0.189 -0.131,0.284c-1.156,-0.639 -2.304,-1.293 -3.47,-1.912c-1.23,-0.654 -2.512,-1.203 -3.833,-1.646c-1.263,-0.425 -2.549,-0.786 -3.824,-1.175" style="fill-rule:nonzero;"/><path d="M82.407,86.967c-3.529,-4.42 -4.188,-17.252 -1.242,-20.818c0.185,0.707 -0.165,1.297 -0.313,1.902c-1.045,4.291 -0.921,8.567 0.109,12.835c0.359,1.484 0.757,2.959 1.12,4.442c0.133,0.54 0.219,1.092 0.326,1.639" style="fill-rule:nonzero;"/><path d="M84.592,87.206c-1.446,-4.573 -2.67,-9.163 -1.927,-14.021c0.132,4.751 1.454,9.333 1.927,14.021" style="fill-rule:nonzero;"/><path d="M86.419,75.987c0.042,3.195 0.521,6.361 0.917,9.706c-1.293,-1.435 -1.779,-6.553 -0.917,-9.706" style="fill-rule:nonzero;"/><path d="M119.478,89.497c0.832,-4.57 1.198,-9.126 -0.302,-13.656c2.073,4.512 2.301,9.064 0.302,13.656" style="fill-rule:nonzero;"/><path d="M52.318,107.615c1.786,1.185 3.176,4.271 3.222,6.953c-1.161,-2.173 -1.652,-4.649 -3.222,-6.953" style="fill-rule:nonzero;"/><path d="M56.846,112.72c-0.861,-2.075 -1.554,-4.237 -3.242,-6.105c1.794,0.737 3.372,3.795 3.242,6.105" style="fill-rule:nonzero;"/></g></g></g></g></svg>