<svg id="visual" viewBox="0 0 960 250" width="960" height="250" xmlns="http://www.w3.org/2000/svg" xmlns:xlink="http://www.w3.org/1999/xlink" version="1.1"><rect x="0" y="0" width="960" height="250" fill="#bfc1f1"></rect><path d="M0 128L22.8 128.2C45.7 128.3 91.3 128.7 137 136.5C182.7 144.3 228.3 159.7 274 161.8C319.7 164 365.3 153 411.2 152.7C457 152.3 503 162.7 548.8 166.7C594.7 170.7 640.3 168.3 686 164C731.7 159.7 777.3 153.3 823 146.7C868.7 140 914.3 133 937.2 129.5L960 126L960 251L937.2 251C914.3 251 868.7 251 823 251C777.3 251 731.7 251 686 251C640.3 251 594.7 251 548.8 251C503 251 457 251 411.2 251C365.3 251 319.7 251 274 251C228.3 251 182.7 251 137 251C91.3 251 45.7 251 22.8 251L0 251Z" fill="#82b1f7"></path><path d="M0 163L22.8 165.3C45.7 167.7 91.3 172.3 137 175.7C182.7 179 228.3 181 274 181.3C319.7 181.7 365.3 180.3 411.2 178.3C457 176.3 503 173.7 548.8 173.8C594.7 174 640.3 177 686 176.8C731.7 176.7 777.3 173.3 823 175.5C868.7 177.7 914.3 185.3 937.2 189.2L960 193L960 251L937.2 251C914.3 251 868.7 251 823 251C777.3 251 731.7 251 686 251C640.3 251 594.7 251 548.8 251C503 251 457 251 411.2 251C365.3 251 319.7 251 274 251C228.3 251 182.7 251 137 251C91.3 251 45.7 251 22.8 251L0 251Z" fill="#5c8fbd"></path><path d="M0 192L22.8 192C45.7 192 91.3 192 137 190.3C182.7 188.7 228.3 185.3 274 184.5C319.7 183.7 365.3 185.3 411.2 188.3C457 191.3 503 195.7 548.8 197.2C594.7 198.7 640.3 197.3 686 195.8C731.7 194.3 777.3 192.7 823 193.3C868.7 194 914.3 197 937.2 198.5L960 200L960 251L937.2 251C914.3 251 868.7 251 823 251C777.3 251 731.7 251 686 251C640.3 251 594.7 251 548.8 251C503 251 457 251 411.2 251C365.3 251 319.7 251 274 251C228.3 251 182.7 251 137 251C91.3 251 45.7 251 22.8 251L0 251Z" fill="#446c85"></path><path d="M0 230L22.8 228.7C45.7 227.3 91.3 224.7 137 225.3C182.7 226 228.3 230 274 228.5C319.7 227 365.3 220 411.2 216.3C457 212.7 503 212.3 548.8 213.7C594.7 215 640.3 218 686 220.7C731.7 223.3 777.3 225.7 823 225.2C868.7 224.7 914.3 221.3 937.2 219.7L960 218L960 251L937.2 251C914.3 251 868.7 251 823 251C777.3 251 731.7 251 686 251C640.3 251 594.7 251 548.8 251C503 251 457 251 411.2 251C365.3 251 319.7 251 274 251C228.3 251 182.7 251 137 251C91.3 251 45.7 251 22.8 251L0 251Z" fill="#364952"></path></svg>