<?xml version="1.0" encoding="UTF-8"?>
<svg xmlns="http://www.w3.org/2000/svg" version="1.1" viewBox="0 0 1024 1024">
  <defs>
    <style>
      .cls-1 {
        fill: #aeb5c7;
      }

      .cls-2 {
        fill: #b9becc;
      }

      .cls-3 {
        fill: #f2f6f9;
      }

      .cls-4 {
        fill: #c1c6d4;
      }

      .cls-5 {
        fill: #dddee5;
      }

      .cls-6 {
        fill: #c0c5d2;
      }

      .cls-7 {
        fill: #a3acc1;
      }

      .cls-8 {
        fill: #eaebed;
      }

      .cls-9 {
        fill: #e3e4e7;
      }

      .cls-10 {
        fill: #b6bccb;
      }

      .cls-11 {
        fill: #fff;
      }

      .cls-12 {
        fill: #f3f4f4;
      }

      .cls-13 {
        fill: #cccfda;
      }

      .cls-14 {
        fill: #d4d5de;
      }

      .cls-15 {
        fill: #ccf;
      }

      .cls-16 {
        fill: #c8cbd7;
      }

      .cls-17 {
        fill: #afb5c7;
      }

      .cls-18 {
        fill: #e0e1e5;
      }

      .cls-19 {
        fill: #b9bdcc;
      }

      .cls-20 {
        fill: #c7c9d5;
      }

      .cls-21 {
        fill: #afb5c6;
      }

      .cls-22 {
        fill: #afb6c7;
      }

      .cls-23 {
        fill: #b3b9ca;
      }

      .cls-24 {
        fill: #a5aec1;
      }

      .cls-25 {
        fill: #acb3c4;
      }

      .cls-26 {
        fill: #c4c7d3;
      }

      .cls-27 {
        fill: #cbced8;
      }

      .cls-28 {
        fill: #b0b6c8;
      }

      .cls-29 {
        fill: #caccd8;
      }

      .cls-30 {
        fill: #efeff0;
      }

      .cls-31 {
        fill: #c8cbd6;
      }

      .cls-32 {
        fill: #caccd6;
      }

      .cls-33 {
        fill: #e6e7eb;
      }

      .cls-34 {
        fill: #c5c8d4;
      }

      .cls-35 {
        fill: #669;
      }

      .cls-36 {
        fill: #d0d2dc;
      }

      .cls-37 {
        fill: #d8d9e1;
      }

      .cls-38 {
        fill: #ccced8;
      }

      .cls-39 {
        fill: #c3c6d3;
      }

      .cls-40 {
        fill: #cfd0da;
      }

      .cls-41 {
        fill: #b0b6c7;
      }

      .cls-42 {
        fill: #c7cad5;
      }

      .cls-43 {
        fill: #c7cad6;
      }

      .cls-44 {
        fill: #ebedef;
      }

      .cls-45 {
        fill: #cccfd9;
      }

      .cls-46 {
        fill: #fefefe;
      }

      .cls-47 {
        fill: #c3c6d2;
      }

      .cls-48 {
        fill: #dbdce3;
      }

      .cls-49 {
        fill: #d3d4dd;
      }

      .cls-50 {
        fill: #69f;
      }

      .cls-51 {
        fill: #e9eaed;
      }

      .cls-52 {
        fill: #a2acc1;
      }

      .cls-53 {
        fill: #d2d4db;
      }

      .cls-54 {
        fill: #c4c7d4;
      }

      .cls-55 {
        fill: #b5baca;
      }
    </style>
  </defs>
  <!-- Generator: Adobe Illustrator 28.7.1, SVG Export Plug-In . SVG Version: 1.2.0 Build 142)  -->
  <g>
    <g id="Capa_1">
      <path class="cls-46" d="M0,0h1024V1024H0V0Z"/>
      <path class="cls-15" d="M718.9,673.7c4.8-3.9,9.4-8,14-12.2l-.3.8c-.4,1.1-.9,2.1-1.5,3.1,1.5,0,2.8-.6,4.3-.6-4.9,3.7-11.1,6.2-16.7,8.9h.2Z"/>
      <path class="cls-35" d="M440.9,180.4l.4-.4c2.1,6.1,3,12.4,5.3,18.6,8.9,24.2,25.6,45,48.9,56.5,10,4.9,21.3,4.8,31.8,1.2,21.8-7.6,38-29,47.6-49.1,1.7-3.6,3.3-7.3,4.7-11,1.1-3.1,1.7-8.2,3.5-10.7l.4,1c-2.7,20.9-11.3,42.1-24.5,58.7-8.7,10.9-30,28.9-44.3,30.2-11.7,1.1-25.7-8.9-34.1-16.1-23.5-20.1-37.1-48.1-39.5-78.8h-.2Z"/>
      <path class="cls-15" d="M278.5,443.3c-1.8-11.6-1.1-31.4-.8-43.6.1-5.4.2-29.7,3.5-32.8,8.1.5,59.2,39.5,66,46.5-4.7,19.7-8.9,38.3-8.7,58.7-9.2-12.4-17.8-25.6-25.6-38.9-4.2-7.2-7.4-15.4-12.1-22.2-.4,1.1,4.8,12.7,5.6,14.9-1.1.7-1.6.7-2.9.8-1.5.1-3,.6-4.6.8-5.4.8-10.8.6-15.5,3.8-.7.5-2.5,2-3.3,1.4l-.3.7v-.6c-1.2,3.5,0,7-1.3,10.5h0Z"/>
      <path class="cls-15" d="M278.5,443.3c1.3-3.5.1-6.9,1.2-10.5v.6l.4-.7c.9.6,2.6-1,3.3-1.4,4.8-3.2,10.1-3,15.5-3.8,1.5-.2,3-.7,4.6-.8,1.2,0,1.8-.1,2.9-.8,6,16.4,12.7,32.9,20.7,48.4,3.7,7.2,9.5,13.7,12.5,21.1,1.9,4.6,2.1,10.2,3,15.1.8,4.9,2.1,9.7,3.8,14.4,8.8,25.3,20.1,43.2,39.7,61.4,5.6,5.1,12,9.6,17.2,15.1-20.5-9.4-52-25-73.9-26.4-8.3-.5-15.9.7-23.8,3.1-13.7-33.3-21.1-70.3-25.1-106-1-9.5-2.2-19.3-2-28.9h0Z"/>
      <path class="cls-15" d="M504.8,727.7c7-1.1,14.8,1.1,21.9,1.6,21.7,1.5,48.5,3.3,69.9-.6-2.5,2.5-5,5-7.5,7.6s-4.9,5.2-7.2,7.8c-2.4,2.7-4.7,5.3-6.9,8.1-2.3,2.7-4.5,5.5-6.7,8.3s-4.3,5.7-6.4,8.6c-2.1,2.9-4.1,5.8-6.1,8.8s-3.9,6-5.7,9c-1.9,3-3.7,6.1-5.4,9.2-1.8,3.1-3.4,6.2-5.1,9.4-1.6,3.2-3.2,6.3-4.8,9.5-1.5,3.2-3,6.4-4.4,9.7s-2.8,6.5-4.1,9.9c-1.3,3.3-2.5,6.6-3.7,10s-2.3,6.7-3.4,10.1c-1.1,3.4-2.1,6.8-3,10.2s-1.8,6.9-2.6,10.3c-.8,3.1-1.2,6.2-1.7,9.3-1.3-12-5.6-24.7-9.6-36.1-17.1-48.6-39.6-82.1-73.8-120.2,24.7,4.5,51.6,2.9,76.4-.5h0Z"/>
      <path class="cls-15" d="M742.1,364.5c.4.2.6.6.8,1,2.1,5.6,3.2,29.5,3.5,36.4,2.2,46.2-.6,93.4-14.2,137.8-4,12.9-9.2,25.4-14.1,38-6.4-2-12.7-3.2-19.4-3.1-26.8.6-61.7,20.2-86.4,30.7,6.1-5.4,13.2-9.8,19.5-15.1,10.3-8.7,19-18.7,27.8-28.7,15.4-17.5,20.6-32.8,24-55.6.8-5.7.9-12.6,3.3-17.9,3-6.7,7.6-12.8,11.1-19.2,7.2-13.1,13.6-26.8,20-40.4,2.8-6.1,6.2-12.2,8.4-18.5-13,18.5-27.7,36-41.1,54.2.2-17.2-2.4-34.1-6.2-50.8,14.6-14.2,31.1-26.7,47.7-38.3,5-3.5,10-7.3,15.3-10.3v-.2h0Z"/>
      <path class="cls-15" d="M604,187.2c9.3,2.1,18.3,6,27,9.6,35.6,14.8,67.1,34.3,96.8,58.7,19,15.6,36.2,34.3,51.1,53.8,44.1,57.5,67.7,122.6,74.8,194.4-4.7.9-9.1,2.2-13.6,3.5-5.6,1.9-11.2,3.7-16.8,5.4-2.5-34.3-9-66.7-20.8-99-29.4-80.3-86-140.4-161.5-179.4-5.9-3-11.8-5.9-18-8.3-8.5-3.2-17.5-5.8-25.7-9.6l-.8-.4c3.9-9.5,6-18.7,7.5-28.8h0Z"/>
      <path class="cls-15" d="M420,186.1c1.8,2.7,1.4,9.2,2.2,12.6,1.4,5.7,3.9,11.2,6.4,16.5-42.7,14-82.7,35.2-116.5,65-1.7,1.4-3.3,2.9-4.9,4.4s-3.2,3-4.8,4.5c-1.6,1.5-3.2,3-4.7,4.6-1.6,1.5-3.1,3.1-4.6,4.7s-3,3.2-4.5,4.8c-1.5,1.6-3,3.2-4.4,4.9-1.5,1.6-2.9,3.3-4.3,5s-2.8,3.4-4.2,5.1c-1.4,1.7-2.8,3.4-4.1,5.1-1.4,1.7-2.7,3.5-4,5.2-1.3,1.8-2.6,3.5-3.9,5.3s-2.6,3.6-3.8,5.4c-1.3,1.8-2.5,3.6-3.7,5.5-1.2,1.8-2.4,3.7-3.6,5.5-1.2,1.9-2.3,3.7-3.5,5.6-1.1,1.9-2.3,3.8-3.4,5.7-1.1,1.9-2.2,3.8-3.2,5.7-1.1,1.9-2.1,3.9-3.1,5.8s-2,3.9-3,5.9-1.9,3.9-2.9,5.9c-.9,2-1.9,4-2.8,6s-1.8,4-2.6,6c-.9,2-1.7,4.1-2.5,6.1s-1.6,4.1-2.4,6.1c-.8,2.1-1.5,4.1-2.3,6.2-.7,2.1-1.4,4.2-2.1,6.2-.7,2.1-1.4,4.2-2,6.3-.6,2.1-1.3,4.2-1.9,6.3-.6,2.1-1.2,4.2-1.8,6.4-.6,2.1-1.1,4.3-1.6,6.4s-1,4.3-1.5,6.4-.9,4.3-1.4,6.5c-3.4,17.6-4.7,35.5-5.8,53.3-5.2-1.9-10.4-4-15.6-6-4.6-1.8-9.5-3.1-14.2-4.5,3.5-49.6,15.6-97.1,38.2-141.5,1.2-2.3,2.4-4.5,3.6-6.8,1.2-2.2,2.5-4.5,3.7-6.7,1.3-2.2,2.6-4.4,3.9-6.6,1.3-2.2,2.7-4.4,4-6.5,1.4-2.2,2.8-4.3,4.2-6.4s2.8-4.2,4.3-6.4c1.5-2.1,2.9-4.2,4.4-6.3,1.5-2.1,3-4.1,4.6-6.2,1.5-2,3.1-4.1,4.7-6.1,1.6-2,3.2-4,4.8-6s3.3-3.9,5-5.8,3.4-3.8,5.1-5.7c1.7-1.9,3.5-3.8,5.2-5.6,1.8-1.9,3.5-3.7,5.3-5.5s3.6-3.6,5.5-5.4c1.8-1.8,3.7-3.5,5.6-5.3s3.8-3.5,5.7-5.1c1.9-1.7,3.8-3.4,5.8-5,1.9-1.7,3.9-3.3,5.9-4.9,2-1.6,4-3.2,6-4.8s4.1-3.1,6.1-4.6c2.1-1.5,4.1-3,6.2-4.5s4.2-2.9,6.3-4.4c2.1-1.4,4.3-2.8,6.4-4.2s4.3-2.7,6.5-4.1c2.2-1.3,4.4-2.7,6.6-3.9,2.2-1.3,4.4-2.6,6.7-3.8,2.2-1.2,4.5-2.5,6.7-3.7,2.3-1.2,4.5-2.4,6.8-3.5s4.6-2.3,6.9-3.4c2.3-1.1,4.6-2.2,7-3.2,2.3-1,4.7-2.1,7-3.1,10.7-4.5,21.7-7.9,32.7-11.5h-.4Z"/>
      <path class="cls-50" d="M440.9,180.4c-.6-1.8-.5-4-.6-5.9-.3-9.8,1.3-19.3,5.4-28.2,8.2-17.7,23.6-32.8,42.1-39.4,18.6-6.6,38.6-4.7,56.2,3.8,16.5,7.9,29.9,24.3,36,41.4,2.7,7.8,6.2,26.5,3.3,34.3l-.4-1c-1.8,2.6-2.3,7.6-3.5,10.7-1.4,3.8-3,7.4-4.7,11-9.6,20-25.8,41.5-47.6,49.1-10.4,3.6-21.8,3.7-31.8-1.2-23.3-11.5-40-32.3-48.9-56.5-2.3-6.2-3.2-12.4-5.3-18.6l-.4.4h.2,0Z"/>
      <path class="cls-15" d="M129.8,744.2h1.7c96.4-4.4,203.7,30.9,280.3,89.1,18.1,13.8,34.9,28.9,51.3,44.6,8.8,8.4,17.3,17.3,26.4,25.5-7.7-2-15.6-3.2-23.4-4.7-18.8-3.7-37.8-7.2-56.4-11.7-3.9-.9-7.7-1.9-11.5-2.9s-7.6-2.1-11.5-3.2c-3.8-1.1-7.6-2.3-11.4-3.5s-7.5-2.4-11.3-3.7c-3.7-1.3-7.5-2.6-11.2-4s-7.4-2.8-11.1-4.3-7.3-3-11-4.6c-3.6-1.6-7.3-3.2-10.9-4.8-3.6-1.7-7.2-3.3-10.7-5.1-3.6-1.7-7.1-3.5-10.6-5.4-3.5-1.8-7-3.7-10.5-5.6-3.5-1.9-6.9-3.9-10.3-5.9s-6.8-4-10.2-6.1c-3.4-2.1-6.7-4.2-10-6.4-3.3-2.2-6.6-4.4-9.9-6.6s-6.5-4.5-9.7-6.9c-12.2-8.9-22.8-19.8-34.8-28.8l-.7-.5c7,9.6,20,22,28.7,30.6,49.8,50,120.9,86.3,189.9,100.7,12.3,2.6,24.8,4.7,37.3,6.2,6.2.7,12.9.4,19,1.6-7.7,1.3-15.5,1.5-23.2,1.9-7.8.4-15.5.5-23.3.5s-15.5-.3-23.3-.8-15.5-1.2-23.2-2.2c-7.7-.9-15.4-2.1-23.1-3.5-2.5-.4-5-.9-7.5-1.4l-7.5-1.5c-2.5-.5-5-1.1-7.5-1.6-2.5-.6-5-1.1-7.5-1.8-2.5-.6-5-1.2-7.4-1.9-2.5-.6-4.9-1.3-7.4-2s-4.9-1.4-7.4-2.1c-2.4-.7-4.9-1.5-7.3-2.2-2.4-.8-4.9-1.5-7.3-2.4-2.4-.8-4.8-1.6-7.3-2.5-2.4-.8-4.8-1.7-7.2-2.6-2.4-.9-4.8-1.8-7.2-2.7-2.4-.9-4.8-1.9-7.1-2.8-2.4-1-4.7-1.9-7.1-2.9s-4.7-2-7-3-4.7-2.1-7-3.2c-2.3-1.1-4.6-2.2-6.9-3.3-2.3-1.1-4.6-2.2-6.9-3.4-2.3-1.1-4.6-2.3-6.8-3.5-2.3-1.2-4.5-2.4-6.8-3.6-2.2-1.2-4.5-2.5-6.7-3.7-2.2-1.3-4.4-2.5-6.6-3.8-2.2-1.3-4.4-2.6-6.6-3.9-2.2-1.3-4.4-2.7-6.5-4-2.2-1.4-4.3-2.7-6.4-4.1-2.1-1.4-4.3-2.8-6.4-4.2-2.1-1.4-4.2-2.9-6.3-4.3-2.1-1.5-4.2-2.9-6.2-4.4-2.1-1.5-4.1-3-6.2-4.5-2-1.5-4.1-3.1-6.1-4.6-2-1.6-4-3.1-6-4.7s-4-3.2-5.9-4.8c-12.2-10.1-24-20.4-35-31.8-9.2-9.6-19.4-19.1-27-30,16.4-3.5,33.7-5,50.5-6v-.2h.1Z"/>
      <path class="cls-15" d="M858.2,744.2c22.5-2,64.3.7,86.4,5.5-18,22.8-39.2,44.4-61.7,62.9-2.9,2.4-5.8,4.8-8.8,7.2s-6,4.7-9,7-6.1,4.5-9.2,6.7c-3.1,2.2-6.2,4.4-9.3,6.5s-6.3,4.2-9.5,6.3-6.4,4.1-9.6,6c-3.2,2-6.5,3.9-9.8,5.8-3.3,1.9-6.6,3.7-9.9,5.6-3.3,1.8-6.7,3.6-10,5.3-3.4,1.7-6.8,3.4-10.2,5.1-3.4,1.6-6.8,3.3-10.3,4.8s-6.9,3.1-10.4,4.6-7,2.9-10.5,4.3-7.1,2.7-10.6,4c-3.6,1.3-7.1,2.6-10.7,3.8-3.6,1.2-7.2,2.4-10.8,3.5s-7.2,2.2-10.9,3.3c-3.6,1-7.3,2-11,3s-7.3,1.9-11,2.7c-3.7.9-7.4,1.7-11.1,2.4-3.7.8-7.4,1.5-11.2,2.2-3.7.7-7.5,1.3-11.2,1.9-3.7.6-7.5,1.1-11.2,1.6-3.8.5-7.5.9-11.3,1.3-3.8.4-7.5.8-11.3,1.1s-7.6.6-11.3.8c-3.8.2-7.6.4-11.4.5-3.8,0-7.6.2-11.4.2h-11.4c-3.8,0-7.6-.2-11.4-.3-3.8-.2-7.6-.4-11.3-.6-3.8-.2-7.6-.5-11.3-.9,14-1.4,27.8-1.8,41.7-4.3,62.5-11.1,132-41.8,180.9-82.5,14.6-12.4,29.3-25.6,41.7-40.3,1.8-2.1,3.8-4,5.4-6.3.4-.5.3-.2.2-.9-5.5,4.5-10.5,9.6-16.2,14-61.6,47.4-129.5,78.1-205.3,94.9-19.4,4.3-39.5,6.5-59.1,10.4,22.5-21.3,44.6-42.7,69-61.9,2.3-1.8,4.5-3.6,6.8-5.4,2.3-1.8,4.6-3.5,6.9-5.2,2.3-1.7,4.7-3.4,7-5.1,2.4-1.7,4.7-3.3,7.1-5,2.4-1.6,4.8-3.2,7.2-4.8s4.9-3.1,7.3-4.7c2.5-1.5,4.9-3,7.4-4.5s5-2.9,7.5-4.4c2.5-1.4,5-2.8,7.6-4.2,2.5-1.4,5.1-2.7,7.7-4.1,2.6-1.3,5.1-2.6,7.7-3.9,2.6-1.3,5.2-2.5,7.8-3.8,2.6-1.2,5.2-2.4,7.9-3.6,2.6-1.2,5.3-2.3,7.9-3.5,2.7-1.1,5.3-2.2,8-3.3s5.4-2.1,8.1-3.2c2.7-1,5.4-2,8.1-3,2.7-1,5.5-1.9,8.2-2.8,2.7-.9,5.5-1.8,8.2-2.7,2.8-.9,5.5-1.7,8.3-2.5s5.6-1.6,8.3-2.4c2.8-.8,5.6-1.5,8.4-2.2,2.8-.7,5.6-1.4,8.4-2,2.8-.7,5.6-1.3,8.5-1.9,2.8-.6,5.7-1.2,8.5-1.7s5.7-1.1,8.5-1.5,5.7-.9,8.6-1.4c2.9-.4,5.7-.8,8.6-1.2,2.9-.4,5.7-.7,8.6-1,2.9-.3,5.8-.6,8.6-.9,2.9-.3,5.8-.5,8.6-.7,2.9-.2,5.8-.4,8.7-.5h.3Z"/>
      <path class="cls-50" d="M692.2,591.7c9.3-.7,18.9.2,27,5.3.4.3.8.5,1.2.8s.8.6,1.2.9c.4.3.8.6,1.1.9.4.3.7.6,1.1,1s.7.7,1,1c.3.4.7.7,1,1.1.3.4.6.7.9,1.1.3.4.6.8.9,1.2.3.4.5.8.8,1.2s.5.8.7,1.2.5.9.7,1.3c.2.4.4.9.6,1.3.2.4.4.9.5,1.3.2.5.3.9.5,1.4,0,.5.3.9.4,1.4,0,.5.2.9.3,1.4,2.3,10.6-1.4,22.6-7.3,31.5-8.1,12.3-22,19.9-34.6,26.7-4.3,2.4-8.6,4.6-13,6.8s-8.8,4.3-13.3,6.3-9,4-13.5,5.8-9.1,3.6-13.7,5.3c-4.6,1.7-9.2,3.2-13.9,4.7s-9.4,2.9-14.1,4.2c-4.7,1.3-9.5,2.5-14.2,3.6-4.8,1.1-9.6,2.1-14.4,3.1-22.3,4.5-45.7,7.6-68.5,7.5-11.5,0-22.9-1.3-34.4-2.7-54.4-6.6-110.8-24.4-156.6-54.8-9.9-6.6-19.5-14.7-25-25.4-4-7.6-6-16.4-3.1-24.7,2.5-7.3,7.7-13.1,14.6-16.5,7.7-3.8,16.8-4.1,25.1-2.8,17.6,2.7,35.5,10.7,52,17.2,17.2,6.7,34.1,14.1,51.2,21,10.9,4.4,22.1,8.3,32.9,12.8,14.7,6.2,29.1,13.7,44.1,18.9,15-4.5,31.1-13.3,45.9-19.3,20.1-8.2,40.7-15,60.5-23.8,21.6-9.7,50-26.6,73-29.2h.4,0Z"/>
      <path class="cls-15" d="M211.5,729.2c-11.9-12.3-23.7-25-34.4-38.4-31.3-39.1-53-83-70.8-129.5-5.7-15.1-15-40.7-17.4-56.2-.2-1.3-.6-2.4.2-3.6.7-.1,1.2-.2,1.9-.3,7.5,0,22.9,4.5,30.4,6.4,50.1,12.9,98.8,31,143.3,57.5,9.9,5.9,19.9,11.6,28.4,19.3-1.3,1-2.5,2.1-3.8,3.2-8.8,7.9-13.7,20.1-14.3,31.8-.6,13.5,4.1,27.2,12.3,37.9,4,5.2,8.9,9.9,13.3,14.8-10.7-4.8-21.1-10.9-31.3-16.7-47.9-27.3-90.4-61.1-130.6-98.7-5.6-5.2-11-10.6-16.2-16.1-3.7-3.9-7.1-8.1-11.1-11.7v.6c8,9.9,16.1,19.6,24.3,29.3,11.2,13.3,22.3,26.5,34.6,38.8,4.3,4.2,8.7,8.4,13.2,12.5s9,8.1,13.6,12,9.3,7.8,14,11.6,9.5,7.5,14.4,11.1,9.8,7.1,14.8,10.6c5,3.4,10,6.8,15.2,10,5.1,3.3,10.3,6.4,15.5,9.5,5.2,3.1,10.5,6.1,15.8,8.9,13.6,7.5,27.4,14.9,41.8,20.8,23.4,9.5,47.4,15.9,72.2,20.5,6.7,6.3,13.6,13.5,19.2,20.8,8.8,8.7,16.6,19.3,23.7,29.4,26.1,37.1,41,70.9,53,114.4-.1,0-.2-.2-.3-.3-4.3-4.2-7.9-9.4-11.8-14-7.2-8.5-14.9-16.8-22.8-24.7-22.2-22.2-48.3-41.2-74.6-58.3-4.8-3.1-9.8-5.7-14.6-8.8-5-1.7-11.2-5.8-16.2-8.4-8.5-4.3-17.1-8.2-25.9-11.8-24.4-10-48.8-18.5-74.4-24.9-14.8-3.7-29.9-6.5-44.8-9.5l.2.2h0Z"/>
      <path class="cls-15" d="M728.3,582.1c7.6-5.5,16.8-9.9,25.1-14.5,14.8-8.1,30-16.1,45.5-23,11.9-5.3,24.3-9.8,36.4-14.6,26.6-10.5,53.8-20.3,82-25.9,4.4-.9,11.2-3.5,15.5-2.6,1,.2,1.5.5,2.2,1.2.2,7.4-5.9,28.4-8.4,36.6-1.3,4.3-2.6,8.5-4,12.8-1.4,4.2-2.9,8.5-4.4,12.7s-3.1,8.4-4.8,12.5-3.4,8.3-5.1,12.4c-1.8,4.1-3.6,8.2-5.5,12.3s-3.8,8.1-5.8,12.1-4.1,8-6.2,11.9c-2.1,3.9-4.3,7.9-6.5,11.7-2.2,3.9-4.5,7.7-6.8,11.5s-4.7,7.6-7.2,11.3c-2.4,3.7-4.9,7.5-7.5,11.1-2.5,3.7-5.1,7.3-7.8,10.9-2.7,3.6-5.4,7.2-8.1,10.7-2.8,3.5-5.6,7-8.4,10.5-2.9,3.4-5.8,6.8-8.7,10.2-3,3.4-5.9,6.7-9,10-1.3,1.4-2.7,2.8-4.1,4.2-20.9,2-41.8,6.8-62,12.4-15.7,3.7-32.2,10.5-47.1,16.6-11.2,4.6-22.4,9.3-33.2,14.7-56.2,28.2-105.6,68.8-146.8,116.1,2.8-10.9,5.6-22.1,9.4-32.7,17.9-50.6,48.7-92.8,86.5-130.3,25.5-5,49.8-12.7,74-22.2,11.6-3.8,23.1-10.1,33.9-15.7,3.8-2,7.6-4,11.3-6.1s7.4-4.2,11.1-6.4c3.7-2.2,7.3-4.4,11-6.7,3.6-2.3,7.2-4.6,10.8-7s7.1-4.8,10.6-7.2c3.5-2.5,7-5,10.4-7.5s6.8-5.1,10.2-7.8c3.4-2.6,6.7-5.3,10-8s6.6-5.5,9.8-8.3,6.4-5.7,9.5-8.6c3.1-2.9,6.3-5.8,9.3-8.8,3.1-3,6.1-6,9.1-9.1s5.9-6.2,8.8-9.3c2.9-3.1,5.8-6.3,8.6-9.5s5.6-6.5,8.3-9.7c2.7-3.3,5.4-6.6,8.1-10,5.6-7.1,12.3-14.7,16.6-22.6-.7,0-6.9,7.4-7.9,8.5-7.3,8.1-15.1,15.9-23.2,23.2-8.6,7.9-17.3,15.6-26.3,23.1s-18.1,14.7-27.5,21.6c-9.4,7-18.9,13.7-28.6,20.1-9.7,6.5-19.6,12.7-29.7,18.6-8.1,4.8-16.8,10.6-25.4,14.5l-.9.4c-1.6,0-2.8.6-4.3.6.5-1,1.1-2,1.5-3.1l.3-.8c10.6-12.7,17.7-29.1,16.1-46-1.6-16.8-9.4-22.7-20.7-33.4v.4h0Z"/>
      <path class="cls-50" d="M485.6,282.1c5.8,3.1,11.5,6.3,17.9,7.9,12.5,3,22.9-.8,33.5-7.3,1.8,4.6,3.6,9.2,6.5,13.3,11.5,16.1,35.1,19.6,51.9,27.9,32.7,16.3,51.8,46.1,63,79.8,2.3,6.8,4.2,13.7,5.8,20.8,1.6,7,2.8,14.1,3.7,21.2,3.1,26.1,1.9,66-10.1,89.4-7.2,14.1-20.9,25.8-32.6,36.3-22.9,20.5-54.3,46.3-83.8,56.1-17,5.9-41.1,5.5-58.4.9-36-9.4-97.1-62.7-115.8-95-13.1-22.6-15.1-56.9-12.2-82.5,1.3-11.8,3.9-23.8,7-35.3,8.7-32.2,30.3-71.2,60.3-87.4,13.9-7.5,29.6-11.8,43.2-19.7,10.6-6.2,16.9-14.7,20-26.5h0Z"/>
      <path class="cls-46" d="M529.8,589.7l5.4-.5c2.7,1.4,5,2.8,6.7,5.5,1.8,2.9,2.1,6.8,1.3,10-1,4-4,6.7-7.5,8.7-11.8,6.7-27.7,6.3-40.4,2.8-2.9-1-5.9-2.3-8.4-4-3-2-5.4-4.7-6-8.3-.5-3.1.3-7.2,2.2-9.8,5.5-7.4,20.2-2.2,28-2.3,6.3,0,12.4-1.1,18.6-2h0Z"/>
      <path class="cls-46" d="M415.7,400.8c1.2,1,1.7,2.8,2.3,4.3,12.7,33.1,29.7,84.1,28.4,119.7-.4,10.1-2.3,19.8-6.4,29.1l-5.7-5.7c-12.3-13.1-27.5-30.5-34.1-47.2-2.1-5.4-3.1-11-3.3-16.8-.7-22.9,9.6-61.9,18.8-83.4h0Z"/>
      <path class="cls-46" d="M607.5,402.8c3.1,4.5,6,13.2,8.1,18.5,8.2,21.3,19.2,58.6,9.6,80-9.6,21.4-34.9,52.4-53.4,66.6-1.6,1.3-3.3,2.5-5,3.6s-3.5,2.2-5.3,3.2-3.6,1.9-5.5,2.8c-1.9.9-3.8,1.7-5.7,2.4-23.7,8.9-52.1,9.6-75.4-.9-9.2-4.3-16.9-9.9-24.4-16.7,36.2,5.1,85.8,8.6,120.7-3.2.9-14.4,3.4-29.1,5.9-43.4,5.1-29.3,11.6-57.4,20.7-85.7,2.9-9.1,5.5-18.7,9.7-27.2h0Z"/>
      <circle class="cls-11" cx="512.6" cy="411" r="10.1"/>
      <path class="cls-3" d="M514.8,357.2c5.4.4,10.7,1.7,15.6,4,.7-.2,3.1,1.1,3.4,1.8,25.2,13.8,29.6,50.1,6.9,68.5-19.2,17.3-51.1,12.7-65-8.9-.6,0-2.1-2.9-2.1-3.5-1.6-3.1-2.9-6.3-3.7-9.7-2.5-10.2-.9-21.1,4.5-30.2.3-1.1,1-2.3,1.9-2.9,3.3-4.7,7.4-8.7,12.2-11.8,2.1-1.3,4-3.3,6.5-3.6,4.6-2,9.5-3.1,14.5-3.5,1.5-.6,3.7-.5,5.3,0Z"/>
      <path class="cls-6" d="M530.9,361.8c.8.3,1.5.7,2.2,1.2.3.5.7,1,1.2,1.3,1.9,1.2,3.7,2.5,5.4,4,2.7,2.3,5,5.1,7.3,7.7.9.7,1.7,1.5,2.2,2.5,1.1,3.9,3.3,7.5,4.2,11.5.6,2.1.8,4.2,1,6.3,0,.4,0,1.2.7.9.2,1.3,0,2.5-.4,3.7-.8,5.4-1.3,10.8-3.9,15.7-1.1,1.7-.9,3.9-2.4,5.3-1.1.8-1.8,1.9-2.7,3-3.3,4.1-7.3,7.4-11.8,10.2-1.4,1.2-2.8,2.5-4.7,2.6-4.5,1.5-9.1,2.8-13.9,3.3-1.6.3-3.1,1-4.6.2-2.2-.7-4.6-.6-6.9-1.2-3.2-.5-6-2.1-9.1-2.5-2.9-.2-4.6-3-7.1-4.3-3.9-2.8-7.4-6.1-10.1-10-1.2-1.4-2.9-2.5-3.2-4.6-2.2-5.4-4.1-10.8-4.5-16.7-.5-1.8-.8-3.5-.5-5.3.5,0,.2.4.3.6.9-4,1.2-8.2,3-12,.7-2.2,2.3-4.2,2.5-6.5.7-1.9,2.6-2.6,3.7-4.2,1.2-1.6,2.5-3,4-4.3,2.6-2.9,6.3-4.5,8.9-7.3,1.3-1,2.8-1.3,4.3-1.5,1.7-.6,3.5-1.2,5.2-1.7,3.1-.9,6.3-1,9.4-1.9.1,0,.3,0,.3-.2,2-.5,3.6.7,5.5.9,4.1.5,8.1,1.4,11.9,3,.8.3,1.6.5,2.5.4Z"/>
      <path class="cls-50" d="M469.3,400c.5.3.7.8.8,1.5.2,3,.8,5.9,1.5,8.8.6,2.4,1.5,4.7,2.5,6.9.7,1.1.3,2.6,1.2,3.5,2.7,2.3,4.4,5.5,7.1,7.9,1.9,1.8,3.8,3.5,6,4.9,1.4,1,3,1.9,3.9,3.4-13.5-7-23.3-21.4-23.1-36.8Z"/>
      <path class="cls-50" d="M532.2,436.7c1.3-2,3.9-2.9,5.7-4.5,2.4-1.9,4.7-3.9,6.7-6.2,1.1-1.2,1.9-2.8,3.3-3.8.9-.5,1.4-1.3,1.5-2.2,1.5-4.7,4-9,4.4-14.1.4-1.9,0-4,1-5.8.3-.3.2-.8.4-1.2.8,15.7-9.1,29.7-22.3,37.4-.2.1-.5.2-.7.3Z"/>
      <path class="cls-50" d="M493,437.1c3,0,5.7,1.4,8.6,2.2,3.2,1.1,6.8.7,9.9,2,.6.3,1.2.3,1.8,0,1.1-.6,2.4-.7,3.6-.8,3.8-.4,7.6-1.3,11.2-2.7.9-.4,1.9-.2,2.8-.4-11.8,6.3-25.9,4.9-37.9-.2Z"/>
      <path class="cls-50" d="M491.7,362.9c-.2,1.7-6.1,4.6-7.7,6.5-1.7,1.6-3.4,3.2-4.8,5-.8.9-1.4,2.3-2.8,2.3,3.9-5.8,9.2-10.6,15.3-13.8Z"/>
      <path class="cls-50" d="M475.1,378.7c.8,1.2-.8,2.7-1.1,3.9-1.8,4-3.2,8.2-3.6,12.7-.1.9-.2,1.9-.9,2.6-.2-6.8,2.2-13.4,5.7-19.2Z"/>
      <path class="cls-50" d="M555.1,397.2c0,2-1,.1-.9-.7-.3-3.2-.8-6.3-1.9-9.2-.7-3-3-5.6-3.1-8.7,3.5,5.6,5.5,12.1,5.9,18.7Z"/>
      <path class="cls-50" d="M548.2,377c-1.2-.3-1.8-1.3-2.5-2.1-3.2-4-7-7.5-11.3-10.2-.6-.3-1.3-.9-1.2-1.6,6.1,3.3,11.3,8.2,15.1,14Z"/>
      <path class="cls-50" d="M530.9,361.8c-1.3.9-2.7-.3-3.9-.7-3.7-1.4-7.5-2.1-11.3-2.6-.8-.1-1.6-.3-2.1-1,6,.1,12,1.6,17.4,4.3Z"/>
      <path class="cls-50" d="M511,357.6c.9.7-4.8,1.3-5.5,1.5-3.2.5-6.4,1.5-9.4,2.6-.6.2-1.1.3-1.7-.1,5.2-2.5,10.9-3.8,16.6-4Z"/>
      <path class="cls-52" d="M494.4,437.8c3.4.3,6.6,2.3,10,2.6,2.1.5,4.4.4,6.4,1.2,0,0,0,0-.1,0-5.6-.2-11.2-1.5-16.3-3.8Z"/>
      <path class="cls-24" d="M532.9,436.3c1.6-1.8,4.1-2.7,5.9-4.3,2.3-1.9,4.6-3.8,6.3-6.2,1.4-.8,1.6-2.7,3.1-3.4-3.9,5.8-9.2,10.7-15.4,14Z"/>
      <path class="cls-6" d="M510.7,441.6c1-.1,2.1,0,3.2,0-1.1,0-2.1.1-3.2,0Z"/>
      <path class="cls-4" d="M545.3,375.1c.7,1.6,2.8,2,3.3,3.7.3,1.7,1.1,3.2,1.8,4.8,2.2,4.5,2.8,9.5,3.7,14.3.6.6.5,1.4.2,2-.5,1.2-.6,2.4-.7,3.7-.2,2.2-.6,4.4-1.2,6.6-.7,3.3-2.6,6.1-3.4,9.3,0,1.6-1.5,2.1-2.4,3.2-2.7,3.8-5.9,7.1-9.7,9.7-1.4,1.1-3.1,2-4.4,3.2-1.1,2-3.6,1-5.3,2-4.4,2-9.2,1.9-13.7,3.2-.6.4-1.3.4-1.9,0-4.4-1.5-9.2-1.2-13.5-3.2-1.7-1-4-.3-5.4-1.6-4.7-4.1-10.4-7.2-13.9-12.6-1-1.8-3.5-2.7-3.6-4.9-.9-3.2-2.6-6.1-3.3-9.4-.7-2.5-1-5.1-1.3-7.7-.3-1.3-1.1-2.5-.3-3.9,1.2-4.5,1.4-9.1,3.6-13.4.5-1.2,1-2.5,1.7-3.6.4-1.2.2-2.9,1.6-3.4.7-.4,1.3-.9,1.8-1.5,3.3-4.2,7.3-7.7,11.8-10.6.8-.5,1.2-1.2,1.8-1.9,1.2-1.5,3.3-.4,4.8-1.3,3.9-1.5,8-2.2,12.1-2.8,1.5-.2,2.8-1.8,4.3-.6,4,1.5,8.6,1.3,12.7,3.1,1.3.4,2.5,1.2,3.9,1.1,1.3-.1,2.2.4,2.7,1.6,1,1.2,2.6,1.8,3.9,2.8.2.4-.4.8-.7.5-1.2-1-2.8-1.6-3.8-2.9-.9-1.7-3.1-.9-4.6-1.7-4.2-1.7-8.6-2.5-13.1-3.2-1-.1-1.8-1.3-2.9-.7-2.2,1-4.6,1-6.9,1.5-2.9.6-5.8,1.4-8.5,2.5-1.4.3-3,0-3.9,1.4-.7.9-1.6,1.5-2.5,2.1-4.1,2.7-7.7,6-10.7,9.9-.4.6-.9,1.1-1.6,1.4-.6.3-1,.9-1.1,1.5-.1,1.3-.8,2.4-1.3,3.5-2.4,4.6-3.2,9.6-4.2,14.6-.4,1-.5,2,0,3.1.6,2.9.7,5.9,1.6,8.7.6,3.1,2.3,5.9,3.2,9,.3,2.5,3,3.5,4.1,5.7,3.1,4.6,7.9,7.5,12.2,10.9,1.2,1.6,3.2,1.4,4.9,1.9,3.2,1.1,6.4,2.1,9.8,2.5,1.5.3,3,.2,4.5.8.8.3,1.5.4,2.3,0,3.8-.9,7.9-.9,11.6-2.4,1.3-.4,2.5-1.2,3.9-1.3,1,0,1.9-.3,2.6-1.1,3.6-2.9,7.6-5.2,10.7-8.6,1.7-1.7,2.8-3.9,4.6-5.4,1.2-.9,1.1-2.5,1.8-3.8,1-1.9,1.9-3.9,2.5-6,1.4-3.8,1.3-7.9,2.1-11.9-.6-3.4-.9-7.1-2-10.6-.9-3.2-2.5-6.1-3.6-9.2.2-1.2-4.8-4.5-2.6-4.5Z"/>
      <path class="cls-6" d="M545.3,375.1c-.4.4-.7.5-1,0-.8-.9-1.6-1.9-2.5-2.8-1.6-1.6-3.2-3.1-5-4.4-.6-.2-.3-.5,0-.9,3.2,2.3,5.9,5.1,8.4,8.1Z"/>
      <path class="cls-18" d="M536.6,367.4c4,2.8,7,6.7,10.3,10.2.5.4.9,1,1.1,1.6,2.2,5.6,4.8,11,5.2,17.2-.1,1.2,1,2.3.5,3.5-.5,1.5-.5,3.2-.7,4.7-.4,5.3-2.7,9.9-4.5,14.7-.2,1.5-1.7,2.2-2.5,3.3-2.6,3.6-5.7,6.8-9.3,9.3-1.4,1-2.7,2-4.1,3-.8.7-1.5,1.7-2.7,1.6-1.3,0-2.4.5-3.6,1-4.1,1.8-8.6,1.7-12.8,2.8-.5.3-1.2.3-1.7,0-1.7-.7-3.5-.7-5.3-1-2.8-.4-5.6-1.1-8.3-2.1-1.9-.9-4.4-.4-5.9-2.1-4.5-3.7-9.7-6.7-12.9-11.7-1.1-1.9-3.6-2.9-3.8-5.3-2-5.2-4-10.4-4.4-16,0-1.5-1.1-2.9-.4-4.3.4-1.1.6-2.2.7-3.3.5-5.5,3.3-10.3,5-15.4.1-.8.6-1.5,1.5-1.8,2.1-1.6,3.4-4.1,5.5-5.9,1.9-1.9,4-3.5,6.1-5,1.1-.8,2.3-1.5,3.2-2.7.4-.6,1.1-1,1.7-.9,4.5-.6,8.6-2.8,13.2-3.1,1.4-.2,2.8-.4,4.1-1,.7-.3,1.4-.2,2.1.2.9.6,1.9.6,2.9.8,4.9.3,9.2,2.6,13.9,3.4,1.3,0,1.9,1,2.6,1.9,1.2.8,2.3,1.6,3.5,2.3Z"/>
      <path class="cls-46" d="M552.3,400.1c0,31.6-37.6,49.7-62.9,31.6-30.3-20.9-18.2-65.5,17.5-70.8,23-3.5,46.1,15.7,45.4,39.2Z"/>
      <path class="cls-9" d="M510.1,363.6c.8-.1,1.6.4,2.4.3.6,0,1.3-.2,1.9-.2,2.8,0,5.4.5,8.1,1.3,2.8.7,5.1,2.2,7.6,3.5,2.1,1,4,2.2,5.8,3.7,2.9,2.4,5.7,5.1,7.5,8.4,1.5,2.3,3.2,4.5,4,7.1,2.6,7.3,3.1,15.4.5,22.8-2.5,7.1-7.1,13.4-13.1,17.9-1.6,1.2-3.3,2.2-5.2,3-1.9.9-3.6,2.2-5.7,2.8-2.2.8-4.5,1.3-6.9,1.5-2.2.4-4.3-.3-6.5,0-5.7.3-10.9-2.2-15.8-4.7-9.8-4.8-17-14.7-19.2-25.4-.8-5.1-.6-10.7.8-15.7,2.8-8.7,8.9-16.8,17.1-21.1,5.2-2.8,10.7-5.3,16.8-5.3Z"/>
      <path class="cls-36" d="M526.5,431.5c-4.2,2.2-9.3,3.4-14,2.7-.5,0-1,0-1.4.2-2.7.4-5.5-.4-8.1-1.1-2.7-.6-4.9-2.2-7.4-3.4-5.1-2.1-9.1-6.1-12.7-10.3-.3-.4-.7-.9-.8-1.4-.7-2.2-2.7-3.6-3.4-5.8-1.6-3.9-3.2-8.2-2.5-12.4.2-2.7-.2-5.5.7-8.2.8-4.1,2.8-7.7,5.2-11.1,1.1-2.6,3.2-4.3,5.1-6.2,2.7-2.6,6-4.6,9.4-6,3.5-2.1,7.4-3.3,11.5-3.7,1.7-.4,3.3.6,5,.3,4.3-.8,8.7.7,12.6,2.3,1.6.9,3.1,1.9,4.8,2.5,6.7,3.7,11.6,10.1,15,16.9,1.4,3.6,2.9,7.6,2.4,11.5-.3.8.3,1.5.3,2.3,0,2.8-.5,5.5-1.4,8.2-.4,0-.5,0-.4-.5.4-1.7.7-3.3,1-5,.6-1.9-.4-3.6,0-5.5.5-2.3-.6-4.6-1.2-6.8-1-3.2-2.1-6.4-4.4-8.9-1-1.7-2-3.4-3.4-4.7-.8-.8-1.3-1.9-2.3-2.5-2.4-2.4-5.3-4.1-8.4-5.5-2.6-1.8-5.7-2.8-8.8-3.4-2-.5-4.1-.7-6-.1-.6-.2-1.3,0-1.9-.2-.8-.5-1.7-.3-2.6-.2-2,.1-3.9.6-5.8,1.2-1.2.4-2.5.7-3.6,1.3-4.2,2.2-8.5,4.1-11.7,7.6-1.5,1.6-3.5,2.9-4.3,5-.1.6-1,1.1-.8,1.8-.4.4-.8.8-1,1.3-.7.2-.4.9-.7,1.3-.9.7-1,1.8-1.4,2.8-1.3,2.7-1.9,5.8-2.2,8.8-.2,1.2.4,2.5,0,3.6-.8,3.8,2.1,13,5,15.7.3.1.6.6.7.9,0,1.1.7,1.8,1.3,2.6.1.6.6,1.1,1.1,1,.3,0,.6.3.5.6.1.3.5.5.6.8.3.5.6,1,1.3,1.1.6.2.6,1.1,1.2,1.3.3,0,.4.2.6.3.2,0,.2.2.2.4.2.4.6.5.9.6.9.8,1.9,1.4,2.9,2,0,.4.4.4.5.6.2.3.5.5.9.3,0,0,.3,0,.3.1.2.5.6.5,1,.6.9.6,2,.6,2.8,1.4.1.5.7.4,1,.7.5.4,1.2.5,1.8.7.6.5,1.4.4,2.1.7,1.3.6,2.7.8,4.1,1.1,1,0,2.5.6,3.3-.2.1,0,.3,0,.4,0,1.7-.1,3.4.7,5.1.1,2.6-.4,5.3-.7,7.7-1.8.7,0,1.9-1.4,2.2-.3Z"/>
      <path class="cls-40" d="M547.2,406.5c0,.8-.8,1.7-.2,2.4-2.3,6.8-6.6,13-12.2,17.6-2.4,2.2-5.6,3.2-8.3,5-.3-.3-.6-.2-.9,0-2,.9-4.1,1.8-6.3,1.9-.1-.3.2-.2.3-.3,3.3-.4,6.2-2.1,9.1-3.7,4.1-1.6,7.4-4.8,10.4-8,1.7-1.6,2.4-3.9,3.9-5.7.5-.6,1-1.2,1.1-2.1,0-.2.2-.5.3-.7,1.2-1.7,1.7-3.8,2.3-5.7.2-.2.2-.8.5-.6Z"/>
      <path class="cls-54" d="M489.2,424.9s0,0-.1,0c0,0-.1-.1-.2-.2h0c-.4-.3-.5-.8-1-.9-.2,0-.2-.2-.3-.3h0s0,0-.1-.1h0c-.8-.9-1.6-1.9-2.6-2.7-.2-.4-.8-.6-.8-1-.4-.7-1.2-1.3-1.2-2.2-.5-1.3-1.8-2.3-2.4-3.4-1.8-3.5-3.1-7.2-3.4-11.1,0-.8-.3-1.7,0-2.5.5-.7.4-1.5.3-2.3-.3-2.6.5-5.1.9-7.7.6-.9.6-2,1.2-2.9.6-1.9,1.5-3.7,2.9-5.3,1.6-3.4,4.3-5.9,7.1-8.3,5-4,11-6.9,17.2-8.2,1.7-.2,3.6-.6,5.3,0,1.7,0,3.4-.4,5.2-.1,5.6.4,10.6,3.4,15.4,6.1,3.9,2.6,7.1,6.2,9.6,10.2,1.3,1.5,2.3,3.3,3.2,5.2,1.1,3,2.3,6,2.5,9.2.2,1.1-.4,2.2,0,3.3.8,2.8-.2,5.9-1,8.7-.9,3.5-2.7,6.5-4.7,9.4-2.9,4.6-7.2,8.7-12.1,11.2-2.1.9-3.9,2.3-6,3-3.1,1.1-6.4,1.8-9.7,1.6-.8-.1-1.9-.5-2.6,0,0,0,0,0,0,0-3.9.3-7.9-1-11.5-2.5-1.7-.6-3.1-2-5-2.4,0,0,0,0,0,0-.6-.4-1.3-.8-1.9-1.2h0c0,0-.1,0-.2-.1h0s0,0-.1-.1h0c0,0-.1,0-.2-.1h0c0-.1-.2-.1-.3-.2h0s0,0-.1-.1h0s0,0-.1-.1c0,0,0,0-.1,0,0,0,0,0-.1-.1h0s0,0-.1-.1h0c0,0-.1,0-.2-.1h0s0,0-.1-.1h0c0,0-.1,0-.2-.1h0s0,0-.1-.1h0c0,0-.2-.1-.3-.2h0s0,0-.1-.1h0s0,0-.1-.1h0c-.4-.3-.6-.8-1.1-1Z"/>
      <path class="cls-31" d="M526.3,430.7c2-1.5,4.5-2.1,6.4-3.6,5.4-3.9,9.7-9.2,12.4-15.3,1.5-3.4,2.4-7.2,2.5-10.9-.3-1.1-.4-2.1-.2-3.3.2-3.7-1.3-7.3-2.6-10.7-3.6-6.8-8.8-13.5-16-16.8-4.6-2.6-10-4.9-15.3-4,.2-.9,1.8-.4,2.5-.5,4.2.3,8.4,1.5,12,3.8,6.3,2.5,11.2,7.7,14.7,13.4,1.9,2,2.7,4.7,3.6,7.3.8,2.5,1.6,5.1,1.5,7.7-.5.8-.3,1.7,0,2.5.1,2.3-.3,4.6-.9,6.9-3,10.3-10.6,19.7-20.7,23.5Z"/>
      <path class="cls-45" d="M478,407.9c.9,2.5,1.6,5.3,3.4,7.3.1.2.8,1,.5,1.1-3.5-4-4.7-9.5-5.3-14.7,0-.3-.1-.7,0-.9.4-.8.4-1.6.3-2.4,0-3,.3-6.4,1.6-9.1-.6,2.5-1.3,5.1-1.5,7.7,0,1.1.4,2.1,0,3.2-.8,1.9.4,5.7.8,7.8Z"/>
      <path class="cls-16" d="M510.1,365.8c-7.7,0-14.8,4-20.9,8.4,0,0,0,0,0,0,1.8-2,4.4-3.3,6.8-4.5,1.4-.5,2.6-1.4,4-2,1.6-.4,3.1-1.1,4.8-1.4.6-.3,1.4-.3,2-.5.2,0,.4,0,.6,0,.9-.2,1.9-.2,2.8-.2.2.2,0,.2,0,.3Z"/>
      <path class="cls-13" d="M499.9,367.6c-2.8,1.9-6.2,2.9-8.9,5-.5.2-1.2,1.1-1.7,1.1,3.1-2.7,6.9-4.4,10.5-6.1Z"/>
      <path class="cls-27" d="M483.2,380.9c-.4.5-.6,1.2-1.1,1.5.8-1.8,1.6-3.7,3.3-4.9,0,0,0,.1,0,.2h0c-.7,1-2,1.8-2.2,3.1Z"/>
      <path class="cls-16" d="M485.5,377.7c0,0,0-.1,0-.2.5-.6,3.1-3.6,3.7-3.3-1.2,1.2-2.5,2.4-3.7,3.5Z"/>
      <path class="cls-40" d="M547.6,396.5c0-.6-.2-1.2-.1-1.7.2,1.2.5,2.4,0,3.7-.2,1.3.7,2.6.2,3.9-.2-.7,0-1.4-.1-2-.9-1.3.2-2.5-.1-3.8Z"/>
      <path class="cls-31" d="M513.8,433.5c2.2.1,4.3-.3,6.4-.6,0,.3-.3,0-.4.2-.6.4-5.9,1.2-6,.4Z"/>
      <path class="cls-31" d="M499.7,431.1c1.7.7,3.5,1.2,5.3,1.8,0,0,0,0,0,0-.5.3-.9-.3-1.4-.2-.8-.5-1.9-.5-2.7-.9-.2-.2-1.3-.5-1.1-.8Z"/>
      <path class="cls-13" d="M547.7,400.3c.3,2.3,0,4.7-.8,6.9.4-2.3.9-4.6.8-6.9Z"/>
      <path class="cls-31" d="M482.5,417c.2,0,.3.2.4.4,0,1,1,1.5,1.2,2.4,0,0,0,0,0,0-.8-.7-1.4-1.7-1.6-2.8Z"/>
      <path class="cls-32" d="M513.8,433.5c1.1.4,2.4-.1,3.5.1-1.2.2-2.5.5-3.7.1-.3-.2-.9,0-1.3-.1-.3-.2-.7,0-1-.2,0,0,0-.1.1-.2.6-.2,1.2.3,1.8,0,.2,0,.4.1.5.2Z"/>
      <path class="cls-13" d="M514,365.7c-.1,0-.3,0-.4.1,1.5-.7,4-.2,5.6.2-1.7,0-3.4-.5-5.2-.3Z"/>
      <path class="cls-31" d="M485.4,421.1c.8.6,1.6,1.2,2,2.1-.6-.1-1.5-1.4-2-1.9,0,0,0,0,0,0,0,0,0,0,0-.1Z"/>
      <path class="cls-16" d="M480,385.7c0,.9-.5,1.8-1,2.5-.2-.2,0-.3,0-.4.3-.7.3-1.6.9-2.1Z"/>
      <path class="cls-45" d="M507.7,433.8c-.8-.1-1.5,0-2.2-.5.4-.3,1.8.2,2.5.3.2.2,1.3-.2,1.1.3-.4,0-.9,0-1.3,0Z"/>
      <path class="cls-31" d="M495.2,428.8c.7.2,1.7.4,2,1.1-.7-.2-1.2-.7-1.8-.8-.1,0-.3,0-.2-.3Z"/>
      <path class="cls-31" d="M506.6,433.4c-.5,0-1,0-1.4-.2,0-.1-.3,0-.2-.3.8.2,1.6.2,2.3.5,0,0,0,0,0,0-.2,0-.4,0-.7,0Z"/>
      <path class="cls-16" d="M478.2,390.6c0-.6.4-1.1.4-1.6.1-.2,0-.4.3-.5,0,.8-.2,1.5-.7,2.1Z"/>
      <path class="cls-13" d="M518.9,366c1.2.1,2.4.4,3.5.9-1.2-.3-2.4-.6-3.5-.9Z"/>
      <path class="cls-45" d="M514,433.8c.9,0,1.8-.1,2.6-.1-.9.3-1.7.4-2.6.1Z"/>
      <path class="cls-13" d="M537.8,376.5c-.5-.5-1.3-1.1-1.5-1.6.6.4,1.2.9,1.5,1.6Z"/>
      <path class="cls-40" d="M507.7,433.8c.4,0,.9,0,1.3,0,0-.1.2-.1.3,0,.6.1,1.3,0,1.8,0,0,0,0,0,.1,0-.9.7-2.4.2-3.5.1Z"/>
      <path class="cls-45" d="M484.1,419.8c.3.3.6.6.9.9,0,0,0,0,0,0,0,0,0,0,0,.1-.5-.3-.9-.6-1.1-1.2,0,0,.2,0,.2.1Z"/>
      <path class="cls-45" d="M480,385.7c-.2.4-.4.7-.6,1.1.2-.7.4-1.4,1-1.9,0,.3-.2.6-.4.8Z"/>
      <path class="cls-38" d="M486.1,422.1c.6.3,1,.8,1.4,1.3-.7-.2-1.1-.8-1.4-1.3Z"/>
      <path class="cls-32" d="M499.7,431.1c.1.1.3.2.4.3-.3.2-1.3-.3-1.5-.6.4,0,.7.2,1.1.3Z"/>
      <path class="cls-13" d="M547.2,393.9c-.3-.9-.5-1.9-.7-2.8.4.9.7,1.9.8,2.8h0Z"/>
      <path class="cls-13" d="M546.2,390.1c-.4-.9-.7-1.8-1-2.7.5.9.8,1.8,1,2.7Z"/>
      <path class="cls-13" d="M513.4,365.9c0,0,0,.1,0,.2-.6,0-1.1,0-1.7,0,0,0-.2-.1,0-.2.6,0,1.2,0,1.8,0Z"/>
      <path class="cls-13" d="M508.5,365.5c.9,0,2-.4,2.7.2-.3,0-.6,0-.9,0-.6-.3-1.3,0-1.9-.2Z"/>
      <path class="cls-32" d="M505,432.9c0,.1.1.2.2.3-.6,0-1.1-.1-1.6-.4.5-.2.9.1,1.4.1Z"/>
      <path class="cls-31" d="M487.9,423.8c.6,0,.8.4.9.8-.3,0-.7-.5-.9-.8Z"/>
      <path class="cls-13" d="M505.2,366.1c-.2,0-.3,0-.5.1.6-.5,1.3-.5,2-.5-.4.3-1,.2-1.5.4Z"/>
      <path class="cls-32" d="M502.1,432.2c.5,0,1,0,1.4.5-.4,0-.7-.1-1.1-.2,0-.1-.4,0-.3-.3Z"/>
      <path class="cls-31" d="M510.5,365.6c.4,0,1.1,0,1.2.5-.5-.3-1.1-.3-1.6-.3,0-.2.2-.3.4-.2Z"/>
      <path class="cls-31" d="M489.3,424.9c.5.1.7.4.9.8-.2.2-1-.7-.9-.8Z"/>
      <path class="cls-31" d="M481.9,416.3c-.2-.4-.3-.7-.5-1.1.5.3.6.7.7,1.2,0,0-.1,0-.2-.1Z"/>
      <path class="cls-32" d="M495.2,428.8c.2.2.6.2.8.5-.5,0-.9-.2-1.2-.5.1,0,.3,0,.4,0Z"/>
      <path class="cls-13" d="M487.4,375.5c-.4.5-.8.9-1.3,1.3.3-.6.8-1,1.3-1.3Z"/>
      <path class="cls-45" d="M494.2,428.3c.2.1.4.3.5.5-.4,0-.7-.2-.9-.5.1-.2.3,0,.4,0Z"/>
      <path class="cls-45" d="M499.7,431.4c.1,0,.3,0,.4,0,.2.2.5.3.7.5-.4,0-.8-.2-1.1-.5Z"/>
      <path class="cls-16" d="M481.1,383.6c0,.4,0,.7-.5.9.1-.3.2-.7.5-.9Z"/>
      <path class="cls-40" d="M512.4,433.5c.4.1.8,0,1.2.1,0,0,0,0,0,.1-.7,0-1.4,0-2.1-.1,0-.2.2-.2.3-.2.2,0,.4,0,.6,0Z"/>
      <path class="cls-40" d="M544.9,386.5c-.3-.3-.5-.6-.6-1,.4.2.6.6.6,1Z"/>
      <path class="cls-32" d="M494.2,428.3c-.4,0-.8-.1-1-.5.4,0,.7.3,1,.5Z"/>
      <path class="cls-13" d="M504.3,366.3c-.5.2-1,.4-1.5.4.5-.3,1-.4,1.5-.4Z"/>
      <path class="cls-13" d="M510.5,365.6c-.7,0-1.3,0-2,0,0,0,0,0,0,0,0,0,0,0,0,0,.7,0,1.4,0,2,.1Z"/>
      <path class="cls-13" d="M539.5,378.4c-.3-.2-.6-.5-.7-.8.4.2.6.4.7.8Z"/>
      <path class="cls-45" d="M478.9,388.5c-.1.2-.2.3-.3.5,0-.4.1-.8.5-1.1,0,.2,0,.4-.2.6Z"/>
      <path class="cls-13" d="M527.9,369.4c-.4,0-.7-.2-.9-.5.4,0,.7.2.9.5Z"/>
      <path class="cls-13" d="M536.3,374.9s0,0,0,.1c-.4-.2-.7-.6-1-.9.3-.2.7.7,1,.8Z"/>
      <path class="cls-13" d="M535.5,374.1c0,0-.1,0-.2,0-.2-.2-.4-.4-.6-.6.4,0,.6.3.8.6Z"/>
      <path class="cls-13" d="M501.6,367.1c-.4.3-.8.4-1.2.4.4-.3.8-.4,1.2-.4Z"/>
      <path class="cls-13" d="M547.5,394.7c0,.2,0,.4,0,.6-.2-.5-.3-.9-.3-1.4.3,0,0,.2.2.3,0,.2,0,.3.1.5Z"/>
      <path class="cls-13" d="M531,370.9c-.3,0-.6-.2-.8-.5.3,0,.7.2.8.5Z"/>
      <path class="cls-13" d="M488.5,374.5c-.3.3-.6.6-.9.9.2-.4.5-.7.9-.9Z"/>
      <path class="cls-13" d="M511.6,365.9s0,0-.1-.1c.5,0,1.1,0,1.6.1-.5,0-1,0-1.5,0Z"/>
      <path class="cls-45" d="M512.4,433.5c-.4,0-.7,0-1.1.1,0,0,0-.1,0-.2.3,0,.7,0,1,.1Z"/>
      <path class="cls-27" d="M489.2,374.2c-.1,0-.2,0-.3,0,.1-.2.3-.4.5-.5,0,0,.1,0,.2,0-.1.2-.3.3-.4.5Z"/>
      <path class="cls-40" d="M502.1,432.2c.1.1.2.2.3.3-.3,0-.6-.1-.8-.4.2,0,.3,0,.5,0Z"/>
      <path class="cls-40" d="M503.8,432.9c.4,0,.8.1,1.1.3-.4,0-.8,0-1.1-.3Z"/>
      <path class="cls-13" d="M508.4,365.6c-.4.1-.7,0-1.1.1,0,0,0,0,.1-.1.3,0,.7,0,1,0h0Z"/>
      <path class="cls-13" d="M538.7,377.4c-.3-.1-.5-.3-.6-.6.2.2.4.4.6.6Z"/>
      <path class="cls-40" d="M547.7,403.4c0-.3,0-.7.1-1,0,.3,0,.7-.1,1Z"/>
      <path class="cls-13" d="M542.6,382.8c-.3-.1-.4-.3-.5-.6.2.2.4.4.5.6Z"/>
      <path class="cls-40" d="M547.4,394.2c0-.1-.1-.2-.2-.3,0-.2,0-.4,0-.6.1.3.2.6.2.9Z"/>
      <path class="cls-13" d="M508.4,365.6c-.3,0-.7,0-1,0,.3-.1.7,0,1-.1,0,0,0,0,0,.1Z"/>
      <path class="cls-38" d="M490.5,426.1c.1,0,.2.1.3.2-.1,0-.2-.1-.3-.2Z"/>
      <path class="cls-38" d="M490,425.7c0,0,.1,0,.2,0,0,0,0,.1.1.2-.1,0-.2-.1-.3-.2Z"/>
      <path class="cls-38" d="M490.9,426.4c0,0,.1,0,.2.1,0,0-.1,0-.2-.1Z"/>
      <path class="cls-38" d="M492.5,427.5c0,0,.1,0,.2.1,0,0-.1,0-.2-.1Z"/>
      <path class="cls-38" d="M491.9,427.1c0,0,.1,0,.2.1,0,0-.1,0-.2-.1Z"/>
      <path class="cls-38" d="M492.2,427.3c0,0,.1,0,.2.1,0,0-.1,0-.2-.1Z"/>
      <path class="cls-38" d="M488.7,424.6s0,0,.1,0c0,0,0,0,.1.1,0,0-.1,0-.2-.1Z"/>
      <path class="cls-38" d="M487.6,423.5c0,0,0,.1.1.2,0,0,0-.1-.1-.2Z"/>
      <path class="cls-38" d="M491.2,426.6c0,0,.1,0,.2.1,0,0-.1,0-.2-.1Z"/>
      <path class="cls-38" d="M491.8,427s0,0,.1.1c0,0,0,0-.1-.1Z"/>
      <path class="cls-38" d="M488.9,424.7s0,0,.1.1c0,0,0,0-.1-.1Z"/>
      <path class="cls-38" d="M490.4,426s0,0,.1.1c0,0,0,0-.1-.1Z"/>
      <path class="cls-38" d="M491.5,426.8s0,0,.1.1c0,0,0,0-.1-.1Z"/>
      <path class="cls-38" d="M485.4,421.1s0,0,0,.1c0,0,0,0-.1-.1,0,0,0,0,.1,0Z"/>
      <path class="cls-38" d="M490.3,425.9s0,0,.1.1c0,0,0,0-.1-.1Z"/>
      <path class="cls-38" d="M485.1,421s0,0,0-.1c0,0,0,0,0,.1,0,0,0,0-.1,0Z"/>
      <path class="cls-38" d="M489,424.8s0,0,.1.1c0,0,0,0-.1-.1Z"/>
      <path class="cls-38" d="M492.7,427.6s0,0,.1.1c0,0,0,0-.1-.1Z"/>
      <path class="cls-38" d="M491.1,426.5s0,0,.1.1c0,0,0,0-.1-.1Z"/>
      <path class="cls-38" d="M492.4,427.4s0,0,.1.1c0,0,0,0-.1-.1Z"/>
      <path class="cls-38" d="M492.1,427.2s0,0,.1.1c0,0,0,0-.1-.1Z"/>
      <path class="cls-38" d="M487.5,423.4s0,0,.1.1c0,0,0,0-.1-.1Z"/>
      <path class="cls-38" d="M489.3,425s0,0,.1.1c0,0,0,0-.1-.1Z"/>
      <path class="cls-38" d="M490.8,426.3s0,0,.1.1c0,0,0,0-.1-.1Z"/>
      <path class="cls-38" d="M489.3,424.9s0,0,0,.1c0,0,0,0-.1-.1,0,0,0,0,.1,0Z"/>
      <path class="cls-38" d="M491.7,426.9s0,0,.1.1c0,0,0,0-.1-.1Z"/>
      <path class="cls-38" d="M491.4,426.7s0,0,.1.1c0,0,0,0-.1-.1Z"/>
      <path class="cls-38" d="M484,419.7h-.1s0,0,0-.1c0,0,0,0,.1.1Z"/>
      <path class="cls-38" d="M485.4,421.2s0,0,0,0c0,0,0,0,0,0Z"/>
      <path class="cls-32" d="M519.8,433.1c.1,0,.3-.1.4-.2h0c1.2-.2,2.3-.6,3.4-1h0c.9-.4,1.8-.7,2.6-1.2,0,0,.1,0,.2,0-1.9,1.3-4.4,2.1-6.7,2.4Z"/>
      <path class="cls-13" d="M545.4,411.5c.2-.7.4-1.4.8-2-.2.7-.4,1.4-.8,2Z"/>
      <path class="cls-19" d="M547,396.9c0,1-.6,2,0,3,.7,4.7-1.2,9.4-3.1,13.7-4.1,7.3-9.7,13-17.4,16.5-4.5,2.5-9.8,3.6-14.8,2.6-1.8,1.5-8.1-.7-10.3-1.4-5-2.2-10.1-4.6-13.8-8.7-1.4-1.5-3-2.9-4.1-4.7-.4-1.4-1.3-2.4-2.2-3.5-2.2-3.6-3.4-7.9-3.9-12.1,0-.8-.1-1.5.2-2.2.3-1.9-.3-3.8.2-5.7.8-4.5,2.3-9,5.2-12.5,1-2.4,2.9-4.1,4.7-5.9,6.3-5.6,14.6-10.1,23.2-9.9.8.2,1.6.7,2.3.3,2.6-.6,5.4,0,8,.7,2.3.7,4.4,1.5,6.4,2.8,2.7,1.3,5.3,2.7,7.4,4.8,6.2,5.9,11.3,13.5,12,22.3Z"/>
      <path class="cls-16" d="M476.9,400.5c.7-1.4,0-2.9.2-4.4.3-1.6.3-3.4,1-4.8-.3,1.9-.7,3.8-.9,5.7,0,1.2.4,2.4-.1,3.6-.4,1.9.4,3.9.6,5.8-.7-1.7-.9-3.9-.8-5.9Z"/>
      <path class="cls-31" d="M511.2,433.7c-1.1.3-2.2,0-3.3,0-1.9-.4,2.9,0,3.3,0Z"/>
      <path class="cls-16" d="M483.2,380.9c0-1.1.8-1.7,1.5-2.3-.5.8-1.3,1.4-1.5,2.3Z"/>
      <path class="cls-16" d="M479.8,412.8c-.2-.5-.6-1-.7-1.6.5.5.6,1.1.9,1.7-.1,0-.1,0-.2-.1Z"/>
      <path class="cls-32" d="M477.4,405.6c.3.7.5,1.5.6,2.3-.3-.7-.5-1.5-.6-2.3Z"/>
      <path class="cls-31" d="M513.7,433.4c-.7,0-1.5,0-2.2-.2.8,0,1.5,0,2.2.2Z"/>
      <path class="cls-32" d="M478.7,410.1c-.2-.5-.4-1-.5-1.5.3.5.4,1,.5,1.5Z"/>
      <path class="cls-32" d="M479.8,412.8c0,0,.1,0,.2.1.2.4.3.8.5,1.2-.4-.4-.5-.8-.7-1.3Z"/>
      <path class="cls-31" d="M524.8,431.4c-.4.3-.8.4-1.2.5.4-.3.8-.4,1.2-.5Z"/>
      <path class="cls-31" d="M521.5,432.6c-.4.2-.9.3-1.3.3.4-.2.9-.3,1.3-.3Z"/>
      <path class="cls-16" d="M484.8,378.5c.2-.3.4-.6.7-.8-.2.3-.4.6-.7.8Z"/>
      <path class="cls-31" d="M523.6,431.9c-.2.2-.5.3-.8.3.2-.2.5-.3.8-.3Z"/>
      <path class="cls-38" d="M484.1,419.8s0,0-.1-.1c0,0,0,0,.1,0,0,0,0,0,0,.1Z"/>
      <path class="cls-38" d="M485.1,420.9s0,0,0,0c0,0,0,0,0,0Z"/>
      <path class="cls-13" d="M514,365.7c.6-.2,1.3-.2,1.9,0-.6,0-1.3,0-1.9,0Z"/>
      <path class="cls-13" d="M547.6,396.5c.1.5.1.9,0,1.4,0-.5,0-.9,0-1.4Z"/>
      <path class="cls-32" d="M476.9,400.5c0,.5,0,1,0,1.5-.1-.5-.1-1,0-1.5Z"/>
      <path class="cls-13" d="M505.2,366.1c.3-.2.6-.2.9-.2-.3.1-.6.2-.9.2Z"/>
      <path class="cls-45" d="M513.6,433.6c-.4,0-.8,0-1.1-.1.4,0,.8,0,1.1.1Z"/>
      <path class="cls-32" d="M507.8,433.6c1.1,0,2.2.2,3.2.1h-.1c-1,.3-2.1,0-3.1-.1Z"/>
      <path class="cls-32" d="M507.3,433.4c.2,0,.3.1.5.2-.4,0-.8,0-1.2-.2.2,0,.5,0,.7,0Z"/>
      <path class="cls-45" d="M509.4,433.8c.5,0,1.1,0,1.6,0-.5.1-1.1.1-1.6,0Z"/>
      <path class="cls-41" d="M545.1,390c.6,2.6,2.2,6,1.2,8.6,1.3,5.5-1,11.2-3.5,16.1-.7,1-1.5,1.8-2,3-1.6,2.6-3.9,4.7-6.1,6.8-2.5,2.5-5.8,3.7-8.8,5.6-1.8,1.1-10.9,3.8-12.3,2.4,0,0-.1-.1-.2,0-.7.5-1.4-.2-2.1,0-.4-1.3,1.5-.4,2.1-.8.1,0,.3,0,.3.1,2.6,1.5,11.9-1.7,14.3-3.6,10.1-5,17.7-16,18-27.3-.2-.8-.6-1.8-.3-2.6.2-.4.3-.9.2-1.4-.6-4.3-1.8-8.5-4.1-12.3-1-.9-1.7-2-2.3-3.2-5.2-7.4-13.6-12.6-22.5-13.9-1.1,0-2.5-.4-3.5.2-.7.2-1.5,0-2.1-.2-3.8-.8-7.9.8-11.4,2.2-8.2,3.4-14.6,9.2-18.6,17.2-1.4,3-2.1,6.1-2.5,9.3-.2,1.5.3,3.1-.2,4.5-.3.7,0,1.4,0,2.2.6,4.7,2,9.6,5.2,13.2.5.5.4,1.4.9,1.9,2.3,2.7,4.7,5.4,7.6,7.5,2.8,2,6,3.4,9.1,4.8.2,0,.4.1.4.4-.4,1-2.4-.6-3.1-.7-1.9-1.1-4-1.8-5.8-3.1-2.4-1.6-8.8-7.2-9.4-9.9-2.3-2.8-3.8-6-4.8-9.5-.5-2.2-1.1-4.5-.9-6.7.4-.3.3-.8.3-1.2-.3-4.4.8-8.9,2.6-13,3.6-7.3,9.7-13.5,17.3-16.7,4-2.1,8.8-3.7,13.4-3.1h0c.7.4,1.7.4,2.3.1.7-.4,4.3,0,5.2.3,4.1.6,7.8,2.8,11.5,4.7,4,2.2,7,5.8,9.8,9.2.5,1.2,1.5,2.1,2.2,3.1,1.3,1.8,2,3.9,2.7,6Z"/>
      <path class="cls-55" d="M511.4,432.2c.6-.1,1.2.4,1.9,0,.2,0,.3,0,.4.1-.5.2-1,.2-1.5,0-.2,0-.5-.1-.7.1-.2.3-.6.4-.9.4-4.8,0-9.4-1.8-13.6-4.1-9.7-4.4-17.9-15.3-19-25.9-.1-6,.4-12.3,3.3-17.7.7-1.6,2.2-2.7,2.8-4.4,2.2-3.4,5.4-6,8.7-8.3,5.6-3.2,12.1-6.9,18.8-5.9-7.8-.4-15.4,3.6-21.5,8.2-3.8,3-6.5,7-8.9,11.2-2.4,4.5-2.7,9.5-3,14.5-.2,5.4,1.8,11.3,5.2,15.5.5.6.5,1.5,1.1,2.1,3.1,3.6,6.4,7.2,10.6,9.5,1.7.6,5.4,3.4,6.8,2.8,1.3,0,2.6.8,3.9,1,1.9.5,3.9.6,5.9.7Z"/>
      <path class="cls-23" d="M542.5,415.2c2.5-4.9,5-10.6,3.8-16.1.6-2.8-.4-5.8-1.1-8.6,1,2.1,1.4,4.4,1.5,6.8,0,.8-.5,1.7-.1,2.5.9,4.6-1.5,11.7-4.1,15.5Z"/>
      <path class="cls-55" d="M513.7,432.6c7.8.5,15.1-3.8,21.2-8.2-2.3,2.4-5.4,3.7-8.3,5.3-2.1,1.3-4.5,2-6.9,2.5-1.5.2-4.8,1.2-6,.4Z"/>
      <path class="cls-23" d="M534.9,424.4s0,0-.1,0c1.9-2.1,4.1-4,5.8-6.3.6-1,.9-2.1,1.9-2.9-2,3.5-4.5,6.6-7.6,9.2Z"/>
      <path class="cls-55" d="M545.1,390c-.4-.6-.5-1.4-.8-2.1.6.6.6,1.4.8,2.1Z"/>
      <path class="cls-55" d="M541.4,382.9c-.6-.5-1-1-1.2-1.7.5.5.9,1.1,1.2,1.7Z"/>
      <path class="cls-55" d="M518.9,367c-.7,0-1.4-.2-2.1-.3,0,0,0,0,0,0,0,0,0,0,0,0,.7,0,1.5,0,2.1.4Z"/>
      <path class="cls-55" d="M515,366.6c-.4,0-.9,0-1.3.1.9-.4,2.1-.2,3-.1h0c-.6,0-1.1,0-1.7,0Z"/>
      <path class="cls-55" d="M543.3,385.5c-.4-.5-.7-1-.9-1.5.5.4.7.9.9,1.5Z"/>
      <path class="cls-23" d="M539.2,379.7c-.6-.3-1-.8-1.2-1.4.4.5.8.9,1.2,1.4Z"/>
      <path class="cls-23" d="M537.9,378.1c-.5-.3-1-.7-1.2-1.3.4.4.8.9,1.2,1.3Z"/>
      <path class="cls-55" d="M512.6,366.9c-.4,0-.9.1-1.2-.3.7.2,1.3.2,2,.2,0,0,0,0,0,.1-.3.1-.5,0-.8,0Z"/>
      <path class="cls-55" d="M544.1,387.2c-.3-.3-.4-.6-.5-1,.4.2.4.6.5,1Z"/>
      <path class="cls-55" d="M520.7,367.4c-.4,0-.7,0-1-.3.4,0,.7,0,1,.3Z"/>
      <path class="cls-23" d="M522.3,367.9c-.4,0-.8-.2-1.2-.4.4,0,.8.2,1.2.4Z"/>
      <path class="cls-23" d="M540.1,380.9c-.4-.1-.5-.4-.6-.8.2.3.4.5.6.8Z"/>
      <path class="cls-23" d="M524.7,368.8c-.4,0-.7-.2-1-.4.4,0,.7.2,1,.4Z"/>
      <path class="cls-23" d="M536.4,376.5c-.3-.1-.6-.4-.7-.7.3.2.5.4.7.7Z"/>
      <path class="cls-7" d="M511.4,432.2c-4.9.8-10.1-1.7-14.4-3.9-3.8-1.6-7-4.2-9.7-7.2-1.1-1.4-2.9-2.6-3.3-4.4-.4-.8-1.1-1.6-1.7-2.3-2.4-3.8-4.3-9.6-3.8-14.1.1-5.9.9-12.3,4.8-17.1,5.1-8.8,14.9-14.5,24.8-16.1,1.2,0,2.4-.3,3.5,0,.7.2,1.5.6,2.2,0,5.9-.6,11.4,2.2,16.4,4.9,5.2,3,8.7,8,12.2,12.8,2.1,3.6,3.2,7.7,3.8,11.9,0,.5,0,1-.2,1.5-.3,1.1.4,2,.3,3.1-.7,12.2-9.2,22.9-20,28-2.3,1.3-10.5,3.9-12.7,2.6,0-.1-.2-.2-.4-.1-.6.5-1.6-.5-1.9.4Z"/>
      <path class="cls-23" d="M515,366.6c.6,0,1.1,0,1.7,0,0,0,0,0,0,.1-.6,0-1.2,0-1.7-.1Z"/>
      <path class="cls-23" d="M512.6,366.9c.3,0,.5,0,.8,0-.3.2-.5.1-.8,0Z"/>
      <path class="cls-50" d="M511.4,430.3c0,1.4,0,1.3-1.4,1.2-2.4-.2-4.7-.7-7-1.5-7.1-2.3-13.2-6.6-17.8-12.5-.3-.3-.6-.7-.5-1.2-.4-.8-1.1-1.6-1.7-2.3-2.6-4.5-4.5-10.5-3.5-15.7-.3-1.1-.2-2.1,0-3.1,1.8-15.1,16.4-27.3,31.4-27.6.6,0,1.1.4,1.7.4.4,0,.3.7,0,.7-.8,0-1.2-.3-1.1.8.3.2.2.6.2,1-2.6.5-5.3.6-7.8,1.7-1,.4-2.1.7-3,1.3-.2.2-.5,0-.7,0-.3,0-.3-.5-.4-.7.5.9-.2,1.1-.9,1.4-2.2.9-4,2.5-5.8,3.9-1.9,1.3-3,3.3-4.5,5-.7.5-1,2.4-2.2,1.6.5.3.8.4.3,1-.8,1-1.2,2.1-1.7,3.2-1.1,2.1-1.5,4.4-1.9,6.7-.3.9.4,2.9-1.2,2.5.7-.2.8.5.6,1-.3.7.7,1,.6,1.7-.2,1.9.2,3.7.6,5.6.5,2,1.1,4,2.2,5.6.2.3.2.5,0,.8.5.2.8.6.9,1.1.2.5.4.8.8,1,.9.8,1.2,2.2,2.2,3,2.3,2.8,5.3,4.9,8.3,6.9.4,1,1.5.5,2.1,1.1,0,.2,0,.3-.2.4.5-1.2,1.8.2,2.6.4,2.1.9,4.2,1.4,6.5,1.6,1.3.2,3.6-.2,2.4,1.8Z"/>
      <path class="cls-50" d="M513.5,369c0-1,0-1.6,1.1-1.4,2,.1,4,.3,5.9.9,7.1,2.1,13.6,6.4,18,12.4.8,1,1.4,2.3,2.4,3.2.2,0,.3.3.4.5,1.3,2.4,2.4,5,3.1,7.6,3.1,11.2-1,22.7-9.5,30.4-2.5,2.4-5.5,4.1-8.4,5.7-.9.5-.8-.9-1.2-1.3-.4-.2-.3-.6-.4-.9,5.1-2.7,10.1-6.4,12.8-11.8.3-.7.9-1.6,1.8-1-.2-.1-.4-.2-.6-.3.1-1.6,1.3-3,1.7-4.6.7-1.9,1.3-3.8,1.5-5.8.2-.9-.2-1.9.3-2.6.4-.4.3-1,.5-1.4,0-.2-.6-.1-.7-.2-.8-2.8-.7-5.8-2.1-8.5-.4-1.1-.9-2.2-1.6-3.1-.4-.4-.7-1.3-.1-1.7-.6.5-1.2,0-1.5-.7-.4-.9-1.1-1.7-1.7-2.4-1.2-1.4-2.5-2.7-3.8-3.8-1.8-1.6-3.8-2.7-5.8-3.8-.7-.3-.5-.7-.2-1.3-.2.2-.1.7-.5.8-.8,0-1.5-.7-2.2-.9-2.8-1.6-6.1-1.7-9.1-2.2-.1-.2,0-.4,0-.6.1-.3-.2-.8.3-1Z"/>
      <path class="cls-50" d="M525.2,427.2c0,.7,1,1.6,0,1.9-3.3,1.3-6.7,2.1-10.3,2.4-.5,0-1.2,0-1.1-.6,0-.5-.3-1.6.6-1.6,3.7,0,7.3-1.1,10.5-2.9.3.1.3.5.4.8Z"/>
      <path class="cls-2" d="M513.5,370v.6c.6.7-.1,1.8,1.2,1.7,1.5,0,3,.2,4.5.7,1.2.4,2.3,1,3.5,1.6.9.3,1.7.8.9,1.8-2.7-.9-5.2-2.5-8.1-2.7-.7,0-1.5.3-2.2,0,0-.8,0-1.6,0-2.3,0,.3,0,.8,0,1.3,0,1.1-1.1.6-1.3-.1,0,.3,0,.5,0,.7-.9.8-2.2.3-3.2.8-2.3.3-4.4,1.1-6.5,2-.7.3-1.1-.5-1.4-1.1,0-.2.1-.3.3-.3,1.7-.5,3.2-1.3,4.8-1.8,1.5-.5,3.1-.6,4.7-.9,1,0,.5-1.1,1-1.6,0,0,0-.2,0-.3.6-.6,1.2.5,1.6-.7,0-.1,0-.5.3-.3.1.3,0,.7,0,1Z"/>
      <path class="cls-29" d="M513.6,428.2c0,.5.2,1.6-.2,1.8-.2,0-.2-.2-.3-.4-.4-.4-.3-.9-.1-1.4,1-.3-.6-7.1.8-6.5,6.3,1,7.8-5,9,.3-4.9,4-9.1,1.8-9,3.5-.2.9.2,1.8-.2,2.7Z"/>
      <path class="cls-28" d="M513.2,428.3c0,.4,0,.9,0,1.3-.7-.1-1.2.4-1.8.6,0-.5,0-.9,0-1.4-.4-.4-.1-1.2-.9-1.2-1.2,0-2.4-.2-3.6-.4-1.8-.3-3.4-1-5-1.7-.7-.5-1.1.5-1.6,0,0-1,.7-1.7,1.4-2.3.6-.3,1.3.4,1.8.6,2.4,1.2,5,1.5,7.6,1.9.2,0,.5,0,.6.3,0,.4-.2.8.2,1.1,0,.4-.2.9-.1,1.4.4-.5,1.2-1.2,1.6-.3,0,0,0,.1-.1.2Z"/>
      <path class="cls-1" d="M513.6,428.2c-.3-3.4.6-1.2,4.3-2.4,1.8-.4,3.4-1.1,5-2.1.3-.2.5,0,.8,0,.9,2.1.8,1.1-.8,2.2-2.8,1.9-6.1,1.9-9.3,2.4Z"/>
      <path class="cls-5" d="M524.2,425.2c-.2-.5-.4-.9-.6-1.4-.5-.3-.7-.9-1-1.5.4-2.5.9.4,1.5,1,.1.5,0,1.1.5,1.5,0,.4.5.9.2,1.3.1.3.2.6.3.9,0,0,0,.1,0,.2-.4-.6-.7-1.3-1-2Z"/>
      <path class="cls-41" d="M513.1,369.3c0,1.4-.7.9-1.6.7,0-.2,0-.4,0-.6.6,0,1.2.4,1.6-.1Z"/>
      <path class="cls-41" d="M513.5,370c-.1-.3,0-.7,0-1,0,0,0,0,0,0,0,.3,0,.7,0,1Z"/>
      <path class="cls-41" d="M482.4,398.1c.4-4.4,1.4-8.9,4-12.5.4-.6-.6-.7-.8-1.1.5.2,1.2.7,1.6,0,1-1.6,2.4-3,3.5-4.5,2.6-2.7,5.6-5,9.1-6.4.2-.1.3,0,.3.2.3.8,1.2,1.9,0,2.4-3.8,1.7-6.8,4.7-9.2,8-.7.7-1.1,1.7-2,2.1-.5,0-.8-.4-1.2-.5,4,1.9.5.3-1.4,7.8-.4,1.5-.6,2.9-.4,4.4,0,.3,0,.4-.4.4-.8,0-1.6,0-2.4,0-.2,0-.5.1-.7-.2Z"/>
      <path class="cls-17" d="M485.8,412.6c-2.1-3.4-3.3-7.6-3.1-11.6,0-.3,0-.6-.4-.8-.7-.4,0-1.3-.2-2,.4-.2.8,0,1.1-.1.7.1,1.8-.2,1.5.9-.2.8,1,.8.9,1.6.1,3.5.8,7.2,2.7,10.2.1.2.2.4.1.7-.5.5-1.3.6-1.8,1.1-.3.4-.4.4-.8,0Z"/>
      <path class="cls-21" d="M499.9,426c-.6-.3-1.4,0-1.9-.5-.3-.8-1-1-1.6-1.4-1.2-.8-2.4-1.7-3.5-2.6-2.2-1.8-4-4-5.6-6.3-.6-.2-.8-.6-.9-1.2-.1-.5-.4-1-1-1,0-.3.3-.2.4-.3.8-.5,1.9-.3,2.1.7,1.3,2,2.8,4,4.6,5.7,1.7,1.6,3.5,3.1,5.6,4.2.3.2.5.3.6.6.1.5.9.4,1.3.3.4,0,.6,0,.6.4,0,.3-.4.6-.2,1,0,.3-.2.4-.4.3Z"/>
      <path class="cls-41" d="M511.5,370.3c0,1.1.1,1.9-1.3,1.9-1.3.2-2.6.2-3.9.7-1.9.5-3.6,1.6-5.5,1.9-.2,0-.3-.1-.3-.3,0-.4-.6-.9-.4-1.2,3.6-1.6,7.3-3,11.3-3Z"/>
      <path class="cls-17" d="M499.9,426l.2-.4c0,0,.1-.1.2-.1.6-.7,1.3-.4,2,0,2.6,1.3,5.4,2,8.4,2,.9,0,.7.8.7,1.4-3.5-.1-7.2-.6-10.2-2.4-.9-.7-.9.2-1.5.6,0-.4.2-.7.3-1Z"/>
      <path class="cls-47" d="M500.1,373.3c.2.4.3.8.5,1.2-.4.3-1.5-2.8-.5-1.2Z"/>
      <path class="cls-42" d="M483.1,398.3c-.7,0-1.3.2-1.9-.2.6,0,1.3,0,1.9,0,0,0,0,.1,0,.2Z"/>
      <path class="cls-5" d="M486.7,412.5c-.6.1-1,.4-1.6.6.2-.3.5-.4.7-.5.5,0,1.1-.8,1.4-.3,0,.5-.4,0-.5.2Z"/>
      <path class="cls-41" d="M499.9,373c0,0-.1,0-.2,0-.1-.3-.3-.5-.3-.8.3.2.4.5.5.8Z"/>
      <path class="cls-47" d="M542.2,398.2c.2,0,.3,0,.5,0,.7,1.1-1.7.3-1.6,1.4,0,.3-.2.5-.5.7-.8.3-.6,1.2-.6,1.9-.2,3.5-1.5,6.9-3.2,9.9-1.3-.3-2.5-1.3-3.8-1.8-1.1-.6,1.8-3.9,1.8-5.2.5-1.5-.4-4.8,1.4-5.4.2,0,.5.1.7-.1.3,0,.6.2.9,0-.6-1.6,1.4-1.1,2.3-1.2.3,0,.5,0,.5-.4.3-.2,1.2-.2,1.6.1Z"/>
      <path class="cls-55" d="M524.7,373.6c.2-.5.5-.9.7-1.4,0,.4-.1.7-.2,1-.2.4,0,.6.3.8.9.4,1.7,1,2.6,1.5,2.9,1.7,5.5,4.1,7.6,6.8.5.7,1.2,1.4,1.5,2.3.1.3.4.5.7.6,0,.4-.2.4-.4.4-1,.3-2.5,1.7-3,.1-.8-2.2-2.7-3.5-4.3-5.1-1.6-1.4-3.4-2.9-5.5-3.5-.7-.1-1.1-1-.7-1.6.3-.5,0-1.4.7-1.7,0,0,0,0,0-.1Z"/>
      <path class="cls-22" d="M542.2,398.2c-.5,0-1,0-1.4,0-.4.3-1,.3-1.5.2-.9-2.1-.6-4.6-1.6-6.8-.5-1.3-1.2-2.6-2.1-3.7-.3-.4-.5-.8-.4-1.2.8-.6,1.9-.9,2.8-1.5,0,0,.1,0,.2,0-.1,1.4,1.4,2.2,1.7,3.5,1.4,3,2,6.2,2.3,9.5Z"/>
      <path class="cls-25" d="M536.7,411.9c1.4-3.4,3.2-6.9,3-10.7,0-1.6.9-.8,1.1-1.7,0-1.4,1.5-.3,1.9-1.3.4,0,1.2,0,.5.5-.3.7-.8,1.4-.9,2.2,0,4.4-1.9,8.3-3.4,12.3-.4,0-2.2-.8-2.2-1.2Z"/>
      <path class="cls-25" d="M524.9,426.1c-.3-.7-1-1.8.2-2.1,2.2-1,4.2-2.6,6-4.3,1.5-1.4,2.9-2.8,4.1-4.5.9-1.4.2-2.6,2.4-2.8.5.1.8.5,1.3.6,0,0,0,0,0,0,.4.1.7.4,1.1.6-.2,0-.3,0-.5,0-1-.6-1.4.5-1.8,1.2-2.9,4.9-7.5,9.4-12.9,11.4Z"/>
      <path class="cls-55" d="M523.8,375.4c-8.6-5.1-10.7-.7-10.3-4.8,4-.2,7.7,1.3,11.2,3,0,0,0,0,0,0-.2.4-.5,1.8-.9,1.7Z"/>
      <path class="cls-8" d="M538.2,385.2c-.8.4-1.6.8-2.3,1.2-.1,0-.2,0-.1-.2,1-.5,2-1.1,3.1-1.5,0,0,0,0,0,0-.2.2-.5.3-.7.5Z"/>
      <path class="cls-33" d="M511.6,373.1v-1.3c.4.3.5.6.7.8,1.1,1.4.6-1.7,1-2.2.2,1,.1,2,.2,3,.3.4.4,1.2,0,1.5-.2,0-.3,0-.3.2-.1,1.8,0,3.7-.3,5.5,0,.5-.7.4-.7,0-.2-.9-.2-2.2-.2-2.8.3,8.1.8,4.7-5.6,7.5-1.1.4-1.5-1.4-1.9-2.2-.3-.6-.5-1.3-.8-1.9,0,0-.1-.2,0-.3.1-.1.2-.2.4-.2,1.1.3,1.8-.7,2.9-.8,1.2-.5,2.4-.9,3.6-1.2,2-.3.2-4.3,1.2-5.7Z"/>
      <path class="cls-39" d="M513.4,374.8c0-.4,0-.9,0-1.3,3.4-.3,6.6,1,9.6,2.4.2.1.7.3.6.6-.3.6-.5,1.5-1.1,1.8-2.1-1-4.2-2.1-6.6-2.3-.7,0-1.4-.2-2.1.1-.8.2-.9-1-.4-1.3Z"/>
      <path class="cls-47" d="M511.6,373.1c-.2.7.5,2.7-.6,2.6-2.3.2-4.6.6-6.8,1.5-.7,0-1.7,1.7-2.1.8-.3-1-1.6-2-1.3-3.1.7.9.7,1.1,1.8.6,2.8-1.4,6-1.6,9-2.4Z"/>
      <path class="cls-33" d="M500.8,374.9c.2,1.1,1.1,2,1.4,3,0,0-.2,0-.2,0-1.2-1-1.3-2.1-1.7-3.5,0,0,.1,0,.2,0,0,.1,0,.2.2.3,0,0,0,0,0,0Z"/>
      <path class="cls-8" d="M522.5,378.1c.5-.8.8-1.6,1.2-2.3.7.6-.6,1.9-.7,2.6,0,.3-.9,0-.5-.3Z"/>
      <path class="cls-5" d="M523.8,376c0,0,0-.1-.1-.2.2-.7.8-1.4,1-2.1,0,.5-.3.8-.4,1.2-.2.3-.3,1-.5,1Z"/>
      <path class="cls-12" d="M522.5,378.3c.7,0,.3.6.1.9-.8.6-.4,1.8-1.2,2.4-.1,0-.2.2-.2.3,0,.6-.5,1.1-.6,1.8.4-.4.8-1.4,1.3-.8.1.1,0,.2,0,.4-.4.8-1,1.5-1.4,2.3-1.1,1.6,2.5,1.9,3.3,4.1.8,2.2,2.6-.8,4-.5.3.2-.2.5,0,.7,2.6-1.2,5-3.1,7.8-3.8,0,0,0,.1.1.2-.2.1-.3.2-.5.3-.6.8-1.8,1.1-2.6,1.7-1.1.6-2.3,1.1-3.2,1.9-1,.2-1.9.9-2.8,1.4-.6.4-1.4.9-.8,1.7.5,1.3,1,2.6,1.1,4,0,.7.4,1,1.1.9,2.9-.1,5.7-.2,8.6-.3.5-.1,1,.3.6.8-1.1.4-2.3,0-3.4.3-.3,0-.6.2-.8-.1-.8,0-1.7,0-2.5.2.5.2,2,0,1.6.8-6.7.3-3.9-1-6,4.8-.9,1.9,1.6,2.4,2.8,3.1,1.2.8,2.8,1.1,3.8,2.2.3.3,4.8,2.3,2.8,2-1.4-.5-2.6-1.4-4-1.9-.1,0-.3,0-.3-.1-.4-.7-1.2-.7-1.9-1-.3,0-.6-.2-.9-.5-.3-.4-1.6-.5-2-.2-1,.5-2.4-1.6-3.1-.4-2,3.6-5.2,3-3,5.8.1.5,1,1.5,0,1.6-.1,0-.3,0-.3.2,0,.2,0,.4.1.5.8.3.5,1.6,1,2,.2,0,.3.3.3.5.1.7.9,1.4.7,2.1-.6.5-2.1-3.3-2.6-3.8,0-.8-.7-1.5-1.1-2.2-.3-1.3-1.1-1.7-2.2-1.5-1,.3-3.1-.1-3.2,1.4,0,.4-.4.9,0,1.2,0,1.1,0,2.3.1,3.4,0,.3,0,.6-.3.8-.7.4-.5-1.2-.7-1.7-.5.8-.1,3.6-.8,3.8-.9,0-.1-5-.3-5.9,0,0,0-.2,0-.2.5-.6,0-1.2,0-1.8-.1-1.1-1.8-.6-2.6-.7-1.1-.2-2.6-.9-2.8.7,0,.3-.5.5-.3.9-.4.4-.4,1-.9,1.4,0,0,0,.3,0,.4-.3.3-.4,1.4-.9,1.4-.7-.4-.1-1.6.4-2.1.2-.1,0-.5.2-.7-.3.3-1.1,1.8-1.5.7.2-.5.6-.8.7-1.4.2-.3.5-.5.5-.9.6-.6,1.3-2,.3-2.5-1.1-.4-1.7-1.5-2.7-2-1.4-.9-.3-2.7-3.3-.5-.5,0-.5.6-1.2.7-.5-.2-.6-.4-.2-.9-1.2-.1-1.3.6-2.1.8-.3,0-.7,0-.8.4-.6.3-1.4.4-2,.7-.4.3-.9-.5-.4-.7,2-1,4.1-1.7,6.1-2.8,1.3-.6,0-1.9,0-2.8-.5-3.7,1-4.4-3.4-4.2-1,.1-1.1-.7-.1-.9-.6-.2-4.7.2-3.1-1.1,1.4,0,2.7.1,4.1.1,1.2.2,2.7.2,2.5-1.4-.4-1.9,2.3-4.1.3-5.3-2.8-1.7-6.2-2.9-8.7-5-.3-1.1,1.4.4,1.8.3,1.1.6,2.2,1.4,3.4,1.8.9.3,1.9,1.6,2.9.9.8-1,1.9,1.7,2.9.5,1.1-1.4,2.5-2.4,3.8-3.6.9-.6-.2-1.5-.2-2.3,0-.2,0-.4.1-.5.6-.6-.3-1-.4-1.6,0-.8-2.6-4.9-1.9-5,.4.2.4.7.7.9,0,0,0,.1,0,.2.5.3,1.6,2.3,1.4,2.9,2.6,6.3,1.6,3.4,6.9,2.7.9,0,1.1-.3,1.1-1.2.1-1.8-.2-3.7.2-5.5.3,1.3.3,2.5.6,3.7.5-2.2.2-4.4.7-6.7.3.3.2.6.2.8,0,.9.4,1.7.2,2.6-.2,1.2,0,2.5-.2,3.8,0,.6,0,1.3.8,1.3,1.5-.4,5.2,2,5.6.9.6-.6,2.4-5.7,2.8-5Z"/>
      <path class="cls-5" d="M520.3,416.7c.5,1.1,1.1,2.1,1.5,3.2-.7,0-1.3.6-2,.9-1.9,1.1-4.2,1.6-6.3,1.1-.6.1-.3-1.8-.2-2.2.3-.6-.4-2,.8-1.9,1.9,0,3.8-.6,5.5-1.4.3-.2.5.1.7.4Z"/>
      <path class="cls-26" d="M522.9,422.4c.2.5.4,1,.7,1.5-3.1,1.5-6.4,3.2-10,2.6-.4-3.5,1.1-1,5.8-2.7.8,0,3.4-2.8,3.5-1.4Z"/>
      <path class="cls-30" d="M513.3,419c.3,2.8.2,5.7.2,8.6,0,.3,0,.6-.3.7,0,0,0-.1,0-.2-.7-1.4,0-3.4-.5-4.8-.7.6-.1,4.4-1.2,4,0-.7-.6-6.1.2-5.9.4.1.2-.2.2-.3.2-.8.1-3.5.7-3.9.5,0,.4,1.7.6,2.2.2-.2.2-.3.2-.5Z"/>
      <path class="cls-30" d="M522.9,422.4c-.3-.5-.5-1.1-.7-1.7,0,0,0-.1.1-.2,0,0,.2-.1.2,0,.1.3.6.5.6.9-.4.5,0,.5-.2,1Z"/>
      <path class="cls-29" d="M511.6,421.8c0,1.4.1,2.9,0,4.2-2-.3-4-.5-6-1.1-1.1-.3-2.1-.9-3.2-1.4-.7-.4-.9.4-1.4.6-.2-.3,0-.5.1-.8.5-1.2,1.1-2.2,1.6-3.3,1.7-1.1,4.1,1.2,6,1.1.8.1,1.6.4,2.4.3.2,0,.3,0,.5.2Z"/>
      <path class="cls-29" d="M511.5,427.3c.8-1.2.3-2.9.9-4.2,1-2.8.7,4.5.8,5-1.1-.5-1.1.9-1.6,1-.3-.3,0-1.3-.1-1.8Z"/>
      <path class="cls-5" d="M501.2,423.5c-.3.7-.6,1.4-.9,2,0,0-.1,0-.2.1.4-.5.2-2.7,1.1-2.1Z"/>
      <path class="cls-20" d="M522.9,421.6c-.7-2.2.4-.8.6-2,0-.6.7-.8,1.2-1.1,1.2-.6,2.1-1.5,3-2.5,1.8-1.2,2.5-3.4,4-4.8,1-1.3,3,.1,4.2.5,1,0,0,.8-.5.8-.3,0-.5.3-.6.6-.7,2.3-2.6,3.9-4.3,5.6-1.6,1.7-3.6,2.7-5.3,4.2-.4.3-1,.4-1.5.5-.4-.6-.6-1.3-1-1.9Z"/>
      <path class="cls-10" d="M523.9,423.5c.2-.6.9-.4,1.3-.7,2.8-2.2,5.9-4.2,8.1-7.2,1.2-1,1.2-3.3,2.2-3.3.8,0,.9-.5,1.7,0,0,.2.4,0,.4.4-2.2.5-1.3,2.6-3.2,4.2-2.6,3-5.7,5.9-9.4,7.6-.3.1-.4.4-.5.6-.2-.5-.5-1-.5-1.5Z"/>
      <path class="cls-47" d="M490.9,387c-.5-.3-1.1-.5-1.6-.8-.1,0-.4,0-.4-.3.6-.3.8-.8,1.1-1.3,1.3-1.1,2.1-2.6,3.3-3.8,2.1-2,4.1-4,6.8-5,.3-.1.5-.3.6-.6.2.5,2,3.7,1,3.6-.8-.1-.5,1-1.2,1.2-2.7,1.5-4.9,3.7-6.5,6.3-.4.8-1.1,0-1.5.7-.4.8-1,.4-1.6.2Z"/>
      <path class="cls-42" d="M489.5,386.6c6.5,3,.7,1.2.2,9.9-.2.8.8,1.5.4,1.7-1.8,0-3.6,0-5.4,0-.1,0-.3,0-.3-.2,1.3,0,1.3,0,1.2-1.3.2-3.6,1.3-7.5,3.9-10.2Z"/>
      <path class="cls-51" d="M488.9,385.9c.1.1.3.2.4.3,0,0,0,.1,0,.2-.7-.4-1.4-.8-2.1-1.2,0,0,0,0,0-.1.6.3,1.2.5,1.7.8Z"/>
      <path class="cls-51" d="M484.3,398.1c.4.1.9,0,1.3,0,0,0,.1.2,0,.3-.4.2-.8.2-1.2-.1-.5,0-.9,0-1.4-.1,0,0,0-.1,0-.2.4,0,.8,0,1.2,0Z"/>
      <path class="cls-42" d="M484.5,398.4c.4,0,.7,0,1.1,0,2-.5.6,1.2,1.8,1.4,2,.2.8,2.2,1.4,3.4.3,2.5,1.3,4.8,2.3,7-.2.3-2.8,1.7-2.9,1.3-1.9-3.2-2.9-7-2.9-10.7-.4-1.5-1.3.2-.8-2.4Z"/>
      <path class="cls-51" d="M488.3,411.5c.2,0,.6-.3.7,0,0,.3-.2.3-.3.4-.4.3-.9.3-1.3.5-.2.2-.3,0-.5-.2.4-.2.8-.5,1.3-.6Z"/>
      <path class="cls-42" d="M483.2,398.3c.4,0,.8,0,1.1,0-.4,0-.8,0-1.1,0Z"/>
      <path class="cls-17" d="M487.1,412.3c0,0,.2,0,.3-.1,2-.3,1.1.8,2.2,1.7,1.6,2.2,3.3,4.3,5.5,6,.8,1.1,4.4,2.4,4.3,3.3,0,.4.2.4.4.3,1.6-.7,1.2.4.6,1.3-.6-.5-1.8.5-2-.6,0-.3-.3-.4-.5-.5-3.7-2.2-7.1-5.2-9.4-8.9-1.1-.4-.6-1.9-1.9-2.2.1,0,.3-.2.4-.3Z"/>
      <path class="cls-5" d="M533.8,398.7c.7,0,1.6-.2,2.1,0,0,.8,1.4.3,1,1.2-2.3-.3-1.6,2.9-1.8,4.3-.2,2.2-1.5,3.8-2.4,5.7-1.3-.5-2.6-1.2-3.8-1.9-.5-.8.1-1.6.5-2.3.8-1.7.7-3.6,1.1-5.4.1-.8,1-.7,1.6-.7.5-.7,1.8.1,2.3,0-.3,0-1.6,0-1.7-.6,0-.4.8-.3,1.1-.4Z"/>
      <path class="cls-37" d="M537,399.9c-.3-.6-1.3-.3-1.5-.8,0-.3.3-.3.4-.4.3-.1.5,0,.8,0,.7-.3,1.5-.2,2.2-.2-.5,0-1.3.2-1.6-.1-2,0-4,0-6,0-.5,0-.6,0-.6-.6-.3-7.5-4.7-6.4,2-9.6.2,0,.2.2.3.3.1.8.5,1.5.9,2.1.9,1.4,1.1,3.1,1.5,4.7.3,1-.4,2.8,1.2,2.7.9.1,2-.3,2.7.2.7,0,1.4,0,2,.2-.4.7-4-.2-3.2,1,1.3.7-.6.5-1.1.6Z"/>
      <path class="cls-8" d="M537.2,412.4c-.4-.2-.8-.3-1.1-.5,0,0,0-.1,0-.2.2.2,1.3.4,1.1.7Z"/>
      <path class="cls-34" d="M535.4,386.3c-.5.2-2.5,1.7-2.5.5,0-.3-.2-.5-.5-.6-1.5-1.1-2.5-2.9-4-4.1-1.1-1.2-2.7-1.9-4-2.9-.2-.3-.5-.4-.8-.4-1.3-.3,0-2.1.2-2.9,0,0,0,0,0,0,.4.5.8.7,1.4.9,2.6,1.1,4.8,3.2,6.8,5.3,1.1,1,2.2,2.2,2.7,3.7,0,.3.3.4.5.6Z"/>
      <path class="cls-43" d="M539.2,398.2c-6.5,0-2.8.5-4.8-5.5-.3-1.6-1.8-2.8-1.8-4.5.9-.5,1.8-1,2.7-1.4.2.8.8,1.4,1.2,2.1,1.8,2.8,2.3,6.1,2.7,9.3Z"/>
      <path class="cls-5" d="M537.2,412.4c0,0,0-.1,0-.2.6.3,1.1.6,1.7.9-.6,0-1.2-.4-1.7-.7Z"/>
      <path class="cls-14" d="M503.7,381c-.5-1-.9-1.9-1.4-2.9,2.6-1.9,6-2.5,9.3-2.7-.2,1.1.7,3.4-.9,3.6-1.4.3-2.7,1-4,1.3-1,.3-1.8,1.1-2.9.7Z"/>
      <path class="cls-49" d="M513.3,377.5c0-.9,0-1.8,0-2.7,0,0,0,0,0,0,0,1,0,1,1,.9,2.8-.1,5.8.9,8.1,2.5-1.6,4.2-1.1,1.5-5.5.8-2.2-.9-4.2.6-3.7-1.4Z"/>
      <path class="cls-53" d="M523.3,377.2c-.1,2.2.6.7,1.2,1.6,0,.3.3.5.6.7,2.2,1.1,3.9,2.8,5.5,4.5.7.6,1.1,1.8,2.1,2,.9,0,.2,1.1.9,1.3-.5.2-2.3,1.6-2.5.7,0-.4-.2-.5-.5-.3-.7.3-1.1-.4-1.5-.9-1.3-2-3-3.5-5.1-4.7-1.4-.7-.5-1.3-1.1-1.6-1.3-.2,0-2.5.5-3.2Z"/>
      <path class="cls-46" d="M497.2,398.8c1.2-.2,5.3.6,5.6-.6,1.4-5.2,1.6-2.8-3.2-6.3,2-.3,4.5,2.6,5.2,1.6,3.3-3.6,3.4-.9,1.1-6-.4-.5.2-.8.5-.2,2.6,4.3.5,3.3,5,2.6.3,0,.4-.2.4-.5.5-1.6-.6-3.8.9-5,.4,1.1-.7,5.6.9,5.6,3.9.7,2,1.5,4.8-3,.2-.4.5-.2.3.2-.3,1.1-.8,2.1-1.3,3.1-.4.8-.4.8.3,1.4.7.6,1.5,1.1,1.9,1.9.2.4.5.4,1,.1,1-.6,2-1.1,3-1.7.2-.1.5-.4.6-.2.2.2,0,.5-.3.7-.8.6-1.7,1.1-2.6,1.7-.8.6-.9.6-.5,1.5,1.1,3.9,1.6,2.8,5.1,3,.2,0,.4,0,.4.3.2.8-3.3.5-3.9.6-1.4.1-.8,2.7-1.7,3.7-.4,1,3.5,2.3,4.1,3.1-1.9.4-4.5-2.2-5-1.2-.7,2.1-3.5,2.3-2.8,3.4.5,1.2,1.4,2.2,1.5,3.5,0,.3-.2.4-.4.1-1.1-1.2-1.3-4.2-3.5-3.3-.7.4-1.9-.2-1.9,1-.2,1.5.4,3.3-.5,4.7-1.2,1.8.3-5.9-1.1-5.5-2.8.2-2.5-2.1-4.1,1.2,0,.3-2.3,3.3-1.8,1.9.6-1.2,1.3-2.4,1.8-3.6.3-.9.3-.9-.6-1.3-4.1-2.8-.6-3.2-6.4-.5-.7.3-1.2-.3-.3-.5,4.7-2.6,3.6-1.3,2.6-6-.2-1-1.6-.7-2.3-.8-1.1,0-2.1-.5-3.2-.8Z"/>
      <path class="cls-5" d="M534.7,411.2c-.8.2-2.1-.7-2.6.3,0,.1-.1.2-.2.3-.6.2-.8.7-1.1,1.2-.8,1.2-1.7,2.4-2.8,3.3-1,.9-1.9,2-3.2,2.5-.5.3-1.1.5-.9,1.3,0,.9-1.1-.4-1,1.3-.4-.5-2.8-4.8-1-4.1-.2-.8-1.1-1.9,0-2.4,2.1-1.2,4-2.7,5.2-4.8.5-.7.5-.7,1.4-.6.6.1.5-.7,1.4-.4,1.7.4,3.3,1.2,4.8,2Z"/>
      <path class="cls-5" d="M503.3,415.7c0,1-1,1.6-1,2.6-.4.4-.7,1-1.1,1.5-3.1-1.6-6-3.9-7.9-6.9-.5-.9-1.9.5-1.9-.8,0-1.3-2,.3-2-.9,1.6-.8,3.2-1.2,4.9-1.8,1-.4.4.8,1.1.6.7-.3,1.7-.7,2.1.2,1.4,2.1,3.3,3.8,5.6,4.8.3.1.5.3.3.7Z"/>
      <path class="cls-48" d="M490.9,387c1.9.5.9-1.1,2-.8.5.2.8,0,1-.4,1.1-1.8,2.5-3.3,4.1-4.7.6-.8,2.7-1.2,2.6-2.3,0-.9,1.3,0,1.1-1,.2.6,2.5,4.2.7,3.5.9,1.7-.5,2.3-1.7,3.2-1.2,1-2.3,2-3,3.4-1.6,2.3-2-.5-2.7.7-.7.8-3.4-1.4-4.3-1.7Z"/>
      <path class="cls-49" d="M491,410.2c-1.4-2.3-2.1-4.9-2.6-7.5-.3-.9.5-2.7-1-2.7-1.2,0-.8-.7-.8-1.5.2-.3.4-.1.6-.2.8-.1,1.6.1,2.5,0,1.1.3,0,1.1.7,1.2,1.2,0,2.6,0,2.6,1.6-.3,7.5,5,6.2-1.5,8.8-.1.2-.3.4-.5.2Z"/>
      <path class="cls-51" d="M494.7,408.6c-3.8-6.9.4-8.9-4.8-8.7-.5,0-.6-.5-.2-.6.4-.2.2-.4,0-.7.3-.2.7-.2,1,0,.9,0,1.8.1,2.7.2.5,0,2,.3.7.6-.1,0-.4,0-.4.2.5.5,2.2,0,3,.2.8.2,1,.3.9,1.1,0,1.2,0,2.6.4,3.7.4.6.9,1.9.1,2.4-1.1.6-2.3,1.2-3.5,1.6Z"/>
      <path class="cls-37" d="M490,398.2c-2-2.3,1.1-7.7,2.5-9.9,4.6,2.4,3.4,1.7,1.7,5.9-.9,1.2.6,4.9-1.8,4.1-.5,0-1,0-1.4,0-.3.1-.9.3-1-.1Z"/>
      <path class="cls-5" d="M522.4,379.1c.1,1.8,1.2.2,1.1,1.3-.2.9-.2,1,.6,1.4,1.3.7,2.4,1.5,3.4,2.5,1,.6,1.9,3.5,3.1,2.9,1.2-.6.5.4.9,1-.5.3-3.1,2.2-2.5.5-2.9,1.8-1.6-.4-5.1-3.1-.9-.7-2.9-1.1-2-2.6-.1-.4.2-.7.3-.9-1.8,1.5-.1-2.4.3-2.9Z"/>
      <path class="cls-5" d="M513.3,377.5c0,.3,0,.9.4.8,2.8-.3,5.4.8,7.8,2-2.6,5.3-1,3.7-4.7,2.9-4.7-1.7-3.7,1.4-3.5-5.7Z"/>
      <path class="cls-51" d="M492.4,398.3c1.1,0,1.2,0,1.1-1.4-.4-3.1,2.2-5.1,1.9-7,6,2.6,2.4,2.5,2.4,7.1.1,2.4-3.7,1.3-5.3,1.4,0,0,0,0-.1,0Z"/>
      <path class="cls-8" d="M529.4,390c-.3.4-.2.9,0,1.3.7,1.4.9,2.9,1.4,4.3.5.9-.5,2.9,1.1,2.7-1.3.3-2.6,0-3.8.2-.9,0-1.3-.2-1.3-1.1-.7-5.3-3.5-4.5,2.7-7.4Z"/>
      <path class="cls-5" d="M511.6,421.8c-1.8.3-3.6-.4-5.3-.9-.7-.3-1.6-.4-2.3-.8-.4-.2-.8,0-1.2.2-.1,0,0-.2,0-.3.4-.6.5-1.6,1.1-2,1.2-3.5,1.4-.4,7.2-.1.5,0,.6.2.6.8,0,1.1.1,2.2-.1,3.2Z"/>
      <path class="cls-8" d="M531.1,399.7c-1.1,2.1-.3,4.7-1.7,6.7-.3.5-.2,1-.4,1.6-5.6-2.1-2.3-2.9-2.1-7.2.2-1.8,3-.8,4.2-1.1Z"/>
      <path class="cls-8" d="M531.8,409.8c-.6,0-2.6-.9-2.6,0,0,.3-.2.2-.4.2-1.1-.3-1.1-.3-1.8.6-.4.6-1,1.1-1.4,1.8-1.1,1-2.4,2-3.8,2.8-1.3.3,1.3,2.9,0,2.6-.8-.4-.5.3-.5.8-.2-.6-1.8-3-.8-3.1.3,0,.2-.4,0-.6-.2-.6-1.1-1.5-.2-2,1.4-.9,2.5-2.1,3.7-3.3.6-.5.7-1.9,1.7-1.4.5.2,1,.4,1.5,0,1.5,0,3.1.9,4.4,1.7Z"/>
      <path class="cls-8" d="M521.7,383.3c-.2,1.5,3.3,1.8,5.3,5.5.3.5.4.5.9.2.3-.1,2.1-1.5,1.5-.4-.2.3-.5.5,0,.7-.3.3-2.9,1.9-2,.5,0,0,.2-.2.2-.3-1.6.3-2.8,2.8-4,.3-2.2-3.7-5.5-1.5-1.9-6.5Z"/>
      <path class="cls-8" d="M520.3,416.7c-.3-.2-.5-.2-.8,0-1.9,1-4.1,1.2-6.2,1.4-.1-.9-.2-2,0-2.9.6-.3,1.4-.2,2.1-.3,3.6-.5,3-2.4,4.9,1.8Z"/>
      <path class="cls-30" d="M529.6,408.7c-3.9-1.1-.7,1.2-3.5-.4-.4-.2-.7-.1-.9.3-1.1,1.8-2.6,3.2-4.3,4.4-.3.2-.5.4-.5.8-2.3-3,.7-2.3,2.9-5.8.6-1.5,1.5-.4,2.5,0,.3.1.6.4.8,0,.9-.4,2.3.5,3.1.9Z"/>
      <path class="cls-51" d="M503.7,382c.3.2,1.3,2.3.4,2.1-.3,0-.2.1-.2.3.3.7,1.2,1.6.3,2.3-1.4,1.2-2.7,2.3-3.9,3.7-.6,1.2-1.7-.3-2.5-.6,0,0,0-.1,0-.1.8-.2,1-.9,1.4-1.5,1-1.3,2.2-2.3,3.4-3.3.5-.4.6-.6.3-1.2-.1-.3-.7-1.7,0-1.5.2.1.4,0,.6,0Z"/>
      <path class="cls-33" d="M503.7,382c0,.2.3.6,0,.8-.3.2-.4-.6-.8-.4-.2.3.3.7.4,1.1.9,1.3-2.3,2.7-3,3.9-.9.7-1.1,2.4-2.4,2.3-.4-.2-1.8-.4-1.4-1,.5.1.8-.2,1-.5,1-1.7,2.3-3.1,4-4.2,1.3-.9,1.4-1,.8-2.5,0-.2-.2-.4,0-.5.3-.1.8.9,1,0,.2.4.4.7.5,1.1Z"/>
      <path class="cls-30" d="M498.2,408.5c1.6-1.1,2.4-2,3.3.3,1,.3,1.4,1.3,2.3,1.8,1.9.8,1.5,1.9.5,3.3-1.6-1.4-3.9-2-4.8-4.1-.3-.5-.5-1-1.2-1.1,0,0,0-.1,0-.2Z"/>
      <path class="cls-51" d="M503.3,415.7c-.2-.4-.6-.6-1-.7-1.5-.6-2.6-1.7-3.7-2.9-1.2-.8-1.4-3-2.9-2.1-2.4,1.5-.2-.9-2.3-.4.4-.3.8-.3,1.2-.6.9-.1,1-.7,1.7.3.3-.2.8-.1,1.1-.4,2.2-.7.7,1.4,3.7,2.9,1,.4,1.6,1.4,2.4,2,1,.2.2,1.5-.2,1.9Z"/>
      <path class="cls-51" d="M511.7,418.5c-.6-.9-4-.6-5.2-1.4-.7-.2-1.2-1-2-.5.4-.7.6-2.5,1.7-2,1.4,1,4.7.6,5.6,1.6,0,.8.1,1.6,0,2.3Z"/>
      <path class="cls-30" d="M519.2,414.5c-.3-.3-.6-.4-1-.1-1.3,1.1-4.6.3-5,1.6-.2-1.3-.2-3,1.5-3,2-.2,3.7-1.2,4.5,1.5Z"/>
      <path class="cls-30" d="M505.6,414.2c1-3.1,2-.7,5.3-1.1,1.1,0,1,2.1.9,2.9-1.3-1.2-3.3-.7-4.9-1.5-.3-.1-.6-.2-1-.2-.1,0-.3,0-.3-.2Z"/>
      <path class="cls-51" d="M503.8,414.8c.1-.7-.5-.6-.9-1-.8-1.6-2.9-1.8-3.9-3.3-.5-.8-.4-1.8-1.7-1.6,1.8-1.4,2.2.9,3.1,2,1.1.8,2.1,1.6,3.2,2.2.9.4.4,1.1,0,1.7Z"/>
      <path class="cls-44" d="M505.6,414.2c.5-.3,1,0,1.4,0,1.3.8,4.7,0,4.8,1.9-1.9-.5-3.9-.5-5.7-1.3-.3-.1-.5-.2-.8-.1,0-.2.2-.4.3-.6Z"/>
      <path class="cls-51" d="M496.5,388.7c.5.3.9.7,1.4,1-.2,0-.4,0-.4.2-.4,1-2.5-.7-3.1-1,1.5,0-.8-2,2.1-.2Z"/>
      <path class="cls-8" d="M533.8,398.7c-2.2.7.9.7,1.6,1-1.2.2-2.2,0-3.3,0-.5-.4-1.1-.2-1.6-.4-.2,0-.7,0-.7-.2.7-.7,3-.3,4.1-.4Z"/>
      <path class="cls-8" d="M521.7,380.7c0,.3-.6,1.9.2,1.2.2-.1.4-.6.6-.4.3.2-.1.5-.2.8-.1.2-.2.5-.5.7-.5.2-.7.7-1.1,1.1-1.5,1.5.9-3.1,1-3.4Z"/>
      <path class="cls-51" d="M501.1,419.6c.8-1.5,4.7-7,2.5-1.7-.9-.3-2.3,3.5-2.9,2,.1-.2.2-.4.5-.3Z"/>
      <path class="cls-30" d="M503.8,417.4c1-3.5-1.2.5-2,1.1.4-.9.9-1.7,1.4-2.5.3.2.4,0,.5-.2,1.9-3,.7.6.1,1.6Z"/>
      <path class="cls-30" d="M520.8,414.8c.2.3.6.7.5,1-.1.2-.3,0-.4,0-.6,0-.2.7-.1,1-.3-.3-1.3-2.6-.2-1.9.1,0,.2,0,.3,0Z"/>
      <path class="cls-46" d="M490.4,398.3c.2,0,.4,0,.6,0,0,0-.2.2-.3.3-1.7,0-3.4-.1-5.1-.2,0,0,0-.1,0-.2,1.6,0,3.2,0,4.8,0Z"/>
      <path class="cls-30" d="M503.5,417.8c0,0,.1-.1.2-.2,0,0,.1.2.2.3-.6,1.2-1.1,2.5-1.8,3.7-.6,0-.2-.8,0-1,.5-.8.6-2.3,1.4-2.8Z"/>
      <path class="cls-30" d="M497.1,409.1c-1.8,1.2-.3-.6-1.5-.3-.1,0-.3.1-.4,0,.3-.3,3-1.2,2.1-.3-.1.2-.4.3-.2.6Z"/>
      <path class="cls-30" d="M491,410.2c.2,0,.3-.1.5-.2,0,0,.1.1.2.2-.8.3-1.6.7-2.3,1,0,.4-.3.5-.6,0,.7-.4,1.5-.7,2.2-1.1Z"/>
      <path class="cls-8" d="M537.3,398.3h2.1c0,0,0,.1,0,.2-.8.2-1.6,0-2.3,0,0,0,.1-.2.2-.3Z"/>
      <path class="cls-51" d="M495.2,408.8c1.3-.2,1-.4,1.2.7-.9.7,0-.7-1-.6-.3,0-.5.1-.7,0,.2,0,.3-.1.5-.2Z"/>
      <path class="cls-8" d="M536.7,398.7c-.8,0-1.6,0-2.4,0,.8-.1,1.6-.2,2.4,0Z"/>
      <path class="cls-46" d="M492.6,398.4c.6,0,1.1,0,1.7,0-.6.1-1.1.1-1.7,0Z"/>
      <path class="cls-46" d="M495,398.5c.4,0,.7,0,1.1,0-.4.2-.7.2-1.1,0Z"/>
      <path class="cls-51" d="M502,421.4s0,0,.1.1c-.2.7-.6,1.3-.8,1.9,0,0-.1,0-.2,0-.4-.5.3-1.3.5-1.9,0-.2.2-.3.4-.2Z"/>
      <path class="cls-26" d="M502,421.4c-.4.6-.6,1.4-.9,2-.7-.4-2.5,1.1-2,0,.1-.4,0-.6-.3-.8-3.5-1.9-6.5-4.6-8.8-7.9-.2-.3-.4-.7-.8-.8-.2,0-.3-.3-.3-.5,0-1-.7-1-1.4-1.3.7-.3,1.3-.6,2-.9.4.2.9,0,1.3,0,1.5-.5.3,1.6,1.5,1.1,1.3-.5,1.6,1.4,2.4,2.1,1.2,1.3,2.7,2.5,4,3.6.7.7,2,.7,2.5,1.7,0,.1-.1.3-.2.4.1.6-.4,1.2-.6,1.6.6-.8,2.8-2.5,1.7-.2Z"/>
      <path class="cls-51" d="M490.4,398.3c-.5,0-1.1,0-1.6,0,.5,0,1.1,0,1.6,0Z"/>
      <path class="cls-51" d="M486.2,398.4c.4,0,.8,0,1.1,0-.4,0-.8,0-1.1,0Z"/>
      <path class="cls-51" d="M488.3,398.5c.4,0,.9,0,1.3,0-.4,0-.9,0-1.3,0Z"/>
      <path class="cls-5" d="M502.3,420.7c-.6-.4-1.9,1.5-2.4,1.4.3-.7.6-1.4,1-2,.8,0,2-3,2.6-2.2-.4,1-.7,1.9-1.2,2.8Z"/>
    </g>
  </g>
</svg>