<?xml version="1.0" encoding="utf-8" ?>
<svg xmlns="http://www.w3.org/2000/svg" xmlns:xlink="http://www.w3.org/1999/xlink" width="1024" height="1024">
	<path fill="#FEFEFE" d="M0 0L1024 0L1024 1024L0 1024L0 0Z"/>
	<path fill="#9A35C5" d="M718.877 673.671C723.7 669.768 728.311 665.663 732.923 661.515L732.648 662.287C732.253 663.369 731.729 664.37 731.193 665.387C732.684 665.394 733.972 664.797 735.529 664.821C730.662 668.495 724.391 671.068 718.877 673.671Z"/>
	<path fill="#47117E" d="M440.856 180.376L441.239 179.962C443.299 186.077 444.246 192.364 446.507 198.517C455.397 222.717 472.065 243.545 495.382 255.025C505.405 259.96 516.729 259.828 527.158 256.214C548.965 248.657 565.113 227.177 574.751 207.147Q577.351 201.732 579.436 196.098C580.566 192.99 581.11 187.947 582.899 185.396L583.258 186.354C580.607 207.302 571.934 228.472 558.711 245.057C550.003 255.979 528.746 273.935 514.446 275.238C502.741 276.304 488.75 266.324 480.376 259.161C456.842 239.031 443.287 211.068 440.856 180.376Z"/>
	<path fill="#9A35C5" d="M278.476 443.26C276.669 431.611 277.353 411.885 277.675 399.671C277.816 394.32 277.844 369.993 281.145 366.865C289.219 367.343 340.337 406.388 347.156 413.403C342.424 433.067 338.262 451.716 338.467 472.098C329.308 459.656 320.621 446.528 312.894 433.155C308.724 425.938 305.458 417.797 300.763 410.924C300.389 411.993 305.536 423.672 306.359 425.854C305.285 426.553 304.734 426.572 303.489 426.655C301.95 426.758 300.446 427.292 298.913 427.504C293.47 428.257 288.159 428.088 283.397 431.278C282.681 431.758 280.932 433.31 280.06 432.727L279.781 433.445L279.701 432.805C278.595 436.318 279.727 439.772 278.476 443.26Z"/>
	<defs>
		<linearGradient id="gradient_0" gradientUnits="userSpaceOnUse" x1="268.12451" y1="439.20413" x2="371.14291" y2="611.37335">
			<stop offset="0" stop-color="#9722B6"/>
			<stop offset="1" stop-color="#CB6FE5"/>
		</linearGradient>
	</defs>
	<path fill="url(#gradient_0)" d="M278.476 443.26C279.727 439.772 278.595 436.318 279.701 432.805L279.781 433.445L280.06 432.727C280.932 433.31 282.681 431.758 283.397 431.278C288.159 428.088 293.47 428.257 298.913 427.504C300.446 427.292 301.95 426.758 303.489 426.655C304.734 426.572 305.285 426.553 306.359 425.854C312.395 442.276 319.012 458.742 327.086 474.279C330.802 481.43 336.569 488.017 339.62 495.403C341.533 500.035 341.735 505.573 342.584 510.494Q343.835 517.872 346.347 524.922C355.196 550.207 366.416 568.147 386.092 586.319C391.647 591.449 398.085 595.966 403.243 601.441C382.762 592.009 351.239 576.451 329.326 575.052C321.049 574.523 313.43 575.773 305.524 578.139C291.819 544.823 284.427 507.835 280.472 472.123C279.424 462.666 278.301 452.775 278.476 443.26Z"/>
	<path fill="#47117E" d="M504.827 727.689C511.87 726.591 519.607 728.839 526.691 729.326C548.421 730.819 575.141 732.6 596.555 728.713Q592.737 732.432 589.053 736.283Q585.37 740.135 581.825 744.114Q578.279 748.094 574.877 752.196Q571.475 756.299 568.22 760.519Q564.965 764.739 561.862 769.072Q558.758 773.405 555.81 777.844Q552.861 782.284 550.072 786.825Q547.283 791.367 544.656 796.004Q542.028 800.641 539.567 805.368Q537.106 810.095 534.813 814.907Q532.521 819.718 530.4 824.607Q528.279 829.497 526.332 834.458Q524.386 839.42 522.616 844.447Q520.846 849.474 519.255 854.561Q517.664 859.647 516.254 864.787Q514.844 869.927 513.617 875.113C512.824 878.173 512.401 881.297 511.926 884.419C510.613 872.393 506.292 859.737 502.292 848.353C485.221 799.775 462.668 766.249 428.471 728.171C453.149 732.703 480.102 731.109 504.827 727.689Z"/>
	<defs>
		<linearGradient id="gradient_1" gradientUnits="userSpaceOnUse" x1="785.99249" y1="415.87186" x2="603.17841" y2="580.79993">
			<stop offset="0" stop-color="#8B13A8"/>
			<stop offset="1" stop-color="#C661E7"/>
		</linearGradient>
	</defs>
	<path fill="url(#gradient_1)" d="M742.126 364.497C742.49 364.72 742.741 365.063 742.895 365.465C745.037 371.033 746.083 394.98 746.401 401.822C748.552 448.003 745.845 495.213 732.208 539.662C728.253 552.552 723.043 565.104 718.101 577.642C711.728 575.689 705.368 574.416 698.681 574.56C671.926 575.134 636.987 594.769 612.302 605.3C618.442 599.894 625.542 595.468 631.823 590.163C642.094 581.491 650.774 571.506 659.662 561.476C675.055 543.95 680.301 528.696 683.637 505.848C684.473 500.117 684.561 493.24 686.94 487.924C689.929 481.245 694.542 475.111 698.081 468.689C705.326 455.544 711.682 441.847 718.061 428.268C720.904 422.218 724.296 416.112 726.445 409.797C713.418 428.288 698.794 445.754 685.364 463.977C685.523 446.801 682.962 429.846 679.124 413.151C693.738 398.997 710.188 386.476 726.823 374.815C731.832 371.303 736.804 367.521 742.126 364.497Z"/>
	<path fill="#AB7FC6" d="M603.963 187.151C613.268 189.231 622.217 193.135 630.996 196.779C666.614 211.562 698.073 231.12 727.845 255.519C746.872 271.113 764.021 289.773 778.971 309.272C823.072 366.791 846.667 431.823 853.729 503.679C849.079 504.534 844.646 505.85 840.13 507.219Q831.757 510.078 823.292 512.65C820.817 478.327 814.337 445.963 802.486 413.603C773.074 333.291 716.505 273.168 640.959 234.202C635.078 231.168 629.125 228.269 622.923 225.944C614.415 222.755 605.438 220.188 597.226 216.31L596.422 215.925C600.277 206.461 602.45 197.212 603.963 187.151Z"/>
	<path fill="#AB7FC6" d="M420.043 186.088C421.803 188.819 421.472 195.263 422.276 198.661C423.63 204.384 426.204 209.841 428.689 215.144C386.031 229.115 345.942 250.338 312.155 280.17Q309.671 282.341 307.232 284.562Q304.793 286.784 302.4 289.055Q300.008 291.326 297.662 293.645Q295.316 295.964 293.018 298.331Q290.72 300.698 288.471 303.112Q286.222 305.525 284.023 307.984Q281.824 310.443 279.675 312.947Q277.527 315.45 275.43 317.997Q273.334 320.544 271.29 323.134Q269.246 325.723 267.255 328.354Q265.265 330.984 263.328 333.655Q261.392 336.326 259.511 339.036Q257.629 341.746 255.804 344.494Q253.979 347.242 252.21 350.027Q250.441 352.811 248.73 355.632Q247.019 358.452 245.366 361.307Q243.712 364.161 242.118 367.049Q240.523 369.938 238.989 372.858Q237.454 375.778 235.979 378.729Q234.504 381.679 233.09 384.66Q231.676 387.64 230.323 390.649Q228.97 393.658 227.679 396.694Q226.388 399.73 225.16 402.791Q223.931 405.853 222.765 408.939Q221.6 412.025 220.498 415.134Q219.396 418.244 218.357 421.375Q217.319 424.506 216.345 427.658Q215.371 430.81 214.462 433.981Q213.553 437.152 212.709 440.342Q211.865 443.531 211.086 446.736Q210.307 449.942 209.595 453.163Q208.882 456.384 208.235 459.619C204.844 477.229 203.578 495.09 202.474 512.958C197.239 511.087 192.063 508.998 186.873 507.001C182.269 505.209 177.397 503.937 172.667 502.503C176.197 452.928 188.279 405.371 210.867 360.997Q212.625 357.588 214.456 354.218Q216.287 350.849 218.191 347.52Q220.095 344.19 222.071 340.903Q224.047 337.616 226.094 334.373Q228.141 331.13 230.258 327.932Q232.375 324.734 234.561 321.582Q236.747 318.431 239.001 315.328Q241.255 312.225 243.576 309.172Q245.897 306.118 248.284 303.116Q250.67 300.114 253.122 297.165Q255.573 294.215 258.088 291.319Q260.603 288.424 263.18 285.584Q265.757 282.743 268.396 279.96Q271.034 277.176 273.732 274.451Q276.43 271.725 279.187 269.059Q281.944 266.393 284.758 263.787Q287.572 261.181 290.442 258.637Q293.312 256.093 296.237 253.612Q299.161 251.131 302.139 248.714Q305.117 246.297 308.147 243.946Q311.177 241.594 314.257 239.309Q317.337 237.024 320.466 234.806Q323.595 232.589 326.772 230.44Q329.948 228.29 333.171 226.211Q336.393 224.131 339.66 222.122Q342.927 220.113 346.237 218.175Q349.546 216.238 352.898 214.373Q356.249 212.507 359.64 210.715Q363.03 208.924 366.459 207.206Q369.888 205.488 373.354 203.845Q376.82 202.202 380.32 200.635Q383.82 199.068 387.354 197.577C398.025 193.075 409.038 189.659 420.043 186.088Z"/>
	<path fill="#9A35C5" d="M440.856 180.376C440.206 178.591 440.35 176.42 440.3 174.522C440.041 164.711 441.555 155.249 445.698 146.298C453.872 128.633 469.338 113.469 487.758 106.911C506.314 100.306 526.315 102.256 543.947 110.664C560.47 118.543 573.887 134.959 579.95 152.088C582.699 159.855 586.125 178.585 583.258 186.354L582.899 185.396C581.11 187.947 580.566 192.99 579.436 196.098Q577.351 201.732 574.751 207.147C565.113 227.177 548.965 248.657 527.158 256.214C516.729 259.828 505.405 259.96 495.382 255.025C472.065 243.545 455.397 222.717 446.507 198.517C444.246 192.364 443.299 186.077 441.239 179.962L440.856 180.376Z"/>
	<path fill="#47117E" d="M129.79 744.212C130.361 744.162 130.926 744.115 131.499 744.089C227.902 739.71 335.226 774.996 411.815 833.221C429.917 846.983 446.732 862.144 463.148 877.856C471.967 886.299 480.453 895.136 489.525 903.306C481.837 901.355 473.884 900.14 466.097 898.61C447.318 894.92 428.317 891.425 409.706 886.955Q403.923 885.583 398.175 884.069Q392.428 882.555 386.719 880.9Q381.011 879.245 375.345 877.449Q369.679 875.653 364.059 873.719Q358.44 871.784 352.869 869.711Q347.299 867.638 341.781 865.429Q336.263 863.219 330.802 860.874Q325.34 858.53 319.938 856.051Q314.536 853.572 309.197 850.961Q303.858 848.349 298.585 845.607Q293.311 842.865 288.108 839.994Q282.904 837.122 277.772 834.123Q272.64 831.125 267.584 828Q262.528 824.876 257.551 821.628Q252.573 818.38 247.677 815.01Q242.781 811.64 237.97 808.15C225.784 799.213 215.217 788.356 203.191 779.348L202.499 778.834C209.472 788.429 222.493 800.883 231.179 809.468C281.012 859.429 352.094 895.724 421.063 910.165Q439.575 914.06 458.352 916.353C464.56 917.054 471.24 916.754 477.318 917.939C469.659 919.212 461.846 919.488 454.101 919.861Q442.451 920.425 430.788 920.333Q419.125 920.241 407.486 919.492Q395.847 918.744 384.268 917.342Q372.69 915.94 361.208 913.889Q357.436 913.224 353.675 912.498Q349.914 911.772 346.165 910.985Q342.416 910.198 338.68 909.35Q334.945 908.503 331.223 907.595Q327.502 906.687 323.796 905.719Q320.09 904.751 316.4 903.723Q312.71 902.695 309.037 901.608Q305.364 900.52 301.709 899.374Q298.054 898.227 294.418 897.021Q290.783 895.815 287.167 894.551Q283.551 893.286 279.956 891.963Q276.361 890.641 272.788 889.26Q269.215 887.879 265.665 886.44Q262.115 885.002 258.589 883.506Q255.062 882.01 251.561 880.457Q248.059 878.905 244.583 877.295Q241.107 875.686 237.657 874.021Q234.208 872.356 230.785 870.635Q227.363 868.914 223.969 867.138Q220.575 865.362 217.211 863.531Q213.846 861.701 210.511 859.816Q207.177 857.931 203.873 855.992Q200.569 854.053 197.298 852.061Q194.026 850.069 190.787 848.025Q187.547 845.98 184.342 843.883Q181.136 841.786 177.965 839.638Q174.793 837.489 171.657 835.29Q168.521 833.09 165.421 830.84Q162.321 828.591 159.258 826.291Q156.195 823.991 153.169 821.642Q150.143 819.293 147.156 816.895Q144.169 814.497 141.221 812.051C128.992 801.923 117.26 791.665 106.26 780.203C97.072 770.629 86.8917 761.092 79.2965 750.184C95.7403 746.668 113.021 745.195 129.79 744.212Z"/>
	<path fill="#47117E" d="M858.154 744.211C880.654 742.176 922.422 744.886 944.539 749.751C926.535 772.595 905.328 794.119 882.881 812.62Q878.52 816.262 874.071 819.796Q869.621 823.329 865.087 826.752Q860.552 830.176 855.934 833.486Q851.317 836.797 846.62 839.993Q841.922 843.19 837.147 846.27Q832.373 849.35 827.524 852.311Q822.675 855.273 817.755 858.115Q812.835 860.956 807.847 863.676Q802.858 866.396 797.804 868.992Q792.751 871.589 787.634 874.06Q782.518 876.532 777.343 878.877Q772.168 881.222 766.937 883.439Q761.705 885.656 756.421 887.744Q751.137 889.832 745.803 891.79Q740.469 893.747 735.089 895.573Q729.708 897.399 724.285 899.092Q718.861 900.785 713.397 902.344Q707.934 903.903 702.434 905.328Q696.933 906.753 691.4 908.042Q685.866 909.33 680.302 910.483Q674.739 911.636 669.149 912.651Q663.558 913.667 657.945 914.545Q652.331 915.422 646.698 916.162Q641.064 916.902 635.415 917.503Q629.765 918.104 624.102 918.566Q618.439 919.028 612.766 919.351Q607.094 919.673 601.415 919.857Q595.736 920.04 590.054 920.083Q584.373 920.127 578.692 920.031Q573.011 919.935 567.334 919.7Q561.657 919.464 555.988 919.089Q550.318 918.714 544.66 918.2C558.615 916.827 572.497 916.392 586.359 913.939C648.904 902.872 718.398 872.147 767.277 831.406C781.902 819.029 796.566 805.778 808.99 791.146C810.778 789.04 812.776 787.138 814.365 784.87C814.717 784.367 814.646 784.635 814.538 784.005C809.004 788.484 804.057 793.608 798.382 797.973C736.764 845.354 668.835 876.083 593.043 892.908C573.595 897.225 553.561 899.36 533.982 903.266C556.517 882.004 578.591 860.61 602.96 841.374Q606.344 838.661 609.78 836.015Q613.216 833.369 616.702 830.79Q620.189 828.212 623.726 825.702Q627.262 823.191 630.847 820.751Q634.432 818.31 638.063 815.94Q641.695 813.569 645.372 811.27Q649.049 808.971 652.771 806.744Q656.492 804.517 660.256 802.363Q664.02 800.209 667.825 798.129Q671.631 796.048 675.476 794.043Q679.321 792.037 683.204 790.107Q687.088 788.176 691.008 786.322Q694.929 784.468 698.885 782.691Q702.84 780.913 706.83 779.213Q710.82 777.513 714.842 775.891Q718.864 774.27 722.917 772.726Q726.97 771.183 731.052 769.719Q735.134 768.256 739.245 766.872Q743.354 765.488 747.491 764.184Q751.627 762.881 755.788 761.658Q759.949 760.435 764.133 759.294Q768.317 758.153 772.522 757.093Q776.727 756.034 780.953 755.056Q785.178 754.079 789.421 753.184Q793.665 752.29 797.925 751.478Q802.185 750.666 806.46 749.937Q810.735 749.208 815.024 748.563Q819.312 747.918 823.613 747.357Q827.913 746.795 832.223 746.318Q836.534 745.84 840.853 745.447Q845.171 745.054 849.497 744.745Q853.823 744.436 858.154 744.211Z"/>
	<path fill="#47117E" d="M692.232 591.679C701.56 590.987 711.165 591.914 719.279 596.949Q719.893 597.338 720.486 597.756Q721.08 598.175 721.652 598.622Q722.224 599.069 722.774 599.545Q723.323 600.02 723.848 600.522Q724.373 601.024 724.873 601.551Q725.373 602.078 725.845 602.63Q726.318 603.181 726.763 603.755Q727.208 604.33 727.624 604.925Q728.04 605.521 728.426 606.136Q728.812 606.751 729.167 607.385Q729.521 608.019 729.844 608.669Q730.167 609.32 730.458 609.986Q730.748 610.652 731.005 611.331Q731.262 612.01 731.485 612.702Q731.708 613.393 731.897 614.095Q732.085 614.796 732.239 615.506C734.555 626.061 730.809 638.146 724.984 646.971C716.893 659.227 703.016 666.826 690.428 673.716Q683.996 677.266 677.429 680.561Q670.863 683.855 664.172 686.89Q657.481 689.925 650.677 692.695Q643.872 695.465 636.964 697.966Q630.057 700.468 623.056 702.696Q616.055 704.925 608.973 706.877Q601.89 708.829 594.737 710.503Q587.583 712.176 580.369 713.567C558.058 718.074 534.682 721.182 511.886 721.036C500.362 720.962 488.939 719.742 477.511 718.355C423.142 711.761 366.755 693.99 320.948 663.584C311.094 656.969 301.498 648.856 295.907 638.173C291.935 630.583 289.952 621.792 292.761 613.447C295.231 606.11 300.482 600.348 307.409 596.953C315.069 593.198 324.225 592.823 332.516 594.11C350.147 596.847 367.999 604.846 384.54 611.335C401.732 618.079 418.64 625.445 435.76 632.351C446.697 636.763 457.823 640.603 468.705 645.178C483.371 651.344 497.785 658.871 512.802 664.071C527.802 659.62 543.951 650.793 558.682 644.769C578.74 636.567 599.39 629.815 619.189 620.927C640.754 611.246 669.192 594.375 692.232 591.679Z"/>
	<defs>
		<linearGradient id="gradient_2" gradientUnits="userSpaceOnUse" x1="118.10175" y1="479.32251" x2="453.19037" y2="921.44574">
			<stop offset="0" stop-color="#890AAB"/>
			<stop offset="1" stop-color="#E490F9"/>
		</linearGradient>
	</defs>
	<path fill="url(#gradient_2)" d="M211.454 729.19C199.591 716.854 187.732 704.189 177.033 690.827C145.738 651.745 123.992 607.826 106.231 561.28C100.485 546.22 91.2666 520.6 88.8696 505.089C88.6629 503.751 88.3074 502.645 89.1085 501.522C89.7629 501.382 90.3456 501.272 91.0179 501.268C98.4937 501.225 113.93 505.729 121.424 507.656C171.54 520.54 220.18 538.694 264.773 565.181C274.655 571.05 284.625 576.759 293.192 584.508Q291.286 586.077 289.439 587.715C280.614 595.631 275.714 607.806 275.153 619.501C274.505 633.025 279.266 646.685 287.459 657.401C291.434 662.6 296.359 667.344 300.749 672.215C290.012 667.463 279.689 661.353 269.495 655.543C221.616 628.253 179.082 594.407 138.877 556.875Q130.539 549.063 122.661 540.788C119.004 536.904 115.521 532.733 111.602 529.124L111.6 529.686Q123.554 544.476 135.881 558.956C147.035 572.242 158.164 585.486 170.464 597.746Q176.941 604.118 183.637 610.259Q190.334 616.401 197.241 622.304Q204.147 628.207 211.257 633.866Q218.366 639.524 225.668 644.93Q232.971 650.336 240.458 655.484Q247.946 660.631 255.608 665.513Q263.271 670.396 271.1 675.007Q278.929 679.618 286.914 683.953C300.484 691.491 314.353 698.886 328.755 704.713C352.171 714.187 376.142 720.625 400.929 725.209C407.627 731.48 414.491 738.717 420.097 745.977C428.945 754.718 436.68 765.228 443.824 775.378C469.967 812.522 484.82 846.249 496.793 889.822C496.686 889.718 496.578 889.616 496.473 889.511C492.194 885.262 488.594 880.123 484.663 875.535C477.422 867.081 469.731 858.713 461.852 850.852C439.63 828.682 413.548 809.605 387.27 792.547C382.512 789.458 377.429 786.855 372.689 783.767C367.651 782.097 361.446 777.938 356.506 775.401Q343.813 768.968 330.639 763.589C306.233 753.607 281.84 745.075 256.234 738.641C241.472 734.932 226.379 732.167 211.454 729.19Z"/>
	<defs>
		<linearGradient id="gradient_3" gradientUnits="userSpaceOnUse" x1="919.67126" y1="489.30865" x2="550.34155" y2="906.28851">
			<stop offset="0" stop-color="#8300A5"/>
			<stop offset="1" stop-color="#E795FA"/>
		</linearGradient>
	</defs>
	<path fill="url(#gradient_3)" d="M728.282 582.146C735.877 576.6 745.128 572.207 753.405 567.688C768.22 559.6 783.448 551.541 798.903 544.732C810.836 539.475 823.171 534.9 835.301 530.106C861.94 519.578 889.147 509.761 917.314 504.21C921.745 503.337 928.539 500.733 932.851 501.654C933.862 501.87 934.317 502.159 935.069 502.823C935.312 510.228 929.124 531.244 926.639 539.459Q924.711 545.886 922.601 552.255Q920.491 558.624 918.199 564.93Q915.907 571.236 913.436 577.474Q910.965 583.712 908.317 589.876Q905.669 596.041 902.846 602.128Q900.022 608.214 897.026 614.218Q894.03 620.221 890.863 626.136Q887.697 632.052 884.362 637.874Q881.028 643.697 877.529 649.421Q874.03 655.146 870.368 660.768Q866.706 666.391 862.886 671.906Q859.065 677.422 855.088 682.825Q851.111 688.229 846.982 693.517Q842.852 698.806 838.573 703.973Q834.294 709.141 829.869 714.185Q825.443 719.228 820.876 724.143Q818.9 726.291 816.815 728.334C795.925 730.362 775.014 735.164 754.803 740.736C739.123 744.392 722.616 751.194 707.723 757.333C696.537 761.945 685.303 766.638 674.485 772.071C618.31 800.283 568.901 840.901 527.69 888.127C530.534 877.241 533.293 866.057 537.047 855.453C554.955 804.876 585.777 762.639 623.585 725.196C649.082 720.208 673.385 712.456 697.548 703.016C709.134 699.169 720.653 692.937 731.458 687.322Q737.142 684.352 742.746 681.233Q748.35 678.115 753.87 674.851Q759.391 671.586 764.823 668.178Q770.256 664.77 775.597 661.22Q780.939 657.671 786.185 653.982Q791.431 650.293 796.579 646.468Q801.727 642.643 806.772 638.684Q811.818 634.725 816.757 630.635Q821.697 626.545 826.528 622.327Q831.359 618.109 836.077 613.765Q840.795 609.422 845.398 604.956Q850.001 600.49 854.484 595.904Q858.968 591.319 863.33 586.618Q867.692 581.916 871.929 577.102Q876.166 572.288 880.275 567.364Q884.385 562.44 888.363 557.41C893.921 550.263 900.672 542.701 904.988 534.817C904.242 534.815 898.086 542.262 897.13 543.322Q886.119 555.507 873.935 566.519Q861.087 578.41 847.622 589.598Q834.158 600.786 820.115 611.239Q806.073 621.693 791.493 631.382Q776.912 641.071 761.836 649.969C753.694 654.792 745.013 660.53 736.404 664.433L735.529 664.821C733.972 664.797 732.684 665.394 731.193 665.387C731.729 664.37 732.253 663.369 732.648 662.287L732.923 661.515C743.515 648.779 750.605 632.388 749.001 615.512C747.401 598.673 739.628 592.817 728.282 582.146Z"/>
	<defs>
		<linearGradient id="gradient_4" gradientUnits="userSpaceOnUse" x1="531.40845" y1="628.95337" x2="488.38049" y2="283.26593">
			<stop offset="0" stop-color="#531D87"/>
			<stop offset="1" stop-color="#842DB4"/>
		</linearGradient>
	</defs>
	<path fill="url(#gradient_4)" d="M485.591 282.087C491.408 285.148 497.075 288.388 503.524 289.949C516.058 292.983 526.398 289.1 537.06 282.686C538.852 287.328 540.684 291.933 543.584 296.014C555.057 312.164 578.705 315.569 595.532 323.96C628.248 340.272 647.286 370.06 658.55 403.796Q661.927 414.039 664.301 424.559Q666.674 435.08 668.02 445.781C671.148 471.92 669.94 511.758 657.949 535.205C650.736 549.309 637.021 561.04 625.353 571.459C602.406 591.952 571.049 617.784 541.6 627.521C524.566 633.433 500.53 633.007 483.197 628.459C447.239 619.023 386.058 565.722 367.361 533.439C354.293 510.875 352.295 476.551 355.112 450.948C356.414 439.11 359.055 427.18 362.148 415.687C370.818 383.467 392.408 344.441 422.472 328.266C436.398 320.774 452.051 316.515 465.628 308.611C476.228 302.44 482.536 293.897 485.591 282.087Z"/>
	<path fill="#FEFEFE" d="M529.788 589.669L535.231 589.146C537.945 590.52 540.261 591.964 541.882 594.623C543.635 597.497 544.024 601.387 543.19 604.621C542.156 608.624 539.226 611.354 535.737 613.338C523.938 620.045 508.07 619.625 495.387 616.117C492.489 615.132 489.488 613.796 486.947 612.077C483.981 610.071 481.588 607.424 480.945 603.803C480.397 600.716 481.262 596.556 483.142 594.031C488.658 586.625 503.308 591.795 511.153 591.716C517.434 591.652 523.6 590.636 529.788 589.669Z"/>
	<path fill="#FEFEFE" d="M415.749 400.752C416.994 401.796 417.466 403.57 418.036 405.055C430.757 438.187 447.694 489.157 446.46 524.759C446.108 534.888 444.206 544.577 440.089 553.855L434.345 548.113C422.07 535.051 406.833 517.608 400.272 500.886C398.155 495.492 397.125 489.905 396.938 484.124C396.194 461.203 406.53 422.178 415.749 400.752Z"/>
	<path fill="#FEFEFE" d="M607.525 402.775C610.611 407.246 613.528 415.973 615.585 421.3C623.824 442.643 634.806 479.922 625.201 501.286C615.564 522.722 590.255 553.65 571.815 567.859Q569.373 569.752 566.795 571.456Q564.217 573.16 561.519 574.665Q558.82 576.17 556.017 577.469Q553.213 578.767 550.319 579.851C526.577 588.794 498.246 589.48 474.945 578.978C465.736 574.63 458.069 569.083 450.547 562.261C486.778 567.387 536.345 570.863 571.253 559.075C572.173 544.645 574.64 529.94 577.127 515.715C582.241 486.464 588.77 458.299 597.819 429.994C600.716 420.932 603.315 411.337 607.525 402.775Z"/>
</svg>
