<?xml version="1.0" encoding="UTF-8"?>
<svg id="Capa_1" data-name="Capa 1" xmlns="http://www.w3.org/2000/svg" version="1.1" viewBox="0 0 1024 1024">
  <defs>
    <style>
      .cls-1 {
        fill: #4e2da8;
      }

      .cls-1, .cls-2, .cls-3, .cls-4, .cls-5, .cls-6, .cls-7 {
        stroke-width: 0px;
      }

      .cls-2 {
        fill: #757ad3;
      }

      .cls-3 {
        fill: #9a35c5;
      }

      .cls-4 {
        fill: #6366f1;
      }

      .cls-5 {
        fill: #6858a3;
      }

      .cls-6 {
        fill: #a7b2e8;
      }

      .cls-7 {
        fill: #fefefe;
      }
    </style>
  </defs>
  <path class="cls-7" d="M0,0h1024V1024H0V0Z"/>
  <path class="cls-3" d="M718.9,673.7c4.8-3.9,9.4-8,14-12.2l-.3.8c-.4,1.1-.9,2.1-1.5,3.1,1.5,0,2.8-.6,4.3-.6-4.9,3.7-11.1,6.2-16.7,8.9h.2Z"/>
  <path class="cls-5" d="M440.9,180.4l.4-.4c2.1,6.1,3,12.4,5.3,18.6,8.9,24.2,25.6,45,48.9,56.5,10,4.9,21.3,4.8,31.8,1.2,21.8-7.6,38-29,47.6-49.1,1.7-3.6,3.3-7.3,4.7-11,1.1-3.1,1.7-8.2,3.5-10.7l.4,1c-2.7,20.9-11.3,42.1-24.5,58.7-8.7,10.9-30,28.9-44.3,30.2-11.7,1.1-25.7-8.9-34.1-16.1-23.5-20.1-37.1-48.1-39.5-78.8h-.2Z"/>
  <path class="cls-2" d="M278.5,443.3c-1.8-11.6-1.1-31.4-.8-43.6.1-5.4.2-29.7,3.5-32.8,8.1.5,59.2,39.5,66,46.5-4.7,19.7-8.9,38.3-8.7,58.7-9.2-12.4-17.8-25.6-25.6-38.9-4.2-7.2-7.4-15.4-12.1-22.2-.4,1.1,4.8,12.7,5.6,14.9-1.1.7-1.6.7-2.9.8-1.5.1-3,.6-4.6.8-5.4.8-10.8.6-15.5,3.8-.7.5-2.5,2-3.3,1.4l-.3.7v-.6c-1.2,3.5,0,7-1.3,10.5h0Z"/>
  <path class="cls-2" d="M278.5,443.3c1.3-3.5.1-6.9,1.2-10.5v.6l.4-.7c.9.6,2.6-1,3.3-1.4,4.8-3.2,10.1-3,15.5-3.8,1.5-.2,3-.7,4.6-.8,1.2,0,1.8-.1,2.9-.8,6,16.4,12.7,32.9,20.7,48.4,3.7,7.2,9.5,13.7,12.5,21.1,1.9,4.6,2.1,10.2,3,15.1.8,4.9,2.1,9.7,3.8,14.4,8.8,25.3,20.1,43.2,39.7,61.4,5.6,5.1,12,9.6,17.2,15.1-20.5-9.4-52-25-73.9-26.4-8.3-.5-15.9.7-23.8,3.1-13.7-33.3-21.1-70.3-25.1-106-1-9.5-2.2-19.3-2-28.9h0Z"/>
  <path class="cls-1" d="M504.8,727.7c7-1.1,14.8,1.1,21.9,1.6,21.7,1.5,48.5,3.3,69.9-.6-2.5,2.5-5,5-7.5,7.6s-4.9,5.2-7.2,7.8c-2.4,2.7-4.7,5.3-6.9,8.1-2.3,2.7-4.5,5.5-6.7,8.3s-4.3,5.7-6.4,8.6c-2.1,2.9-4.1,5.8-6.1,8.8s-3.9,6-5.7,9c-1.9,3-3.7,6.1-5.4,9.2-1.8,3.1-3.4,6.2-5.1,9.4-1.6,3.2-3.2,6.3-4.8,9.5-1.5,3.2-3,6.4-4.4,9.7s-2.8,6.5-4.1,9.9c-1.3,3.3-2.5,6.6-3.7,10s-2.3,6.7-3.4,10.1c-1.1,3.4-2.1,6.8-3,10.2s-1.8,6.9-2.6,10.3c-.8,3.1-1.2,6.2-1.7,9.3-1.3-12-5.6-24.7-9.6-36.1-17.1-48.6-39.6-82.1-73.8-120.2,24.7,4.5,51.6,2.9,76.4-.5h0Z"/>
  <path class="cls-2" d="M742.1,364.5c.4.2.6.6.8,1,2.1,5.6,3.2,29.5,3.5,36.4,2.2,46.2-.6,93.4-14.2,137.8-4,12.9-9.2,25.4-14.1,38-6.4-2-12.7-3.2-19.4-3.1-26.8.6-61.7,20.2-86.4,30.7,6.1-5.4,13.2-9.8,19.5-15.1,10.3-8.7,19-18.7,27.8-28.7,15.4-17.5,20.6-32.8,24-55.6.8-5.7.9-12.6,3.3-17.9,3-6.7,7.6-12.8,11.1-19.2,7.2-13.1,13.6-26.8,20-40.4,2.8-6.1,6.2-12.2,8.4-18.5-13,18.5-27.7,36-41.1,54.2.2-17.2-2.4-34.1-6.2-50.8,14.6-14.2,31.1-26.7,47.7-38.3,5-3.5,10-7.3,15.3-10.3v-.2Z"/>
  <path class="cls-6" d="M604,187.2c9.3,2.1,18.3,6,27,9.6,35.6,14.8,67.1,34.3,96.8,58.7,19,15.6,36.2,34.3,51.1,53.8,44.1,57.5,67.7,122.6,74.8,194.4-4.7.9-9.1,2.2-13.6,3.5-5.6,1.9-11.2,3.7-16.8,5.4-2.5-34.3-9-66.7-20.8-99-29.4-80.3-86-140.4-161.5-179.4-5.9-3-11.8-5.9-18-8.3-8.5-3.2-17.5-5.8-25.7-9.6l-.8-.4c3.9-9.5,6-18.7,7.5-28.8h0Z"/>
  <path class="cls-6" d="M420,186.1c1.8,2.7,1.4,9.2,2.2,12.6,1.4,5.7,3.9,11.2,6.4,16.5-42.7,14-82.7,35.2-116.5,65-1.7,1.4-3.3,2.9-4.9,4.4s-3.2,3-4.8,4.5c-1.6,1.5-3.2,3-4.7,4.6-1.6,1.5-3.1,3.1-4.6,4.7s-3,3.2-4.5,4.8c-1.5,1.6-3,3.2-4.4,4.9-1.5,1.6-2.9,3.3-4.3,5s-2.8,3.4-4.2,5.1c-1.4,1.7-2.8,3.4-4.1,5.1-1.4,1.7-2.7,3.5-4,5.2-1.3,1.8-2.6,3.5-3.9,5.3s-2.6,3.6-3.8,5.4c-1.3,1.8-2.5,3.6-3.7,5.5-1.2,1.8-2.4,3.7-3.6,5.5-1.2,1.9-2.3,3.7-3.5,5.6-1.1,1.9-2.3,3.8-3.4,5.7-1.1,1.9-2.2,3.8-3.2,5.7-1.1,1.9-2.1,3.9-3.1,5.8s-2,3.9-3,5.9-1.9,3.9-2.9,5.9c-.9,2-1.9,4-2.8,6s-1.8,4-2.6,6c-.9,2-1.7,4.1-2.5,6.1s-1.6,4.1-2.4,6.1c-.8,2.1-1.5,4.1-2.3,6.2-.7,2.1-1.4,4.2-2.1,6.2-.7,2.1-1.4,4.2-2,6.3-.6,2.1-1.3,4.2-1.9,6.3-.6,2.1-1.2,4.2-1.8,6.4-.6,2.1-1.1,4.3-1.6,6.4s-1,4.3-1.5,6.4-.9,4.3-1.4,6.5c-3.4,17.6-4.7,35.5-5.8,53.3-5.2-1.9-10.4-4-15.6-6-4.6-1.8-9.5-3.1-14.2-4.5,3.5-49.6,15.6-97.1,38.2-141.5,1.2-2.3,2.4-4.5,3.6-6.8,1.2-2.2,2.5-4.5,3.7-6.7,1.3-2.2,2.6-4.4,3.9-6.6,1.3-2.2,2.7-4.4,4-6.5,1.4-2.2,2.8-4.3,4.2-6.4s2.8-4.2,4.3-6.4c1.5-2.1,2.9-4.2,4.4-6.3,1.5-2.1,3-4.1,4.6-6.2,1.5-2,3.1-4.1,4.7-6.1,1.6-2,3.2-4,4.8-6s3.3-3.9,5-5.8,3.4-3.8,5.1-5.7c1.7-1.9,3.5-3.8,5.2-5.6,1.8-1.9,3.5-3.7,5.3-5.5s3.6-3.6,5.5-5.4c1.8-1.8,3.7-3.5,5.6-5.3s3.8-3.5,5.7-5.1c1.9-1.7,3.8-3.4,5.8-5,1.9-1.7,3.9-3.3,5.9-4.9,2-1.6,4-3.2,6-4.8s4.1-3.1,6.1-4.6c2.1-1.5,4.1-3,6.2-4.5s4.2-2.9,6.3-4.4c2.1-1.4,4.3-2.8,6.4-4.2s4.3-2.7,6.5-4.1c2.2-1.3,4.4-2.7,6.6-3.9,2.2-1.3,4.4-2.6,6.7-3.8,2.2-1.2,4.5-2.5,6.7-3.7,2.3-1.2,4.5-2.4,6.8-3.5s4.6-2.3,6.9-3.4c2.3-1.1,4.6-2.2,7-3.2,2.3-1,4.7-2.1,7-3.1,10.7-4.5,21.7-7.9,32.7-11.5h-.4Z"/>
  <path class="cls-4" d="M440.9,180.4c-.6-1.8-.5-4-.6-5.9-.3-9.8,1.3-19.3,5.4-28.2,8.2-17.7,23.6-32.8,42.1-39.4,18.6-6.6,38.6-4.7,56.2,3.8,16.5,7.9,29.9,24.3,36,41.4,2.7,7.8,6.2,26.5,3.3,34.3l-.4-1c-1.8,2.6-2.3,7.6-3.5,10.7-1.4,3.8-3,7.4-4.7,11-9.6,20-25.8,41.5-47.6,49.1-10.4,3.6-21.8,3.7-31.8-1.2-23.3-11.5-40-32.3-48.9-56.5-2.3-6.2-3.2-12.4-5.3-18.6l-.4.4h.2Z"/>
  <path class="cls-1" d="M129.8,744.2c.6,0,1.1,0,1.7,0,96.4-4.4,203.7,30.9,280.3,89.1,18.1,13.8,34.9,28.9,51.3,44.6,8.8,8.4,17.3,17.3,26.4,25.5-7.7-2-15.6-3.2-23.4-4.7-18.8-3.7-37.8-7.2-56.4-11.7-3.9-.9-7.7-1.9-11.5-2.9s-7.6-2.1-11.5-3.2c-3.8-1.1-7.6-2.3-11.4-3.5s-7.5-2.4-11.3-3.7c-3.7-1.3-7.5-2.6-11.2-4s-7.4-2.8-11.1-4.3-7.3-3-11-4.6c-3.6-1.6-7.3-3.2-10.9-4.8-3.6-1.7-7.2-3.3-10.7-5.1-3.6-1.7-7.1-3.5-10.6-5.4-3.5-1.8-7-3.7-10.5-5.6-3.5-1.9-6.9-3.9-10.3-5.9s-6.8-4-10.2-6.1c-3.4-2.1-6.7-4.2-10-6.4-3.3-2.2-6.6-4.4-9.9-6.6s-6.5-4.5-9.7-6.9c-12.2-8.9-22.8-19.8-34.8-28.8l-.7-.5c7,9.6,20,22,28.7,30.6,49.8,50,120.9,86.3,189.9,100.7,12.3,2.6,24.8,4.7,37.3,6.2,6.2.7,12.9.4,19,1.6-7.7,1.3-15.5,1.5-23.2,1.9-7.8.4-15.5.5-23.3.5s-15.5-.3-23.3-.8-15.5-1.2-23.2-2.2c-7.7-.9-15.4-2.1-23.1-3.5-2.5-.4-5-.9-7.5-1.4l-7.5-1.5c-2.5-.5-5-1.1-7.5-1.6-2.5-.6-5-1.1-7.5-1.8-2.5-.6-5-1.2-7.4-1.9-2.5-.6-4.9-1.3-7.4-2s-4.9-1.4-7.4-2.1c-2.4-.7-4.9-1.5-7.3-2.2-2.4-.8-4.9-1.5-7.3-2.4-2.4-.8-4.8-1.6-7.3-2.5-2.4-.8-4.8-1.7-7.2-2.6-2.4-.9-4.8-1.8-7.2-2.7-2.4-.9-4.8-1.9-7.1-2.8-2.4-1-4.7-1.9-7.1-2.9s-4.7-2-7-3-4.7-2.1-7-3.2c-2.3-1.1-4.6-2.2-6.9-3.3-2.3-1.1-4.6-2.2-6.9-3.4-2.3-1.1-4.6-2.3-6.8-3.5-2.3-1.2-4.5-2.4-6.8-3.6-2.2-1.2-4.5-2.5-6.7-3.7-2.2-1.3-4.4-2.5-6.6-3.8-2.2-1.3-4.4-2.6-6.6-3.9-2.2-1.3-4.4-2.7-6.5-4-2.2-1.4-4.3-2.7-6.4-4.1-2.1-1.4-4.3-2.8-6.4-4.2-2.1-1.4-4.2-2.9-6.3-4.3-2.1-1.5-4.2-2.9-6.2-4.4-2.1-1.5-4.1-3-6.2-4.5-2-1.5-4.1-3.1-6.1-4.6-2-1.6-4-3.1-6-4.7s-4-3.2-5.9-4.8c-12.2-10.1-24-20.4-35-31.8-9.2-9.6-19.4-19.1-27-30,16.4-3.5,33.7-5,50.5-6v-.2Z"/>
  <path class="cls-1" d="M858.2,744.2c22.5-2,64.3.7,86.4,5.5-18,22.8-39.2,44.4-61.7,62.9-2.9,2.4-5.8,4.8-8.8,7.2s-6,4.7-9,7-6.1,4.5-9.2,6.7c-3.1,2.2-6.2,4.4-9.3,6.5s-6.3,4.2-9.5,6.3-6.4,4.1-9.6,6c-3.2,2-6.5,3.9-9.8,5.8-3.3,1.9-6.6,3.7-9.9,5.6-3.3,1.8-6.7,3.6-10,5.3-3.4,1.7-6.8,3.4-10.2,5.1-3.4,1.6-6.8,3.3-10.3,4.8s-6.9,3.1-10.4,4.6-7,2.9-10.5,4.3-7.1,2.7-10.6,4c-3.6,1.3-7.1,2.6-10.7,3.8-3.6,1.2-7.2,2.4-10.8,3.5s-7.2,2.2-10.9,3.3c-3.6,1-7.3,2-11,3s-7.3,1.9-11,2.7c-3.7.9-7.4,1.7-11.1,2.4-3.7.8-7.4,1.5-11.2,2.2-3.7.7-7.5,1.3-11.2,1.9-3.7.6-7.5,1.1-11.2,1.6-3.8.5-7.5.9-11.3,1.3-3.8.4-7.5.8-11.3,1.1s-7.6.6-11.3.8c-3.8.2-7.6.4-11.4.5-3.8,0-7.6.2-11.4.2h-11.4c-3.8,0-7.6-.2-11.4-.3-3.8-.2-7.6-.4-11.3-.6-3.8-.2-7.6-.5-11.3-.9,14-1.4,27.8-1.8,41.7-4.3,62.5-11.1,132-41.8,180.9-82.5,14.6-12.4,29.3-25.6,41.7-40.3,1.8-2.1,3.8-4,5.4-6.3.4-.5.3-.2.2-.9-5.5,4.5-10.5,9.6-16.2,14-61.6,47.4-129.5,78.1-205.3,94.9-19.4,4.3-39.5,6.5-59.1,10.4,22.5-21.3,44.6-42.7,69-61.9,2.3-1.8,4.5-3.6,6.8-5.4,2.3-1.8,4.6-3.5,6.9-5.2,2.3-1.7,4.7-3.4,7-5.1,2.4-1.7,4.7-3.3,7.1-5,2.4-1.6,4.8-3.2,7.2-4.8s4.9-3.1,7.3-4.7c2.5-1.5,4.9-3,7.4-4.5s5-2.9,7.5-4.4c2.5-1.4,5-2.8,7.6-4.2,2.5-1.4,5.1-2.7,7.7-4.1,2.6-1.3,5.1-2.6,7.7-3.9,2.6-1.3,5.2-2.5,7.8-3.8,2.6-1.2,5.2-2.4,7.9-3.6,2.6-1.2,5.3-2.3,7.9-3.5,2.7-1.1,5.3-2.2,8-3.3s5.4-2.1,8.1-3.2c2.7-1,5.4-2,8.1-3,2.7-1,5.5-1.9,8.2-2.8,2.7-.9,5.5-1.8,8.2-2.7,2.8-.9,5.5-1.7,8.3-2.5s5.6-1.6,8.3-2.4c2.8-.8,5.6-1.5,8.4-2.2,2.8-.7,5.6-1.4,8.4-2,2.8-.7,5.6-1.3,8.5-1.9,2.8-.6,5.7-1.2,8.5-1.7s5.7-1.1,8.5-1.5,5.7-.9,8.6-1.4c2.9-.4,5.7-.8,8.6-1.2,2.9-.4,5.7-.7,8.6-1,2.9-.3,5.8-.6,8.6-.9,2.9-.3,5.8-.5,8.6-.7,2.9-.2,5.8-.4,8.7-.5h.3Z"/>
  <path class="cls-4" d="M692.2,591.7c9.3-.7,18.9.2,27,5.3.4.3.8.5,1.2.8s.8.6,1.2.9c.4.3.8.6,1.1.9.4.3.7.6,1.1,1s.7.7,1,1c.3.4.7.7,1,1.1.3.4.6.7.9,1.1.3.4.6.8.9,1.2.3.4.5.8.8,1.2s.5.8.7,1.2.5.9.7,1.3c.2.4.4.9.6,1.3.2.4.4.9.5,1.3.2.5.3.9.5,1.4,0,.5.3.9.4,1.4,0,.5.2.9.3,1.4,2.3,10.6-1.4,22.6-7.3,31.5-8.1,12.3-22,19.9-34.6,26.7-4.3,2.4-8.6,4.6-13,6.8s-8.8,4.3-13.3,6.3-9,4-13.5,5.8-9.1,3.6-13.7,5.3c-4.6,1.7-9.2,3.2-13.9,4.7s-9.4,2.9-14.1,4.2c-4.7,1.3-9.5,2.5-14.2,3.6-4.8,1.1-9.6,2.1-14.4,3.1-22.3,4.5-45.7,7.6-68.5,7.5-11.5,0-22.9-1.3-34.4-2.7-54.4-6.6-110.8-24.4-156.6-54.8-9.9-6.6-19.5-14.7-25-25.4-4-7.6-6-16.4-3.1-24.7,2.5-7.3,7.7-13.1,14.6-16.5,7.7-3.8,16.8-4.1,25.1-2.8,17.6,2.7,35.5,10.7,52,17.2,17.2,6.7,34.1,14.1,51.2,21,10.9,4.4,22.1,8.3,32.9,12.8,14.7,6.2,29.1,13.7,44.1,18.9,15-4.5,31.1-13.3,45.9-19.3,20.1-8.2,40.7-15,60.5-23.8,21.6-9.7,50-26.6,73-29.2h.4Z"/>
  <path class="cls-5" d="M211.5,729.2c-11.9-12.3-23.7-25-34.4-38.4-31.3-39.1-53-83-70.8-129.5-5.7-15.1-15-40.7-17.4-56.2-.2-1.3-.6-2.4.2-3.6.7-.1,1.2-.2,1.9-.3,7.5,0,22.9,4.5,30.4,6.4,50.1,12.9,98.8,31,143.3,57.5,9.9,5.9,19.9,11.6,28.4,19.3-1.3,1-2.5,2.1-3.8,3.2-8.8,7.9-13.7,20.1-14.3,31.8-.6,13.5,4.1,27.2,12.3,37.9,4,5.2,8.9,9.9,13.3,14.8-10.7-4.8-21.1-10.9-31.3-16.7-47.9-27.3-90.4-61.1-130.6-98.7-5.6-5.2-11-10.6-16.2-16.1-3.7-3.9-7.1-8.1-11.1-11.7v.6c8,9.9,16.1,19.6,24.3,29.3,11.2,13.3,22.3,26.5,34.6,38.8,4.3,4.2,8.7,8.4,13.2,12.5s9,8.1,13.6,12,9.3,7.8,14,11.6,9.5,7.5,14.4,11.1,9.8,7.1,14.8,10.6c5,3.4,10,6.8,15.2,10,5.1,3.3,10.3,6.4,15.5,9.5,5.2,3.1,10.5,6.1,15.8,8.9,13.6,7.5,27.4,14.9,41.8,20.8,23.4,9.5,47.4,15.9,72.2,20.5,6.7,6.3,13.6,13.5,19.2,20.8,8.8,8.7,16.6,19.3,23.7,29.4,26.1,37.1,41,70.9,53,114.4-.1,0-.2-.2-.3-.3-4.3-4.2-7.9-9.4-11.8-14-7.2-8.5-14.9-16.8-22.8-24.7-22.2-22.2-48.3-41.2-74.6-58.3-4.8-3.1-9.8-5.7-14.6-8.8-5-1.7-11.2-5.8-16.2-8.4-8.5-4.3-17.1-8.2-25.9-11.8-24.4-10-48.8-18.5-74.4-24.9-14.8-3.7-29.9-6.5-44.8-9.5l.2.2Z"/>
  <path class="cls-5" d="M728.3,582.1c7.6-5.5,16.8-9.9,25.1-14.5,14.8-8.1,30-16.1,45.5-23,11.9-5.3,24.3-9.8,36.4-14.6,26.6-10.5,53.8-20.3,82-25.9,4.4-.9,11.2-3.5,15.5-2.6,1,.2,1.5.5,2.2,1.2.2,7.4-5.9,28.4-8.4,36.6-1.3,4.3-2.6,8.5-4,12.8-1.4,4.2-2.9,8.5-4.4,12.7s-3.1,8.4-4.8,12.5-3.4,8.3-5.1,12.4c-1.8,4.1-3.6,8.2-5.5,12.3s-3.8,8.1-5.8,12.1-4.1,8-6.2,11.9c-2.1,3.9-4.3,7.9-6.5,11.7-2.2,3.9-4.5,7.7-6.8,11.5s-4.7,7.6-7.2,11.3c-2.4,3.7-4.9,7.5-7.5,11.1-2.5,3.7-5.1,7.3-7.8,10.9-2.7,3.6-5.4,7.2-8.1,10.7-2.8,3.5-5.6,7-8.4,10.5-2.9,3.4-5.8,6.8-8.7,10.2-3,3.4-5.9,6.7-9,10-1.3,1.4-2.7,2.8-4.1,4.2-20.9,2-41.8,6.8-62,12.4-15.7,3.7-32.2,10.5-47.1,16.6-11.2,4.6-22.4,9.3-33.2,14.7-56.2,28.2-105.6,68.8-146.8,116.1,2.8-10.9,5.6-22.1,9.4-32.7,17.9-50.6,48.7-92.8,86.5-130.3,25.5-5,49.8-12.7,74-22.2,11.6-3.8,23.1-10.1,33.9-15.7,3.8-2,7.6-4,11.3-6.1s7.4-4.2,11.1-6.4c3.7-2.2,7.3-4.4,11-6.7,3.6-2.3,7.2-4.6,10.8-7s7.1-4.8,10.6-7.2c3.5-2.5,7-5,10.4-7.5s6.8-5.1,10.2-7.8c3.4-2.6,6.7-5.3,10-8s6.6-5.5,9.8-8.3,6.4-5.7,9.5-8.6c3.1-2.9,6.3-5.8,9.3-8.8,3.1-3,6.1-6,9.1-9.1s5.9-6.2,8.8-9.3c2.9-3.1,5.8-6.3,8.6-9.5s5.6-6.5,8.3-9.7c2.7-3.3,5.4-6.6,8.1-10,5.6-7.1,12.3-14.7,16.6-22.6-.7,0-6.9,7.4-7.9,8.5-7.3,8.1-15.1,15.9-23.2,23.2-8.6,7.9-17.3,15.6-26.3,23.1s-18.1,14.7-27.5,21.6c-9.4,7-18.9,13.7-28.6,20.1-9.7,6.5-19.6,12.7-29.7,18.6-8.1,4.8-16.8,10.6-25.4,14.5l-.9.4c-1.6,0-2.8.6-4.3.6.5-1,1.1-2,1.5-3.1l.3-.8c10.6-12.7,17.7-29.1,16.1-46-1.6-16.8-9.4-22.7-20.7-33.4v.4Z"/>
  <path class="cls-4" d="M485.6,282.1c5.8,3.1,11.5,6.3,17.9,7.9,12.5,3,22.9-.8,33.5-7.3,1.8,4.6,3.6,9.2,6.5,13.3,11.5,16.1,35.1,19.6,51.9,27.9,32.7,16.3,51.8,46.1,63,79.8,2.3,6.8,4.2,13.7,5.8,20.8,1.6,7,2.8,14.1,3.7,21.2,3.1,26.1,1.9,66-10.1,89.4-7.2,14.1-20.9,25.8-32.6,36.3-22.9,20.5-54.3,46.3-83.8,56.1-17,5.9-41.1,5.5-58.4.9-36-9.4-97.1-62.7-115.8-95-13.1-22.6-15.1-56.9-12.2-82.5,1.3-11.8,3.9-23.8,7-35.3,8.7-32.2,30.3-71.2,60.3-87.4,13.9-7.5,29.6-11.8,43.2-19.7,10.6-6.2,16.9-14.7,20-26.5h0Z"/>
  <path class="cls-7" d="M529.8,589.7l5.4-.5c2.7,1.4,5,2.8,6.7,5.5,1.8,2.9,2.1,6.8,1.3,10-1,4-4,6.7-7.5,8.7-11.8,6.7-27.7,6.3-40.4,2.8-2.9-1-5.9-2.3-8.4-4-3-2-5.4-4.7-6-8.3-.5-3.1.3-7.2,2.2-9.8,5.5-7.4,20.2-2.2,28-2.3,6.3,0,12.4-1.1,18.6-2h0Z"/>
  <path class="cls-7" d="M415.7,400.8c1.2,1,1.7,2.8,2.3,4.3,12.7,33.1,29.7,84.1,28.4,119.7-.4,10.1-2.3,19.8-6.4,29.1l-5.7-5.7c-12.3-13.1-27.5-30.5-34.1-47.2-2.1-5.4-3.1-11-3.3-16.8-.7-22.9,9.6-61.9,18.8-83.4h0Z"/>
  <path class="cls-7" d="M607.5,402.8c3.1,4.5,6,13.2,8.1,18.5,8.2,21.3,19.2,58.6,9.6,80-9.6,21.4-34.9,52.4-53.4,66.6-1.6,1.3-3.3,2.5-5,3.6s-3.5,2.2-5.3,3.2-3.6,1.9-5.5,2.8c-1.9.9-3.8,1.7-5.7,2.4-23.7,8.9-52.1,9.6-75.4-.9-9.2-4.3-16.9-9.9-24.4-16.7,36.2,5.1,85.8,8.6,120.7-3.2.9-14.4,3.4-29.1,5.9-43.4,5.1-29.3,11.6-57.4,20.7-85.7,2.9-9.1,5.5-18.7,9.7-27.2h0Z"/>
</svg>