<svg id="Capa_2" xmlns="http://www.w3.org/2000/svg" viewBox="0 0 209.01 25.2">
  <defs>
    <style>
      .cls-1 {
        fill: #1d1d1b;
      }
    </style>
  </defs>
  <g id="OBJECTS">
    <g>
      <g>
        <path class="cls-1" d="M25.01,14.35c-7.07-.05-12.85,4.95-19.94,5.27-.44.04-.87-.02-1.31-.02-.44,0-.89-.07-1.32-.18-.84-.22-1.77-.63-2.23-1.53-.22-.43-.27-.96-.14-1.43.13-.47.41-.88.76-1.2.7-.66,1.7-.88,2.59-.85.91.03,1.77.25,2.6.45.84.21,1.68.44,2.51.69,1.66.51,3.29,1.09,4.91,1.7,3.24,1.21,6.43,2.52,9.71,3.52,3.28.98,6.66,1.66,10.06,1.6,3.38-.05,6.75-.92,9.6-2.73,2.88-1.78,5.22-4.32,7.32-7.01l.67-.85.19,1.07c.23,1.3,1.11,2.45,2.33,3.03,1.2.59,2.66.74,3.94.32,1.29-.38,2.34-1.37,2.95-2.59.63-1.21.83-2.65.62-4-.44-2.73-2.63-5.02-5.2-6.06-2.57-1.06-5.71-.97-7.95.66-2.25,1.63-3.53,4.47-3.53,7.27-.02,2.82,1.07,5.65,2.92,7.8,1.85,2.17,4.45,3.64,7.22,4.37,2.78.75,5.74.75,8.57.15,2.84-.59,5.55-1.75,8.06-3.21,2.52-1.47,4.84-3.29,7.19-5.09,2.34-1.8,4.73-3.61,7.36-5.04,2.62-1.43,5.52-2.47,8.53-2.64,1.5-.09,3.02.02,4.49.39,1.45.39,2.89,1.02,3.99,2.12,2.19,2.18,2.56,5.93.7,8.4-.9,1.21-2.32,2.09-3.85,2.15-1.51.07-3.11-.77-3.65-2.22-.28-.7-.33-1.51-.06-2.22.27-.71.83-1.29,1.52-1.59,1.41-.69,3.23.42,3.3,1.95-.1-1.53-1.93-2.56-3.27-1.87-.66.3-1.2.87-1.44,1.55-.24.68-.18,1.45.1,2.11.55,1.37,2.07,2.13,3.49,2.03,1.44-.08,2.77-.94,3.6-2.1,1.71-2.36,1.27-5.89-.79-7.86-1.01-.99-2.39-1.57-3.78-1.93-1.4-.34-2.87-.43-4.31-.33-2.91.2-5.7,1.23-8.24,2.65-2.56,1.42-4.89,3.22-7.21,5.05-2.32,1.82-4.65,3.69-7.22,5.23-2.57,1.53-5.37,2.73-8.32,3.36-2.94.63-6.06.66-9-.13-2.93-.76-5.72-2.31-7.73-4.65-2-2.32-3.2-5.35-3.19-8.45,0-3.08,1.36-6.24,3.93-8.11,5.33-3.81,13.66-.33,14.78,6.09.24,1.57,0,3.2-.73,4.62-.71,1.41-1.99,2.62-3.55,3.08-1.54.49-3.24.31-4.68-.4-1.45-.69-2.58-2.13-2.84-3.75l.86.22c-2.15,2.72-4.57,5.34-7.59,7.2-3,1.88-6.57,2.81-10.08,2.82-3.52.03-6.98-.71-10.3-1.74-3.32-1.04-6.51-2.39-9.72-3.63-1.61-.62-3.22-1.21-4.86-1.73-.82-.26-1.64-.5-2.47-.71-.83-.21-1.66-.43-2.48-.46-.82-.04-1.63.14-2.22.68-.6.51-.89,1.34-.54,2.03.32.69,1.12,1.1,1.91,1.32.8.22,1.67.21,2.51.23,6.91-.16,12.89-5.06,19.95-4.89Z"/>
        <path class="cls-1" d="M184,14.35c7.06-.17,13.04,4.73,19.95,4.89.85-.02,1.71,0,2.51-.23.78-.22,1.58-.63,1.91-1.32.35-.69.05-1.53-.54-2.03-.58-.53-1.4-.72-2.22-.68-.82.03-1.65.25-2.48.46-.83.21-1.65.45-2.47.71-1.64.52-3.25,1.11-4.86,1.73-3.21,1.24-6.4,2.59-9.72,3.63-3.31,1.03-6.77,1.77-10.3,1.74-3.51-.01-7.07-.94-10.08-2.82-3.02-1.86-5.45-4.48-7.59-7.2l.86-.22c-.27,1.62-1.39,3.06-2.84,3.75-1.44.71-3.13.89-4.68.4-1.57-.46-2.84-1.66-3.55-3.08-.73-1.42-.98-3.05-.73-4.62,1.13-6.41,9.45-9.89,14.78-6.09,2.57,1.88,3.94,5.03,3.93,8.11.01,3.1-1.19,6.13-3.19,8.45-2.01,2.34-4.8,3.89-7.73,4.65-2.94.78-6.06.76-9,.13-2.95-.63-5.76-1.82-8.32-3.36-2.57-1.54-4.9-3.4-7.22-5.23-2.32-1.83-4.65-3.63-7.21-5.05-2.54-1.42-5.33-2.46-8.24-2.65-1.45-.1-2.91-.01-4.31.33-1.38.36-2.76.95-3.78,1.93-2.06,1.97-2.49,5.5-.79,7.86.83,1.16,2.16,2.02,3.6,2.1,1.42.09,2.95-.66,3.49-2.03.28-.66.34-1.43.1-2.11-.24-.68-.78-1.25-1.44-1.55-1.34-.69-3.17.35-3.27,1.87.07-1.53,1.89-2.63,3.3-1.95.69.3,1.26.88,1.52,1.59.27.71.22,1.52-.06,2.22-.55,1.45-2.15,2.29-3.65,2.22-1.54-.06-2.95-.94-3.85-2.15-1.85-2.47-1.48-6.22.7-8.4,1.1-1.11,2.54-1.73,3.99-2.12,1.47-.37,2.99-.48,4.49-.39,3.02.17,5.92,1.21,8.53,2.64,2.63,1.43,5.02,3.23,7.36,5.04,2.34,1.8,4.66,3.62,7.19,5.09,2.52,1.47,5.23,2.63,8.06,3.21,2.83.6,5.79.6,8.57-.15,2.77-.73,5.38-2.2,7.22-4.37,1.85-2.15,2.95-4.98,2.92-7.8,0-2.8-1.27-5.64-3.53-7.27-2.24-1.64-5.38-1.73-7.95-.66-2.57,1.04-4.76,3.33-5.2,6.06-.22,1.35,0,2.78.62,4,.61,1.22,1.66,2.21,2.95,2.59,1.28.42,2.74.27,3.94-.32,1.23-.58,2.1-1.73,2.33-3.03l.19-1.07.67.85c2.1,2.69,4.45,5.23,7.32,7.01,2.86,1.8,6.22,2.67,9.6,2.73,3.39.07,6.78-.62,10.06-1.6,3.28-.99,6.47-2.3,9.71-3.52,1.62-.61,3.25-1.19,4.91-1.7.83-.25,1.67-.49,2.51-.69.84-.2,1.7-.42,2.6-.45.89-.04,1.89.18,2.59.85.34.32.63.73.76,1.2.14.47.08,1-.14,1.43-.46.89-1.38,1.3-2.23,1.53-.43.11-.88.18-1.32.18-.44,0-.88.06-1.31.02-7.09-.32-12.87-5.32-19.94-5.27Z"/>
      </g>
      <g>
        <path class="cls-1" d="M105.26,3.72c0,2.06-1.18,3.72-1.18,3.72,0,0-1.18-1.67-1.18-3.72s.53-3.72,1.18-3.72,1.18,1.67,1.18,3.72Z"/>
        <path class="cls-1" d="M107.27,6.07c-.5.92-1.43,1.37-1.43,1.37,0,0-.12-1.03.37-1.95s1.14-1.53,1.43-1.37.12,1.03-.37,1.95Z"/>
        <path class="cls-1" d="M102.13,5.5c.49.92.35,1.95.35,1.95,0,0-.92-.47-1.41-1.39s-.64-1.8-.35-1.95.92.47,1.41,1.39Z"/>
      </g>
    </g>
  </g>
</svg>