<svg version="1.1" id="Layer_1" xmlns="http://www.w3.org/2000/svg" xmlns:xlink="http://www.w3.org/1999/xlink" x="0px" y="0px"
	 width="100%" viewBox="0 0 512 512" enable-background="new 0 0 512 512" xml:space="preserve">
<path fill="#000000" opacity="1.000000" stroke="none" 
	d="
M513.000000,312.000000 
	C513.000000,378.968048 513.000000,445.936066 513.000000,512.952026 
	C342.446747,512.952026 171.893494,512.952026 1.000000,512.952026 
	C1.000000,446.312286 1.000000,379.623993 1.356669,312.475220 
	C2.704009,313.504059 3.952486,314.882629 4.646776,316.499237 
	C15.444886,341.641724 32.844948,361.257019 55.361805,376.378601 
	C58.146320,378.248596 62.630402,378.581146 66.139336,378.138641 
	C71.000885,377.525513 73.176086,373.279572 73.767036,368.771118 
	C74.422859,363.767731 71.520241,360.004059 67.658295,357.515015 
	C50.184998,346.253082 37.405769,330.869385 27.477215,312.858337 
	C25.439644,309.162048 24.858442,305.807953 27.019072,301.692352 
	C37.869934,281.023651 53.333450,264.792938 73.089317,252.506775 
	C75.990692,250.702423 77.267036,251.428421 79.281410,254.275940 
	C86.542458,264.540161 93.450500,275.298920 102.192429,284.200897 
	C110.696411,292.860535 120.709663,300.407562 131.073883,306.799500 
	C158.781128,323.887329 189.088394,330.817352 221.626236,327.111847 
	C225.330307,326.689972 229.050735,326.411682 232.763580,326.066803 
	C233.042252,326.465729 233.320938,326.864655 233.599609,327.263580 
	C228.916290,332.736969 224.613312,338.601471 219.470612,343.602478 
	C208.690201,354.085846 196.357742,362.393127 182.427307,368.300232 
	C169.150024,373.930359 155.351425,377.197540 140.990356,377.963104 
	C128.982971,378.603149 117.151131,377.266083 105.452599,374.373230 
	C97.450226,372.394348 92.143806,375.745056 90.398636,383.309509 
	C89.094131,388.963837 93.092064,394.440643 100.209587,395.962646 
	C107.648849,397.553467 115.149544,399.365021 122.700592,399.832153 
	C147.751678,401.382019 172.088242,398.156128 195.156982,387.473389 
	C195.571243,390.097321 195.639954,392.391327 196.077072,394.612885 
	C202.155991,425.507446 217.922150,449.378754 246.380508,464.126678 
	C252.911880,467.511444 259.398163,468.707031 266.082794,465.016113 
	C277.273193,458.837311 287.651215,451.798767 296.003998,441.718170 
	C309.268250,425.710114 317.071381,407.776917 318.550415,387.049316 
	C326.519806,389.868103 334.003998,393.116150 341.787628,395.294312 
	C363.727692,401.433929 386.014679,401.860748 408.257141,397.299866 
	C438.724365,391.052429 464.519714,376.402557 485.386383,353.167938 
	C495.325653,342.100769 503.590332,330.023285 509.463745,316.316315 
	C510.167450,314.673981 511.798676,313.429108 513.000000,312.000000 
z"/>
<path fill="#000000" opacity="1.000000" stroke="none" 
	d="
M1.000000,302.000000 
	C1.000000,201.705582 1.000000,101.411163 1.000000,1.058371 
	C171.561554,1.058371 342.123108,1.058371 513.000000,1.058371 
	C513.000000,101.022423 513.000000,201.045181 512.641541,301.522583 
	C511.594513,301.078583 510.681396,300.276001 510.249969,299.267395 
	C497.654785,269.822327 477.148132,247.503601 449.376831,231.783722 
	C447.024323,230.452087 446.420685,229.099289 447.190979,226.661667 
	C452.829651,208.817398 455.442322,190.699432 454.189941,171.848358 
	C453.174500,156.563736 449.743195,142.020050 444.217773,127.921791 
	C443.057831,124.962173 440.329437,121.763641 437.499878,120.450539 
	C419.111420,111.916985 399.419434,108.740112 379.377441,109.259117 
	C364.490967,109.644615 349.671539,112.020844 335.313324,116.912399 
	C333.309326,113.178162 331.659973,109.625107 329.659058,106.282539 
	C314.585571,81.102646 293.743347,62.227940 267.215027,49.707291 
	C261.829010,47.165234 256.524658,45.308659 250.174103,48.204510 
	C237.904236,53.799534 226.552521,60.590210 216.160599,69.218826 
	C200.120941,82.536842 187.483536,98.406357 178.072479,117.093048 
	C159.190842,111.127998 140.424805,108.265770 120.904938,109.834320 
	C106.200806,111.015892 92.101608,114.098679 78.383522,119.333679 
	C73.888550,121.049019 70.894592,124.083923 69.273720,128.594467 
	C62.260914,148.109680 58.286674,167.968765 59.777500,188.954666 
	C60.691204,201.816620 62.838764,214.253586 66.768967,226.445190 
	C67.647369,229.169998 66.690971,230.337234 64.414986,231.954941 
	C54.170971,239.236206 43.403713,246.047638 34.292290,254.592880 
	C21.031866,267.029297 10.732412,281.953888 3.810034,298.990448 
	C3.327445,300.178162 1.957373,301.005219 1.000000,302.000000 
z"/>
<path fill="#283954" opacity="1.000000" stroke="none" 
	d="
M335.505127,117.191078 
	C349.671539,112.020844 364.490967,109.644615 379.377441,109.259117 
	C399.419434,108.740112 419.111420,111.916985 437.499878,120.450539 
	C440.329437,121.763641 443.057831,124.962173 444.217773,127.921791 
	C449.743195,142.020050 453.174500,156.563736 454.189941,171.848358 
	C455.442322,190.699432 452.829651,208.817398 447.190979,226.661667 
	C446.420685,229.099289 447.024323,230.452087 449.376831,231.783722 
	C477.148132,247.503601 497.654785,269.822327 510.249969,299.267395 
	C510.681396,300.276001 511.594513,301.078583 512.641541,301.988586 
	C513.000000,305.030609 513.000000,308.061188 513.000000,311.545898 
	C511.798676,313.429108 510.167450,314.673981 509.463745,316.316315 
	C503.590332,330.023285 495.325653,342.100769 485.386383,353.167938 
	C464.519714,376.402557 438.724365,391.052429 408.257141,397.299866 
	C386.014679,401.860748 363.727692,401.433929 341.787628,395.294312 
	C334.003998,393.116150 326.519806,389.868103 318.380249,386.742523 
	C310.617493,382.219635 303.373352,378.062714 295.893616,373.665405 
	C280.020782,362.735077 267.804291,348.735901 256.948486,332.149048 
	C246.206345,349.081848 233.472427,362.843781 217.683640,374.022949 
	C209.877960,378.386200 202.430328,382.747986 194.982697,387.109741 
	C172.088242,398.156128 147.751678,401.382019 122.700592,399.832153 
	C115.149544,399.365021 107.648849,397.553467 100.209587,395.962646 
	C93.092064,394.440643 89.094131,388.963837 90.398636,383.309509 
	C92.143806,375.745056 97.450226,372.394348 105.452599,374.373230 
	C117.151131,377.266083 128.982971,378.603149 140.990356,377.963104 
	C155.351425,377.197540 169.150024,373.930359 182.427307,368.300232 
	C196.357742,362.393127 208.690201,354.085846 219.470612,343.602478 
	C224.613312,338.601471 228.916290,332.736969 233.599609,327.263580 
	C233.320938,326.864655 233.042252,326.465729 232.763580,326.066803 
	C229.050735,326.411682 225.330307,326.689972 221.626236,327.111847 
	C189.088394,330.817352 158.781128,323.887329 131.073883,306.799500 
	C120.709663,300.407562 110.696411,292.860535 102.192429,284.200897 
	C93.450500,275.298920 86.542458,264.540161 79.281410,254.275940 
	C77.267036,251.428421 75.990692,250.702423 73.089317,252.506775 
	C53.333450,264.792938 37.869934,281.023651 27.019072,301.692352 
	C24.858442,305.807953 25.439644,309.162048 27.477215,312.858337 
	C37.405769,330.869385 50.184998,346.253082 67.658295,357.515015 
	C71.520241,360.004059 74.422859,363.767731 73.767036,368.771118 
	C73.176086,373.279572 71.000885,377.525513 66.139336,378.138641 
	C62.630402,378.581146 58.146320,378.248596 55.361805,376.378601 
	C32.844948,361.257019 15.444886,341.641724 4.646776,316.499237 
	C3.952486,314.882629 2.704009,313.504059 1.356669,312.007385 
	C1.000000,308.969391 1.000000,305.938812 1.000000,302.454102 
	C1.957373,301.005219 3.327445,300.178162 3.810034,298.990448 
	C10.732412,281.953888 21.031866,267.029297 34.292290,254.592880 
	C43.403713,246.047638 54.170971,239.236206 64.414986,231.954941 
	C66.690971,230.337234 67.647369,229.169998 66.768967,226.445190 
	C62.838764,214.253586 60.691204,201.816620 59.777500,188.954666 
	C58.286674,167.968765 62.260914,148.109680 69.273720,128.594467 
	C70.894592,124.083923 73.888550,121.049019 78.383522,119.333679 
	C92.101608,114.098679 106.200806,111.015892 120.904938,109.834320 
	C140.424805,108.265770 159.190842,111.127998 178.015869,117.473068 
	C175.567093,124.669975 172.775162,131.393753 169.645355,137.943008 
	C167.733154,137.282837 166.170334,136.755356 164.582748,136.317795 
	C140.773895,129.755692 117.113091,130.145584 93.542427,137.638657 
	C90.337288,138.657562 88.687088,140.387680 87.623390,143.558395 
	C81.644722,161.379837 80.334846,179.627365 83.009636,198.079208 
	C87.846169,231.443649 104.000610,258.314331 130.380981,279.253021 
	C147.551239,292.881439 166.994980,301.105652 188.485107,304.643738 
	C201.341049,306.760315 214.221130,306.827698 227.367996,303.925110 
	C231.791626,306.180511 235.841248,308.399231 239.918472,310.565979 
	C256.674286,319.470245 257.476532,319.450500 274.298401,310.458618 
	C278.503265,308.210999 282.759735,306.059906 287.394897,303.959534 
	C298.933075,306.310394 310.070831,306.523865 321.384308,305.120331 
	C349.361847,301.649506 373.382050,289.951782 393.693207,270.688934 
	C405.455383,259.533813 414.562347,246.366333 421.281982,231.508942 
	C434.311951,202.699097 435.770294,173.309479 426.046204,143.362991 
	C425.328186,141.151871 422.809662,138.783875 420.576324,137.926712 
	C406.077362,132.362000 390.835938,130.773254 375.545990,132.201645 
	C364.942719,133.192230 354.516663,136.079697 343.714722,137.909241 
	C340.780426,130.862900 338.142761,124.026993 335.505127,117.191078 
M291.396851,327.034882 
	C288.013428,326.705505 284.630005,326.376129 280.107513,325.935852 
	C288.957489,339.559814 299.713013,350.029388 312.062683,358.105347 
	C328.382080,368.777222 346.589081,375.179108 366.363556,377.282440 
	C384.600037,379.222168 402.160950,377.110046 419.243805,371.211029 
	C444.144897,362.612274 464.310455,347.376801 478.921021,325.365875 
	C485.026825,316.167419 492.351044,307.799622 483.387939,294.790222 
	C471.563171,277.627319 457.818604,263.184845 440.292816,252.161911 
	C438.024475,250.735229 436.543884,251.142120 435.107605,253.603165 
	C426.957764,267.567780 417.140320,280.119690 404.838531,290.813507 
	C389.995361,303.716492 373.707062,314.158722 354.942108,319.928192 
	C343.143005,323.555939 330.875610,326.119659 318.629639,327.678741 
	C310.017334,328.775208 301.087463,327.377289 291.396851,327.034882 
z"/>
<path fill="#DC5461" opacity="1.000000" stroke="none" 
	d="
M296.129211,373.905762 
	C303.373352,378.062714 310.617493,382.219635 318.031799,386.683350 
	C317.071381,407.776917 309.268250,425.710114 296.003998,441.718170 
	C287.651215,451.798767 277.273193,458.837311 266.082794,465.016113 
	C259.398163,468.707031 252.911880,467.511444 246.380508,464.126678 
	C217.922150,449.378754 202.155991,425.507446 196.077072,394.612885 
	C195.639954,392.391327 195.571243,390.097321 195.156982,387.473389 
	C202.430328,382.747986 209.877960,378.386200 217.666290,374.445129 
	C217.700974,376.947449 216.873108,379.110779 217.184036,381.095734 
	C218.236771,387.816101 219.257065,394.594696 221.077621,401.131592 
	C226.254730,419.720428 237.519608,433.651947 254.560944,442.735474 
	C255.917740,443.458618 258.360260,443.243073 259.816650,442.508698 
	C272.247833,436.240601 281.287842,426.402435 287.848969,414.340759 
	C294.687042,401.769836 297.230377,388.175232 296.129211,373.905762 
z"/>
<path fill="#DC5461" opacity="1.000000" stroke="none" 
	d="
M335.313324,116.912399 
	C338.142761,124.026993 340.780426,130.862900 343.726990,138.295807 
	C349.774445,155.837769 350.669952,173.353333 349.926178,191.011505 
	C349.690887,196.597443 344.831879,200.113403 338.514191,199.999695 
	C333.082642,199.901932 328.263000,195.477554 328.015533,190.233215 
	C327.633545,182.137299 328.141144,173.901215 326.801300,165.973022 
	C325.046906,155.591858 322.784851,145.105026 319.089508,135.285187 
	C312.447449,117.634895 302.145966,102.032631 287.351837,90.056602 
	C278.871460,83.191658 269.601715,77.263718 260.399323,71.363129 
	C258.693207,70.269180 255.181396,70.492279 253.233780,71.508339 
	C235.601013,80.707268 220.674683,93.025246 208.993622,109.381813 
	C195.334854,128.507660 187.860474,149.823822 186.242935,172.969849 
	C185.490799,183.732620 186.441574,194.822311 188.183456,205.509018 
	C192.030670,229.112350 202.836777,249.604614 218.849350,267.297424 
	C228.295334,277.734589 239.618744,285.850555 252.057129,292.303223 
	C254.302551,293.468079 258.007690,293.797028 260.210327,292.757019 
	C279.767517,283.522705 295.547791,269.711700 307.059937,251.418030 
	C312.247070,243.175278 316.350952,234.241776 320.799957,225.546768 
	C323.726868,219.826477 328.674774,218.677643 335.128967,220.760544 
	C340.427765,222.470566 343.362946,229.285156 340.901306,234.460098 
	C335.934570,244.901459 331.125763,255.535126 324.911835,265.230713 
	C319.467468,273.725464 312.637756,281.480560 305.578705,288.744904 
	C300.050873,294.433441 293.235687,298.871063 286.992493,303.864471 
	C282.759735,306.059906 278.503265,308.210999 274.298401,310.458618 
	C257.476532,319.450500 256.674286,319.470245 239.918472,310.565979 
	C235.841248,308.399231 231.791626,306.180511 227.213425,303.627899 
	C214.362274,294.752655 203.416107,284.806946 194.276169,272.833527 
	C177.035812,250.248489 166.608139,224.826859 164.225723,196.642181 
	C162.562607,176.966675 163.782288,157.202255 169.983215,138.117523 
	C172.775162,131.393753 175.567093,124.669975 178.415649,117.566177 
	C187.483536,98.406357 200.120941,82.536842 216.160599,69.218826 
	C226.552521,60.590210 237.904236,53.799534 250.174103,48.204510 
	C256.524658,45.308659 261.829010,47.165234 267.215027,49.707291 
	C293.743347,62.227940 314.585571,81.102646 329.659058,106.282539 
	C331.659973,109.625107 333.309326,113.178162 335.313324,116.912399 
z"/>
<path fill="#000000" opacity="1.000000" stroke="none" 
	d="
M287.394897,303.959534 
	C293.235687,298.871063 300.050873,294.433441 305.578705,288.744904 
	C312.637756,281.480560 319.467468,273.725464 324.911835,265.230713 
	C331.125763,255.535126 335.934570,244.901459 340.901306,234.460098 
	C343.362946,229.285156 340.427765,222.470566 335.128967,220.760544 
	C328.674774,218.677643 323.726868,219.826477 320.799957,225.546768 
	C316.350952,234.241776 312.247070,243.175278 307.059937,251.418030 
	C295.547791,269.711700 279.767517,283.522705 260.210327,292.757019 
	C258.007690,293.797028 254.302551,293.468079 252.057129,292.303223 
	C239.618744,285.850555 228.295334,277.734589 218.849350,267.297424 
	C202.836777,249.604614 192.030670,229.112350 188.183456,205.509018 
	C186.441574,194.822311 185.490799,183.732620 186.242935,172.969849 
	C187.860474,149.823822 195.334854,128.507660 208.993622,109.381813 
	C220.674683,93.025246 235.601013,80.707268 253.233780,71.508339 
	C255.181396,70.492279 258.693207,70.269180 260.399323,71.363129 
	C269.601715,77.263718 278.871460,83.191658 287.351837,90.056602 
	C302.145966,102.032631 312.447449,117.634895 319.089508,135.285187 
	C322.784851,145.105026 325.046906,155.591858 326.801300,165.973022 
	C328.141144,173.901215 327.633545,182.137299 328.015533,190.233215 
	C328.263000,195.477554 333.082642,199.901932 338.514191,199.999695 
	C344.831879,200.113403 349.690887,196.597443 349.926178,191.011505 
	C350.669952,173.353333 349.774445,155.837769 344.023651,138.506226 
	C354.516663,136.079697 364.942719,133.192230 375.545990,132.201645 
	C390.835938,130.773254 406.077362,132.362000 420.576324,137.926712 
	C422.809662,138.783875 425.328186,141.151871 426.046204,143.362991 
	C435.770294,173.309479 434.311951,202.699097 421.281982,231.508942 
	C414.562347,246.366333 405.455383,259.533813 393.693207,270.688934 
	C373.382050,289.951782 349.361847,301.649506 321.384308,305.120331 
	C310.070831,306.523865 298.933075,306.310394 287.394897,303.959534 
z"/>
<path fill="#000000" opacity="1.000000" stroke="none" 
	d="
M169.645355,137.943008 
	C163.782288,157.202255 162.562607,176.966675 164.225723,196.642181 
	C166.608139,224.826859 177.035812,250.248489 194.276169,272.833527 
	C203.416107,284.806946 214.362274,294.752655 226.852097,303.567322 
	C214.221130,306.827698 201.341049,306.760315 188.485107,304.643738 
	C166.994980,301.105652 147.551239,292.881439 130.380981,279.253021 
	C104.000610,258.314331 87.846169,231.443649 83.009636,198.079208 
	C80.334846,179.627365 81.644722,161.379837 87.623390,143.558395 
	C88.687088,140.387680 90.337288,138.657562 93.542427,137.638657 
	C117.113091,130.145584 140.773895,129.755692 164.582748,136.317795 
	C166.170334,136.755356 167.733154,137.282837 169.645355,137.943008 
z"/>
<path fill="#000000" opacity="1.000000" stroke="none" 
	d="
M291.848114,327.064026 
	C301.087463,327.377289 310.017334,328.775208 318.629639,327.678741 
	C330.875610,326.119659 343.143005,323.555939 354.942108,319.928192 
	C373.707062,314.158722 389.995361,303.716492 404.838531,290.813507 
	C417.140320,280.119690 426.957764,267.567780 435.107605,253.603165 
	C436.543884,251.142120 438.024475,250.735229 440.292816,252.161911 
	C457.818604,263.184845 471.563171,277.627319 483.387939,294.790222 
	C492.351044,307.799622 485.026825,316.167419 478.921021,325.365875 
	C464.310455,347.376801 444.144897,362.612274 419.243805,371.211029 
	C402.160950,377.110046 384.600037,379.222168 366.363556,377.282440 
	C346.589081,375.179108 328.382080,368.777222 312.062683,358.105347 
	C299.713013,350.029388 288.957489,339.559814 280.107513,325.935852 
	C284.630005,326.376129 288.013428,326.705505 291.848114,327.064026 
z"/>
<path fill="#000000" opacity="1.000000" stroke="none" 
	d="
M295.893616,373.665405 
	C297.230377,388.175232 294.687042,401.769836 287.848969,414.340759 
	C281.287842,426.402435 272.247833,436.240601 259.816650,442.508698 
	C258.360260,443.243073 255.917740,443.458618 254.560944,442.735474 
	C237.519608,433.651947 226.254730,419.720428 221.077621,401.131592 
	C219.257065,394.594696 218.236771,387.816101 217.184036,381.095734 
	C216.873108,379.110779 217.700974,376.947449 218.024323,374.443634 
	C233.472427,362.843781 246.206345,349.081848 256.948486,332.149048 
	C267.804291,348.735901 280.020782,362.735077 295.893616,373.665405 
z"/>
</svg>